<svg version="1.1" id="Layer_1" xmlns="http://www.w3.org/2000/svg" xmlns:xlink="http://www.w3.org/1999/xlink" x="0px" y="0px"
	 width="100%" viewBox="0 0 1995 147" enable-background="new 0 0 1995 147" xml:space="preserve">
<path fill="#000000" opacity="1.000000" stroke="none" 
	d="
M1260.000000,148.000000 
	C840.399170,148.000000 420.798401,148.000000 1.098793,148.000000 
	C1.098793,99.073730 1.098793,50.147194 1.098793,1.000000 
	C415.694672,1.000000 830.389404,1.000000 1245.831909,1.304571 
	C1245.928833,2.357073 1245.278931,3.105731 1244.627075,3.852798 
	C1241.752441,7.147471 1242.343872,9.938091 1246.257935,12.120852 
	C1247.234131,12.665219 1248.031250,13.557748 1248.850220,14.352355 
	C1252.825195,18.208557 1256.568604,22.335697 1260.787842,25.900843 
	C1268.296875,32.245995 1276.089722,38.255486 1283.544434,44.561897 
	C1283.192261,44.839455 1283.059448,44.960480 1282.562012,45.041550 
	C1274.811646,40.628864 1267.426025,36.256134 1259.900513,31.549271 
	C1249.950562,25.064240 1240.202026,18.811644 1230.299316,12.813643 
	C1226.464966,10.491288 1222.372559,11.561369 1220.435547,15.265000 
	C1218.494873,18.975397 1221.889160,21.183540 1224.081299,22.364140 
	C1235.560547,28.546507 1247.301758,34.242584 1259.099854,40.436893 
	C1269.521851,45.862949 1279.795654,50.959801 1289.614990,56.030800 
	C1279.914307,55.669678 1270.666870,55.370174 1261.422729,54.987072 
	C1254.836792,54.714130 1248.256592,54.304066 1241.671875,53.998554 
	C1227.006348,53.318119 1212.341797,52.613129 1197.672241,52.032078 
	C1193.271362,51.857765 1192.025024,55.337612 1192.169800,58.583847 
	C1192.318726,61.923672 1192.643677,66.200363 1197.884644,65.983658 
	C1204.304077,65.718224 1210.718506,65.331955 1217.135376,65.001900 
	C1230.135376,64.333260 1243.132935,63.611736 1256.136353,63.018852 
	C1265.547485,62.589752 1274.967041,62.341930 1284.382080,61.994656 
	C1288.270874,61.851212 1290.706909,60.337067 1290.307373,55.955208 
	C1291.569214,56.341549 1292.481079,56.624760 1293.327026,57.041687 
	C1298.692017,59.685352 1298.962891,59.541485 1299.331299,54.009605 
	C1301.816650,57.151054 1303.971436,60.155296 1306.126099,63.159542 
	C1306.781738,62.858070 1307.437378,62.556599 1308.093018,62.255127 
	C1307.277588,59.625336 1306.462280,56.995544 1305.646851,54.365753 
	C1305.974365,54.537140 1306.301880,54.708523 1306.629517,54.879910 
	C1307.312256,53.465691 1307.994995,52.051472 1309.107422,50.849033 
	C1310.338501,57.423420 1311.140015,63.786026 1311.941528,70.148628 
	C1312.523804,70.124565 1313.105957,70.100510 1313.688232,70.076447 
	C1314.125366,68.447723 1314.894287,66.829697 1314.947021,65.188576 
	C1315.374268,51.944866 1315.732178,38.698006 1315.974976,25.449608 
	C1316.113159,17.909582 1314.688232,17.095085 1308.833374,20.206482 
	C1308.833374,30.646544 1308.833374,40.718357 1308.463867,50.666962 
	C1305.888306,40.348366 1303.707031,30.147484 1301.461548,19.960732 
	C1300.741455,16.693846 1300.243774,13.285201 1298.875488,10.293021 
	C1298.190308,8.794910 1295.776245,8.087565 1294.144043,7.022603 
	C1293.096069,8.659086 1291.778198,10.192415 1291.099121,11.969829 
	C1290.676270,13.076238 1290.938354,14.655591 1291.376709,15.844250 
	C1293.583984,21.827888 1296.038574,27.720633 1298.225830,33.711185 
	C1299.411743,36.958942 1300.237305,40.338177 1301.225464,43.658104 
	C1300.779175,43.820522 1300.333008,43.982944 1299.886719,44.145367 
	C1299.308594,43.291321 1298.645996,42.482082 1298.165283,41.576332 
	C1292.932007,31.714260 1287.708252,21.846924 1282.524292,11.958829 
	C1280.625000,8.336220 1278.838135,4.654680 1277.000000,1.000009 
	C1516.604126,1.000000 1756.208252,1.000000 1995.906250,1.000000 
	C1995.906250,49.924496 1995.906250,98.849236 1995.906250,148.000000 
	C1753.638672,148.000000 1511.277344,148.000000 1268.158203,147.656433 
	C1267.926025,146.496094 1268.797363,145.728973 1268.922852,144.854721 
	C1270.024048,137.187668 1270.939209,129.494064 1272.014038,121.822968 
	C1273.242432,113.056313 1274.496704,104.291573 1275.907837,95.553162 
	C1276.443481,92.236748 1275.283203,90.820641 1272.006348,90.604797 
	C1273.944458,86.026627 1275.783936,81.765175 1277.858643,77.621460 
	C1279.531860,74.279762 1278.891968,72.698944 1274.685791,72.715675 
	C1276.588867,70.781052 1278.869751,69.260437 1280.918579,67.473824 
	C1281.773804,66.728088 1282.135742,65.416603 1282.721802,64.362320 
	C1281.306885,64.211830 1279.688477,63.544407 1278.514648,64.006500 
	C1274.801392,65.468338 1271.254395,67.352661 1267.395630,69.191498 
	C1266.646118,66.503441 1267.558960,63.464268 1262.323853,64.627464 
	C1242.941772,68.934097 1223.332886,72.211617 1203.847900,76.071579 
	C1200.179688,76.798241 1196.689087,78.421906 1193.126831,79.642181 
	C1193.137085,79.652710 1193.123291,79.615807 1192.823608,79.807877 
	C1189.432495,84.834000 1190.954956,90.016670 1196.409668,91.910461 
	C1198.875244,91.653175 1201.047607,91.635094 1202.967651,90.929787 
	C1211.665894,87.734261 1220.262817,84.262794 1228.954468,81.048523 
	C1237.278931,77.970108 1245.675415,75.086319 1254.424561,72.062729 
	C1256.131958,72.338181 1257.455078,72.667923 1259.702637,73.228088 
	C1258.166138,73.884827 1257.717163,74.046654 1257.295044,74.261475 
	C1239.110596,83.518143 1220.877930,92.683884 1202.834106,102.207306 
	C1201.254150,103.041245 1200.136841,106.253998 1200.209595,108.312202 
	C1200.289185,110.562920 1201.429688,113.512939 1203.133789,114.801834 
	C1205.898804,116.893364 1209.021606,115.672295 1211.918213,113.677803 
	C1224.140747,105.261650 1236.408203,96.905319 1248.821167,88.774216 
	C1253.348999,85.808350 1258.327026,83.529976 1263.000244,81.275009 
	C1257.220825,86.954895 1251.602417,92.365189 1245.843628,97.621635 
	C1240.089844,102.873535 1234.134888,107.905212 1228.385864,113.162262 
	C1225.044189,116.217979 1221.849365,119.447891 1218.758667,122.758347 
	C1217.390991,124.223213 1215.136963,126.641991 1215.568604,127.650108 
	C1216.600464,130.060303 1218.648193,132.738129 1220.946167,133.658081 
	C1222.491699,134.276779 1225.810913,132.645493 1227.221924,131.040680 
	C1233.259521,124.173943 1238.769043,116.846367 1244.687744,109.870651 
	C1251.603760,101.719574 1258.790283,93.798454 1265.744751,85.679291 
	C1266.927979,84.297874 1267.534668,82.422653 1269.118896,79.434052 
	C1266.110596,80.254601 1264.511719,80.690735 1262.626465,80.803452 
	C1266.605347,77.938217 1270.870605,75.396400 1275.072021,73.230118 
	C1267.677124,85.685104 1260.427734,97.815247 1252.986328,109.826378 
	C1247.913086,118.015282 1242.527344,126.010063 1237.371216,134.148605 
	C1235.339233,137.356155 1235.197998,140.777573 1238.094727,143.483597 
	C1240.731445,145.946686 1245.550171,145.219101 1247.439331,141.949661 
	C1250.540161,136.583832 1253.305176,131.010590 1255.974976,125.411926 
	C1261.458374,113.912987 1266.785278,102.339348 1272.470947,91.167114 
	C1268.842896,105.503960 1264.931152,119.473206 1260.991577,133.434601 
	C1259.639160,138.227356 1257.516724,142.952545 1260.000000,148.000000 
M1323.652466,68.543388 
	C1323.457642,69.985886 1323.262817,71.428375 1322.903076,74.091446 
	C1327.619019,70.798386 1330.994019,68.034134 1334.747314,65.951904 
	C1337.664673,64.333351 1337.129639,61.976593 1336.877808,59.723278 
	C1336.773438,58.791084 1335.043457,57.143074 1334.599731,57.306366 
	C1332.940063,57.917072 1331.233154,58.895088 1330.054810,60.197552 
	C1328.450317,61.971050 1327.441895,64.272400 1325.920898,66.137871 
	C1325.201416,67.020203 1323.884888,67.415749 1322.991089,67.293083 
	C1326.390991,61.324116 1329.953491,55.436630 1333.026855,49.304180 
	C1333.525757,48.308823 1332.189087,45.262398 1331.106567,44.889507 
	C1329.725586,44.413818 1326.697510,45.198414 1326.178833,46.292580 
	C1321.670776,55.805103 1317.509033,65.484512 1313.384888,75.174164 
	C1312.452393,77.365036 1312.314453,79.615639 1316.611816,79.482872 
	C1314.067383,81.394852 1311.523071,83.306831 1308.978638,85.218803 
	C1311.121704,86.054314 1313.119873,86.240303 1314.781494,85.579742 
	C1321.298706,82.989197 1327.702881,80.115120 1334.162476,77.378418 
	C1339.325317,75.191154 1339.559814,72.702568 1334.723877,68.897751 
	C1332.765137,70.141586 1330.816406,71.577415 1328.695679,72.683578 
	C1324.469727,74.887939 1320.149048,76.911201 1315.992798,78.280701 
	C1318.313965,74.829689 1320.635132,71.378685 1323.652466,68.543388 
M1288.640259,100.129829 
	C1290.722900,104.101440 1292.805542,108.073051 1294.996338,112.784195 
	C1297.807983,118.488167 1300.405273,124.315392 1303.568848,129.817078 
	C1304.458252,131.363846 1306.942749,132.564713 1308.822876,132.772614 
	C1310.105713,132.914459 1312.668823,131.160980 1312.776001,130.070053 
	C1312.953369,128.262863 1311.873535,126.152344 1310.860962,124.443634 
	C1308.333374,120.178192 1305.545654,116.066818 1303.440063,111.338028 
	C1304.279907,111.930916 1305.119751,112.523804 1306.214478,113.758301 
	C1308.816284,116.892136 1311.505371,119.958641 1313.993774,123.180077 
	C1316.169067,125.995842 1319.371948,124.820068 1320.470947,123.411621 
	C1321.650269,121.900139 1321.876343,117.706940 1320.727661,116.672729 
	C1316.961060,113.281227 1312.381348,110.792786 1307.903931,107.380470 
	C1307.346680,106.783417 1306.789307,106.186356 1306.665894,105.270683 
	C1306.801392,105.153061 1306.936890,105.035431 1307.793823,104.997795 
	C1312.222168,107.866684 1316.841553,110.486809 1321.013306,113.689812 
	C1323.913574,115.916466 1326.174194,115.336220 1327.560425,112.733482 
	C1328.856689,110.299393 1328.367920,107.880310 1325.069214,106.473579 
	C1317.424438,103.213356 1309.979492,99.487350 1302.367676,96.145821 
	C1299.156006,94.736015 1295.727905,93.819504 1291.531372,92.381836 
	C1292.802490,95.211548 1293.537476,96.847618 1294.272339,98.483696 
	C1294.006958,98.636665 1293.741699,98.789635 1293.476318,98.942604 
	C1290.745117,95.492455 1288.013794,92.042305 1285.282593,88.592148 
	C1284.666748,88.923164 1284.051025,89.254173 1283.435303,89.585190 
	C1284.977417,93.038712 1286.519531,96.492233 1287.493896,100.625031 
	C1285.200684,99.525116 1283.828003,100.372925 1284.377808,102.767586 
	C1287.232666,115.201759 1290.279785,127.591774 1293.180542,139.666626 
	C1296.139648,139.666626 1298.543945,139.666626 1301.235962,139.666626 
	C1300.967041,137.201279 1301.154419,134.938690 1300.431274,133.018967 
	C1298.069580,126.748634 1295.246582,120.652809 1292.852173,114.393784 
	C1291.023682,109.613831 1289.576416,104.688126 1288.640259,100.129829 
M377.975983,110.500000 
	C377.975983,93.279671 377.975983,76.059349 377.975983,58.839020 
	C379.316467,59.781639 380.002350,60.841972 380.474884,61.990105 
	C390.385864,86.069756 400.290802,110.151955 410.138000,134.257706 
	C411.194702,136.844391 412.552429,138.208832 415.655212,138.048431 
	C421.140167,137.764862 426.660156,138.150330 432.143646,137.852921 
	C433.565582,137.775787 435.623413,136.521896 436.175690,135.272247 
	C442.930786,119.986931 449.460754,104.602127 456.046600,89.242043 
	C460.538910,78.764717 465.027313,68.285713 469.517487,57.807468 
	C469.792511,57.864838 470.067505,57.922211 470.342499,57.979584 
	C470.342499,83.894913 470.342499,109.810242 470.342499,135.720825 
	C483.042877,135.720825 495.303619,135.720825 507.348419,135.720825 
	C507.656860,135.311432 507.838135,135.183197 507.838318,135.054703 
	C507.897247,93.226906 507.926056,51.399052 508.027374,9.571370 
	C508.034698,6.554502 506.549774,5.962762 503.980042,5.974082 
	C490.980927,6.031341 477.979797,5.905462 464.984375,6.131938 
	C463.504547,6.157728 461.304596,7.661333 460.709839,9.031520 
	C454.969604,22.255302 449.535156,35.611359 443.945892,48.901253 
	C439.205902,60.171741 434.377075,71.404869 429.505890,82.846359 
	C429.146759,82.187263 428.866669,81.775650 428.684601,81.324486 
	C419.069458,57.499344 409.421906,33.687096 399.907288,9.821833 
	C398.737579,6.887912 397.097443,5.893546 393.962555,5.931214 
	C380.465179,6.093400 366.964661,5.992088 353.465393,6.017489 
	C352.367157,6.019555 351.269348,6.253750 350.254822,6.370478 
	C350.254822,49.629055 350.254822,92.563622 350.254822,135.703156 
	C359.563049,135.703156 368.616119,135.703156 377.976013,135.703156 
	C377.976013,127.438408 377.976013,119.469200 377.975983,110.500000 
M670.454224,136.001663 
	C673.217102,136.001663 675.979980,136.001663 679.116943,136.001663 
	C679.116943,109.824539 679.116943,84.322784 679.116943,57.933018 
	C686.540771,71.156334 693.523865,83.510582 700.424988,95.910439 
	C707.445679,108.525276 714.358398,121.200333 721.415283,133.794693 
	C721.950439,134.749710 723.252197,135.891708 724.208313,135.901474 
	C737.650696,136.038986 751.094910,135.994888 764.827942,135.994888 
	C764.890930,134.569031 764.970215,133.609222 764.970398,132.649429 
	C764.977478,92.005539 764.977478,51.361652 764.978333,10.717762 
	C764.978333,10.218042 765.181335,9.565191 764.941101,9.246212 
	C764.084167,8.108385 763.103455,6.187269 762.121765,6.157817 
	C753.864868,5.910093 745.597473,6.016715 736.936646,6.016715 
	C736.936646,32.138172 736.936646,57.647438 736.936646,83.156708 
	C730.635071,72.986877 725.188599,62.579845 719.545410,52.280594 
	C711.753174,38.059196 703.717407,23.970482 696.019531,9.698915 
	C694.555908,6.985367 693.050842,5.885583 689.954041,5.931459 
	C678.296448,6.104156 666.634766,5.987875 654.974731,6.020338 
	C653.718262,6.023836 652.462585,6.291203 651.295410,6.425910 
	C651.295410,49.760975 651.295410,92.666695 651.295410,136.001663 
	C657.542908,136.001663 663.503601,136.001663 670.454224,136.001663 
M611.499084,6.000918 
	C586.426636,6.000918 561.354126,6.000918 536.406494,6.000918 
	C536.406494,49.750969 536.406494,92.777786 536.406494,135.718613 
	C568.393921,135.718613 599.973999,135.718613 631.985779,135.718613 
	C631.985779,129.651627 631.996887,123.858971 631.983337,118.066368 
	C631.959229,107.757706 632.990295,109.043434 622.921021,109.017235 
	C606.788635,108.975258 590.656128,109.005989 574.716003,109.005989 
	C574.716003,99.870430 574.716003,91.131531 574.716003,82.002571 
	C576.168701,82.002571 577.811218,82.002594 579.453735,82.002571 
	C592.611389,82.002426 605.770935,81.876419 618.925476,82.078560 
	C622.889893,82.139481 624.304138,80.798485 624.102844,76.894096 
	C623.862976,72.242973 623.926575,67.566063 624.083618,62.907906 
	C624.203491,59.353031 622.998108,57.829979 619.187500,57.929638 
	C610.532776,58.155979 601.867920,58.000420 593.207214,58.000248 
	C586.949097,58.000122 580.690979,58.000221 574.679077,58.000221 
	C574.679077,49.062721 574.679077,40.676807 574.679077,32.004292 
	C576.391541,32.004292 578.044006,32.004307 579.696533,32.004288 
	C595.185913,32.004131 610.676147,31.916288 626.164062,32.067905 
	C629.852966,32.104019 631.220398,30.914791 631.041443,27.177748 
	C630.786926,21.860273 630.732727,16.506708 631.053833,11.196430 
	C631.317688,6.834968 629.484497,5.685136 625.485352,5.938972 
	C621.172302,6.212729 616.828552,6.000907 611.499084,6.000918 
M264.500000,6.001392 
	C254.745560,6.001392 244.991119,6.001392 235.268692,6.001392 
	C235.268692,49.681843 235.268692,92.606483 235.268692,135.687378 
	C267.254944,135.687378 298.970215,135.687378 330.990967,135.687378 
	C330.990967,128.238327 330.776947,121.091034 331.072937,113.964920 
	C331.244629,109.831589 329.577393,108.870728 325.801239,108.939720 
	C315.306396,109.131454 304.805786,109.006401 294.307434,109.006462 
	C287.358917,109.006500 280.410400,109.006462 273.339600,109.006462 
	C273.339600,99.747505 273.339600,91.033653 273.339600,81.879700 
	C289.607208,81.879700 305.532715,81.879700 321.611816,81.879700 
	C321.611816,73.729538 321.611816,66.029030 321.611816,57.896355 
	C305.305939,57.896355 289.379944,57.896355 273.348022,57.896355 
	C273.348022,49.073051 273.348022,40.691872 273.348022,32.003811 
	C275.501801,32.003811 277.312439,32.003826 279.123077,32.003811 
	C294.454010,32.003685 309.786011,31.904121 325.115051,32.074726 
	C328.855103,32.116352 330.179657,30.814249 330.049408,27.171646 
	C329.864929,22.012375 329.781586,16.829281 330.069916,11.679596 
	C330.307953,7.428599 329.036987,5.847336 324.489502,5.901472 
	C304.828705,6.135525 285.163574,6.001503 264.500000,6.001392 
M885.125916,113.450264 
	C893.820374,94.706123 886.585449,76.859245 871.657471,67.329964 
	C862.720154,61.624825 853.065979,57.036396 843.692871,52.022865 
	C838.529602,49.261093 833.148743,46.882904 828.113220,43.912689 
	C824.087524,41.538116 823.858765,36.849911 827.006958,33.500172 
	C831.214783,29.023012 837.072266,27.700806 842.353088,28.261000 
	C853.022217,29.392769 863.533936,32.012863 874.108032,34.031994 
	C875.582520,34.313549 877.043152,34.667805 878.989624,35.093201 
	C878.989624,26.692503 879.124634,19.046921 878.846741,11.416395 
	C878.804199,10.247041 877.007324,8.388133 875.765320,8.141830 
	C869.189758,6.837809 862.556458,5.742280 855.898315,4.953239 
	C838.175720,2.852962 820.734253,2.779167 804.748901,12.626799 
	C798.586060,16.423397 792.984924,20.990559 790.349915,27.706493 
	C782.902649,46.687725 787.292542,64.898537 805.610107,75.902977 
	C817.022400,82.759003 829.714172,87.544571 842.016602,92.828819 
	C846.576965,94.787605 849.641907,97.531929 849.872803,102.365150 
	C850.083496,106.775848 845.826111,111.543083 840.653442,111.796547 
	C831.499878,112.245087 822.225159,112.355339 813.136902,111.363350 
	C805.132690,110.489662 797.314026,107.916489 789.002319,105.998970 
	C789.002319,114.335518 788.740417,122.324768 789.216003,130.269897 
	C789.315002,131.923843 791.960205,134.509827 793.742920,134.808151 
	C808.959229,137.354431 824.153809,139.448380 839.771423,138.167694 
	C858.518311,136.630447 874.262268,130.440964 885.125916,113.450264 
M67.699539,75.931358 
	C69.684425,77.042877 71.598953,78.310974 73.665970,79.239738 
	C84.567116,84.137863 95.508377,88.946671 106.432030,93.794785 
	C110.111588,95.427849 112.949448,98.022278 112.802887,102.220917 
	C112.633331,107.078323 108.775848,111.594360 103.756088,111.795341 
	C94.459694,112.167542 85.060860,112.198509 75.826340,111.221603 
	C67.946915,110.388046 60.238117,107.941551 52.243668,106.161758 
	C52.243668,115.413071 52.243668,124.518105 52.243668,133.527084 
	C53.738243,134.043137 54.947086,134.677734 56.222172,134.867676 
	C71.472015,137.139374 86.635818,139.796143 102.242233,138.121979 
	C114.326317,136.825653 125.715195,134.580963 135.837067,127.129539 
	C154.378326,113.480049 157.410812,89.146042 140.999496,72.377167 
	C133.033813,64.237923 122.671265,60.331833 113.062035,55.087963 
	C106.341782,51.420643 99.092262,48.707191 92.460945,44.902260 
	C90.356270,43.694633 88.857437,40.502327 88.201782,37.932392 
	C87.375710,34.694496 89.470055,32.050255 92.622391,31.230366 
	C97.808441,29.881529 103.269180,27.739550 108.362831,28.283779 
	C117.891853,29.301908 127.240883,32.004452 136.664917,34.005726 
	C138.306458,34.354328 139.948547,34.700443 142.003174,35.135014 
	C142.003174,26.782122 142.137863,19.128046 141.862854,11.488721 
	C141.819946,10.296724 140.079468,8.409271 138.837692,8.133774 
	C126.107254,5.309447 113.273560,3.564425 100.139687,3.911532 
	C88.760506,4.212265 78.176857,6.513573 68.227051,12.274951 
	C50.195957,22.715755 45.558033,42.183434 53.600178,59.491844 
	C56.442608,65.609352 62.490288,70.237587 67.699539,75.931358 
M167.001587,14.551662 
	C167.001587,54.933094 167.001587,95.314529 167.001587,135.725708 
	C180.620972,135.725708 193.534637,135.725708 207.012711,135.725708 
	C207.012711,133.510956 207.012695,131.563110 207.012726,129.615250 
	C207.013306,91.822273 207.049988,54.029236 206.993256,16.236343 
	C206.975464,4.385296 208.551392,6.107315 196.603378,6.016506 
	C186.847305,5.942357 177.090210,6.001419 167.001221,6.001419 
	C167.001221,8.959460 167.001221,11.265644 167.001587,14.551662 
M1080.681274,113.149887 
	C1076.126831,106.785713 1071.464722,100.495041 1067.049438,94.035660 
	C1063.025757,88.149048 1059.586304,81.836754 1055.258667,76.195839 
	C1053.187866,73.496635 1052.211914,71.653511 1054.574097,68.935905 
	C1056.660278,66.535942 1058.917358,64.236519 1060.677368,61.610035 
	C1066.395020,53.076996 1071.935059,44.424492 1077.509277,35.795784 
	C1079.471802,32.757816 1081.335205,29.655722 1083.604980,26.001474 
	C1076.304321,26.001474 1069.821289,25.922005 1063.344482,26.088894 
	C1062.395264,26.113354 1061.160034,27.107841 1060.593384,27.995749 
	C1056.251465,34.799545 1052.141113,41.751949 1047.752808,48.524818 
	C1045.357910,52.221203 1042.562256,55.658035 1040.130249,58.963490 
	C1038.445923,56.313023 1037.021851,54.137615 1035.663574,51.921810 
	C1031.724609,45.496082 1028.027222,38.907444 1023.787048,32.688179 
	C1021.998596,30.064995 1019.338989,26.773499 1016.634888,26.299627 
	C1011.003845,25.312834 1005.079163,26.001232 998.758423,26.001232 
	C999.126160,27.909319 999.087830,29.575050 999.772034,30.854326 
	C1001.019958,33.187786 1002.665894,35.313530 1004.198853,37.488560 
	C1011.138489,47.334412 1018.190613,57.103222 1024.966797,67.059959 
	C1026.284302,68.995781 1027.910278,72.456749 1027.086426,73.834175 
	C1021.564880,83.066307 1015.395020,91.909286 1009.483826,100.910248 
	C1005.186157,107.454155 1000.888916,114.000595 996.735718,120.636162 
	C994.465393,124.263397 994.869751,124.907814 999.082397,124.982399 
	C1003.411987,125.059059 1007.748718,125.114563 1012.072449,124.937668 
	C1013.609131,124.874786 1015.817505,124.586319 1016.518738,123.571365 
	C1019.904114,118.671074 1022.838196,113.461647 1026.011475,108.411598 
	C1030.722046,100.915131 1035.499146,93.460533 1040.654663,85.348183 
	C1040.859497,86.849411 1040.744751,87.616600 1041.062378,88.099335 
	C1047.773560,98.298332 1054.522583,108.472572 1061.288696,118.635269 
	C1064.279907,123.128052 1067.792358,126.416367 1073.922119,125.084076 
	C1076.308105,124.565483 1078.914307,125.151047 1081.393677,124.932182 
	C1082.560791,124.829147 1084.419189,124.227097 1084.632080,123.474380 
	C1085.007935,122.145828 1084.647827,120.407806 1084.076294,119.061867 
	C1083.299316,117.232735 1082.034180,115.610970 1080.681274,113.149887 
M1488.301514,85.999718 
	C1485.219360,85.999718 1482.137207,85.999718 1478.720703,85.999718 
	C1479.042114,88.469429 1479.045532,90.314545 1479.540527,92.016586 
	C1483.839722,106.794769 1500.187012,109.519234 1511.809204,105.816315 
	C1515.962769,104.492935 1520.880615,101.341087 1522.684326,97.666428 
	C1527.990479,86.856903 1525.036499,77.680519 1513.920044,72.107277 
	C1508.827271,69.553970 1502.951904,68.573380 1497.819824,66.080009 
	C1496.224731,65.305031 1495.203979,61.882710 1495.268799,59.712570 
	C1495.306885,58.436722 1497.827637,56.578037 1499.529541,56.140812 
	C1503.486694,55.124256 1507.484985,57.057625 1508.502563,60.466805 
	C1509.730469,64.580498 1512.125732,64.042137 1514.817017,63.968853 
	C1517.585571,63.893467 1520.358765,63.658154 1523.098999,63.272896 
	C1523.483521,63.218830 1524.120850,61.742260 1523.910767,61.215031 
	C1522.742188,58.281471 1521.812744,55.085537 1519.947754,52.626797 
	C1513.463867,44.078964 1504.588867,41.311386 1494.425415,44.131248 
	C1488.046509,45.901062 1482.409302,48.994007 1480.718750,56.632713 
	C1479.406860,62.560173 1480.307007,71.033340 1484.061646,73.395027 
	C1488.618530,76.261375 1493.513550,78.622978 1498.387329,80.940056 
	C1501.109009,82.234001 1504.359985,82.563667 1506.844604,84.153107 
	C1508.403320,85.150276 1509.774170,87.686859 1509.756470,89.518539 
	C1509.741577,91.058914 1507.907715,93.139862 1506.340332,94.003090 
	C1501.497437,96.670204 1495.145508,94.227715 1493.401611,88.572670 
	C1492.514038,85.694641 1491.135498,85.987930 1488.301514,85.999718 
M1444.502930,105.999748 
	C1446.599609,105.999748 1448.696411,105.999748 1451.181152,105.999748 
	C1451.181152,97.683357 1451.181152,89.939316 1451.181152,81.814232 
	C1457.986450,81.814232 1464.396729,81.814232 1470.704468,81.814232 
	C1470.704468,77.336548 1470.704468,73.263535 1470.704468,68.808311 
	C1464.001831,68.808311 1457.590576,68.808311 1451.298584,68.808311 
	C1451.298584,64.664246 1451.298584,60.923737 1451.298584,56.800446 
	C1459.670166,56.800446 1467.748291,56.800446 1475.696777,56.800446 
	C1475.696777,52.324196 1475.696777,48.251816 1475.696777,44.303543 
	C1462.988770,44.303543 1450.585693,44.303543 1438.298584,44.303543 
	C1438.298584,65.008888 1438.298584,85.410431 1438.298584,105.999748 
	C1440.241089,105.999748 1441.890137,105.999748 1444.502930,105.999748 
M1602.982910,63.815006 
	C1596.308716,48.198517 1581.854248,43.653236 1567.356445,47.044758 
	C1551.133423,50.839886 1540.432739,69.195885 1545.675903,85.148354 
	C1552.791748,106.798058 1574.692871,112.346184 1592.604248,102.725792 
	C1599.449219,99.049309 1602.458008,92.678482 1604.189331,85.159065 
	C1600.805908,85.159065 1598.021606,85.159065 1595.458008,85.159065 
	C1592.280396,91.807198 1588.093628,96.432892 1580.579346,98.239075 
	C1572.824829,100.102974 1566.407227,98.145500 1560.934937,93.258957 
	C1555.120239,88.066795 1552.884521,80.784088 1554.441284,73.329498 
	C1557.409058,59.118618 1566.050415,52.518517 1580.702271,55.237904 
	C1584.741455,55.987579 1590.067993,58.787910 1591.599365,62.120022 
	C1594.450195,68.323257 1598.356567,68.695877 1604.162598,67.619492 
	C1603.798340,66.576614 1603.456787,65.598557 1602.982910,63.815006 
M1745.635986,97.889977 
	C1749.475952,89.760345 1750.181274,81.763741 1745.872314,73.387367 
	C1741.157471,64.222183 1728.468750,62.189445 1720.796265,65.079567 
	C1718.883423,65.800117 1717.101562,66.868256 1715.163940,67.823730 
	C1715.028320,66.413826 1714.921875,65.308220 1714.819214,64.240341 
	C1711.806519,64.240341 1709.052734,64.240341 1706.197388,64.240341 
	C1706.197388,84.190598 1706.197388,103.900513 1706.197388,123.804855 
	C1709.125977,123.804855 1711.857910,123.804855 1715.123657,123.804855 
	C1715.123657,116.808044 1715.123657,109.971741 1715.123657,102.866714 
	C1727.340942,109.710945 1739.060059,107.814125 1745.635986,97.889977 
M1686.987793,105.985252 
	C1696.157959,100.002678 1703.037354,92.573494 1699.591187,80.670296 
	C1698.283447,76.153748 1695.671509,71.330116 1692.218872,68.260689 
	C1684.849609,61.709038 1673.440063,61.977627 1665.098511,69.816528 
	C1665.098511,67.843422 1665.098511,66.117500 1665.098511,64.320450 
	C1662.242920,64.320450 1659.701904,64.320450 1657.266357,64.320450 
	C1657.266357,84.353287 1657.266357,104.064980 1657.266357,123.735649 
	C1659.942139,123.735649 1662.344360,123.735649 1665.127441,123.735649 
	C1665.127441,116.133392 1665.127441,108.786446 1665.127441,100.847977 
	C1671.560059,106.794212 1678.374146,108.612877 1686.987793,105.985252 
M1851.018677,89.121544 
	C1852.452881,88.747437 1853.883789,88.064102 1855.321655,88.049324 
	C1864.774048,87.952187 1874.227905,87.999222 1883.598633,87.999222 
	C1886.056396,74.442039 1875.917480,65.240707 1868.077026,64.174362 
	C1852.960815,62.118454 1843.430908,68.604446 1841.044434,84.152245 
	C1839.588501,93.637459 1849.227051,105.941315 1858.867432,106.978798 
	C1870.649658,108.246780 1880.182129,103.461258 1882.824951,93.308197 
	C1878.094971,92.481560 1873.770874,92.459763 1870.368286,96.886742 
	C1869.385986,98.164879 1867.003906,98.618629 1865.172974,98.949020 
	C1857.783447,100.282547 1853.387207,96.669144 1851.018677,89.121544 
M1770.950195,98.999344 
	C1764.908447,97.862732 1762.549194,93.608528 1761.454956,87.999161 
	C1771.362915,87.999161 1781.024902,87.950027 1790.685913,88.030800 
	C1793.385254,88.053375 1795.457764,87.644554 1794.959106,84.294678 
	C1794.650635,82.222595 1794.208618,80.153557 1793.622559,78.142593 
	C1791.095093,69.470009 1783.537720,64.001137 1774.207397,64.000069 
	C1764.769409,63.998989 1755.681396,69.016602 1753.426880,76.146530 
	C1750.436890,85.601891 1751.267578,95.530640 1760.208130,102.680969 
	C1770.247559,110.710022 1789.214355,108.466377 1793.725830,92.600754 
	C1790.363770,93.036446 1785.726562,92.297928 1784.353027,94.077896 
	C1780.860474,98.603661 1776.754761,99.323051 1770.950195,98.999344 
M1899.898926,105.977058 
	C1907.373535,108.301163 1914.228760,107.000443 1920.773071,102.149071 
	C1920.941772,103.555946 1921.079834,104.706757 1921.201416,105.720444 
	C1923.958252,105.720444 1926.368896,105.720444 1928.758423,105.720444 
	C1928.758423,91.713921 1928.758423,77.988144 1928.758423,64.183052 
	C1926.076538,64.183052 1923.637695,64.183052 1921.223267,64.183052 
	C1921.035522,65.573158 1920.874512,66.765274 1920.678955,68.213051 
	C1919.758789,67.796745 1919.286377,67.670891 1918.917114,67.403008 
	C1910.580322,61.354004 1899.961548,62.986012 1893.627563,68.302849 
	C1887.032104,73.839096 1885.437378,82.468544 1887.474854,90.652100 
	C1889.036255,96.923607 1890.997070,103.991158 1899.898926,105.977058 
M1637.098022,65.006615 
	C1636.532837,64.713928 1635.997803,64.272369 1635.397949,64.150681 
	C1624.493042,61.938461 1616.279663,65.666298 1609.953735,74.656288 
	C1605.892944,80.427231 1605.668823,86.668289 1608.034790,92.338577 
	C1612.829590,103.829308 1619.591553,107.943352 1632.249756,106.935295 
	C1639.612549,106.348946 1645.857056,102.433441 1648.765259,95.992699 
	C1653.820923,84.795876 1652.291748,71.291245 1637.098022,65.006615 
M1425.999878,91.495262 
	C1425.999878,75.734566 1425.999878,59.973877 1425.999878,44.289478 
	C1421.351562,44.289478 1417.279053,44.289478 1413.285400,44.289478 
	C1413.285400,64.981071 1413.285400,85.382980 1413.285400,105.710693 
	C1417.650269,105.710693 1421.723389,105.710693 1425.999878,105.710693 
	C1425.999878,101.113892 1425.999878,96.802986 1425.999878,91.495262 
M1954.680176,43.002739 
	C1940.930664,44.029282 1942.164062,54.635479 1941.858887,64.289658 
	C1938.564941,64.289658 1935.817749,64.289658 1933.333496,64.289658 
	C1933.333496,67.085419 1933.333496,69.493622 1933.333496,72.273048 
	C1936.406128,72.273048 1939.145508,72.273048 1942.231445,72.273048 
	C1942.231445,83.726768 1942.231445,94.791771 1942.231445,105.694862 
	C1945.350586,105.694862 1948.086914,105.694862 1951.182739,105.694862 
	C1951.182739,94.331711 1951.182739,83.269318 1951.182739,71.837677 
	C1954.969604,71.837677 1958.384277,71.837677 1961.730347,71.837677 
	C1961.730347,69.044418 1961.730347,66.640327 1961.730347,63.862576 
	C1958.056885,63.862576 1954.639648,63.862576 1950.999756,63.862576 
	C1950.999756,61.341526 1950.988647,59.205757 1951.002197,57.070145 
	C1951.032837,52.239540 1952.648315,50.719284 1957.605225,51.028667 
	C1958.971313,51.113930 1960.316040,51.540836 1961.817627,51.840298 
	C1961.817627,49.207653 1961.817627,46.765274 1961.817627,44.331036 
	C1959.611816,43.863041 1957.579956,43.431965 1954.680176,43.002739 
M1264.799316,52.965305 
	C1268.474243,53.332691 1272.149170,53.700073 1275.770752,54.062130 
	C1276.870850,48.235966 1272.029297,49.025272 1269.651978,48.148525 
	C1251.009888,41.273537 1232.229126,34.775391 1213.504883,28.122358 
	C1210.024048,26.885553 1204.265991,29.392254 1203.084717,32.792255 
	C1201.482300,37.404507 1203.551880,40.929966 1208.939941,41.986500 
	C1227.285278,45.583874 1245.660400,49.029106 1264.799316,52.965305 
M1379.000000,45.500168 
	C1379.000000,38.733124 1379.000000,31.966084 1379.000000,25.257599 
	C1376.741455,25.257599 1375.005249,25.257599 1373.350830,25.257599 
	C1373.350830,58.988068 1373.350830,92.460304 1373.350830,125.840668 
	C1375.328491,125.840668 1376.949463,125.840668 1379.000000,125.840668 
	C1379.000000,99.289330 1379.000000,72.894730 1379.000000,45.500168 
M1808.990967,66.161453 
	C1806.241455,65.162521 1803.491943,64.163589 1800.205322,62.969540 
	C1800.205322,78.144028 1800.205322,91.885696 1800.205322,105.799789 
	C1803.145996,105.799789 1805.880981,105.799789 1808.787476,105.799789 
	C1808.787476,99.157753 1808.569702,92.701591 1808.881592,86.271111 
	C1809.032227,83.165535 1809.545654,79.758316 1811.011963,77.105087 
	C1813.714722,72.214645 1818.140137,70.435135 1823.600708,73.245018 
	C1824.601807,63.514568 1823.285034,62.325939 1815.061890,64.964493 
	C1813.041382,65.612823 1811.030029,66.290375 1808.990967,66.161453 
M1835.000366,56.510281 
	C1835.000366,52.400940 1835.000366,48.291603 1835.000366,44.283432 
	C1832.031006,44.283432 1829.624268,44.283432 1827.278320,44.283432 
	C1827.278320,64.979416 1827.278320,85.391006 1827.278320,105.716110 
	C1829.972778,105.716110 1832.377319,105.716110 1835.000366,105.716110 
	C1835.000366,89.458359 1835.000366,73.483192 1835.000366,56.510281 
M1286.999512,135.446213 
	C1286.332886,129.618988 1285.591797,123.799110 1285.016113,117.962921 
	C1283.957520,107.229782 1283.132324,96.470673 1281.843750,85.766434 
	C1281.656372,84.209549 1279.448120,82.895897 1278.175049,81.469688 
	C1277.000977,102.141953 1276.960693,121.941986 1277.041504,141.741516 
	C1277.054565,144.950043 1280.598877,146.776398 1283.857422,145.675323 
	C1289.066528,143.915131 1286.678589,139.684906 1286.999512,135.446213 
M1321.578857,95.999580 
	C1324.044678,96.147003 1326.526245,96.533234 1328.971436,96.370972 
	C1331.173462,96.224854 1333.335571,95.477463 1335.515259,94.995255 
	C1335.112183,93.246864 1335.261963,90.856377 1334.166016,89.912392 
	C1332.792847,88.729759 1330.368408,88.229652 1328.448975,88.338440 
	C1325.108521,88.527779 1321.826782,89.578293 1318.485352,89.961899 
	C1313.019409,90.589386 1307.525269,90.971573 1300.600098,91.585068 
	C1307.394653,96.883942 1314.645264,93.734207 1321.578857,95.999580 
M1323.033325,46.732800 
	C1324.118774,43.916031 1325.430054,41.159306 1326.201538,38.258995 
	C1326.632690,36.637665 1326.630127,34.552200 1325.927368,33.113487 
	C1325.528076,32.296280 1322.652954,31.633846 1322.063110,32.175682 
	C1320.670044,33.455578 1319.588501,35.394489 1319.094238,37.256241 
	C1318.396484,39.884647 1318.302856,42.679855 1318.022827,45.411114 
	C1317.632080,49.223076 1317.307861,53.041862 1316.875977,57.715019 
	C1322.107788,55.416267 1321.206543,50.688530 1323.033325,46.732800 
M1320.902466,97.972015 
	C1319.006836,97.594437 1317.111206,97.216858 1314.791870,96.754883 
	C1315.050781,98.386635 1314.955200,99.449554 1315.283569,99.602577 
	C1320.014038,101.806747 1324.751709,104.020554 1329.627319,105.862427 
	C1330.390747,106.150841 1332.838623,104.530891 1332.788452,103.938957 
	C1332.644897,102.245377 1331.975464,99.559998 1330.866577,99.187233 
	C1328.031982,98.234406 1324.846802,98.324844 1320.902466,97.972015 
M1330.621948,80.998589 
	C1327.769043,82.006859 1324.862061,82.890800 1322.095581,84.097397 
	C1321.239990,84.470612 1320.767334,85.721756 1320.119385,86.570976 
	C1321.098022,87.031639 1322.091675,87.911201 1323.052368,87.876495 
	C1326.275146,87.760086 1329.524536,87.520073 1332.686401,86.919899 
	C1334.441895,86.586662 1336.346680,85.748688 1337.576904,84.526695 
	C1338.125366,83.981949 1337.431763,80.897987 1336.859741,80.756744 
	C1335.176880,80.341209 1333.272583,80.821808 1330.621948,80.998589 
z"/>
<path fill="#FFFFFF" opacity="1.000000" stroke="none" 
	d="
M1276.555908,1.000009 
	C1278.838135,4.654680 1280.625000,8.336220 1282.524292,11.958829 
	C1287.708252,21.846924 1292.932007,31.714260 1298.165283,41.576332 
	C1298.645996,42.482082 1299.308594,43.291321 1299.886719,44.145367 
	C1300.333008,43.982944 1300.779175,43.820522 1301.225464,43.658104 
	C1300.237305,40.338177 1299.411743,36.958942 1298.225830,33.711185 
	C1296.038574,27.720633 1293.583984,21.827888 1291.376709,15.844250 
	C1290.938354,14.655591 1290.676270,13.076238 1291.099121,11.969829 
	C1291.778198,10.192415 1293.096069,8.659086 1294.144043,7.022603 
	C1295.776245,8.087565 1298.190308,8.794910 1298.875488,10.293021 
	C1300.243774,13.285201 1300.741455,16.693846 1301.461548,19.960732 
	C1303.707031,30.147484 1305.888306,40.348366 1308.421997,50.631836 
	C1308.749512,50.719917 1308.677734,50.637245 1308.677734,50.637249 
	C1307.994995,52.051472 1307.312256,53.465691 1306.629517,54.879910 
	C1306.301880,54.708523 1305.974365,54.537140 1305.646851,54.365753 
	C1306.462280,56.995544 1307.277588,59.625336 1308.093018,62.255127 
	C1307.437378,62.556599 1306.781738,62.858070 1306.126099,63.159542 
	C1303.971436,60.155296 1301.816650,57.151054 1299.343750,54.052704 
	C1299.025391,53.958603 1299.089233,54.021801 1298.978760,53.681427 
	C1296.915039,50.366768 1294.961792,47.392483 1292.930664,44.353813 
	C1292.853027,44.289429 1292.579712,43.992897 1292.311157,43.732117 
	C1285.262329,33.715431 1278.506958,23.942055 1271.689941,14.211963 
	C1268.858276,10.170280 1265.876465,6.224638 1269.000000,1.000000 
	C1271.370605,1.000000 1273.741089,1.000000 1276.555908,1.000009 
z"/>
<path fill="#FFFFFF" opacity="1.000000" stroke="none" 
	d="
M1292.579712,43.992897 
	C1292.579712,43.992897 1292.853027,44.289429 1292.531494,44.658283 
	C1292.506592,46.222111 1292.803345,47.417084 1293.106812,48.639866 
	C1291.559570,48.930126 1290.472168,49.134106 1288.155762,49.568649 
	C1292.647217,51.397987 1295.868286,52.709885 1299.089233,54.021790 
	C1299.089233,54.021801 1299.025391,53.958603 1299.013062,53.915501 
	C1298.962891,59.541485 1298.692017,59.685352 1293.327026,57.041687 
	C1292.481079,56.624760 1291.569214,56.341549 1290.342041,55.991943 
	C1289.996216,55.987381 1290.069580,56.056679 1290.069580,56.056667 
	C1279.795654,50.959801 1269.521851,45.862949 1259.310547,40.154861 
	C1262.848022,40.770264 1266.352295,41.920788 1269.788696,43.247311 
	C1272.601440,44.333092 1275.333374,45.628628 1278.101074,46.831169 
	C1278.300171,46.379257 1278.499146,45.927345 1278.698120,45.475433 
	C1277.168335,44.615452 1275.516846,43.916019 1274.130737,42.866386 
	C1269.383667,39.271763 1264.729736,35.554173 1260.040405,31.883438 
	C1267.426025,36.256134 1274.811646,40.628864 1282.676147,45.347565 
	C1284.079224,46.156487 1285.003296,46.619438 1286.024170,47.362801 
	C1286.660522,47.683487 1287.200317,47.723763 1287.740112,47.764030 
	C1287.425049,47.324402 1287.109985,46.884777 1286.595093,46.195065 
	C1285.518066,45.431767 1284.640991,44.918560 1283.763794,44.405361 
	C1276.089722,38.255486 1268.296875,32.245995 1260.787842,25.900843 
	C1256.568604,22.335697 1252.825195,18.208557 1248.850220,14.352355 
	C1248.031250,13.557748 1247.234131,12.665219 1246.257935,12.120852 
	C1242.343872,9.938091 1241.752441,7.147471 1244.627075,3.852798 
	C1245.278931,3.105731 1245.928833,2.357073 1246.289795,1.304571 
	C1247.388916,1.000000 1248.777832,1.000000 1250.296143,1.286958 
	C1252.710571,3.643010 1255.168457,5.552554 1257.251831,7.808078 
	C1267.866333,19.299610 1278.357544,30.905054 1288.987305,42.382221 
	C1289.807861,43.268192 1291.364990,43.472023 1292.579712,43.992897 
M1282.568970,48.296398 
	C1282.296021,48.010479 1282.022949,47.724564 1281.749878,47.438637 
	C1281.631470,47.551842 1281.404053,47.757206 1281.410645,47.764992 
	C1281.665405,48.066586 1281.941650,48.350121 1282.568970,48.296398 
z"/>
<path fill="#FFFFFF" opacity="1.000000" stroke="none" 
	d="
M1272.009399,90.972412 
	C1275.283203,90.820641 1276.443481,92.236748 1275.907837,95.553162 
	C1274.496704,104.291573 1273.242432,113.056313 1272.014038,121.822968 
	C1270.939209,129.494064 1270.024048,137.187668 1268.922852,144.854721 
	C1268.797363,145.728973 1267.926025,146.496094 1267.700195,147.656433 
	C1265.629395,148.000000 1263.258911,148.000000 1260.444092,148.000000 
	C1257.516724,142.952545 1259.639160,138.227356 1260.991577,133.434601 
	C1264.931152,119.473206 1268.842896,105.503960 1272.430908,91.212662 
	C1272.096313,90.887550 1272.009399,90.972412 1272.009399,90.972412 
z"/>
<path fill="#000000" opacity="1.000000" stroke="none" 
	d="
M1292.311157,43.732117 
	C1291.364990,43.472023 1289.807861,43.268192 1288.987305,42.382221 
	C1278.357544,30.905054 1267.866333,19.299610 1257.251831,7.808078 
	C1255.168457,5.552554 1252.710571,3.643010 1250.712646,1.286958 
	C1256.687988,1.000000 1262.376099,1.000000 1268.531982,1.000000 
	C1265.876465,6.224638 1268.858276,10.170280 1271.689941,14.211963 
	C1278.506958,23.942055 1285.262329,33.715431 1292.311157,43.732117 
z"/>
<path fill="#009999" opacity="1.000000" stroke="none" 
	d="
M377.976013,111.000000 
	C377.976013,119.469200 377.976013,127.438408 377.976013,135.703156 
	C368.616119,135.703156 359.563049,135.703156 350.254822,135.703156 
	C350.254822,92.563622 350.254822,49.629055 350.254822,6.370478 
	C351.269348,6.253750 352.367157,6.019555 353.465393,6.017489 
	C366.964661,5.992088 380.465179,6.093400 393.962555,5.931214 
	C397.097443,5.893546 398.737579,6.887912 399.907288,9.821833 
	C409.421906,33.687096 419.069458,57.499344 428.684601,81.324486 
	C428.866669,81.775650 429.146759,82.187263 429.505890,82.846359 
	C434.377075,71.404869 439.205902,60.171741 443.945892,48.901253 
	C449.535156,35.611359 454.969604,22.255302 460.709839,9.031520 
	C461.304596,7.661333 463.504547,6.157728 464.984375,6.131938 
	C477.979797,5.905462 490.980927,6.031341 503.980042,5.974082 
	C506.549774,5.962762 508.034698,6.554502 508.027374,9.571370 
	C507.926056,51.399052 507.897247,93.226906 507.838318,135.054703 
	C507.838135,135.183197 507.656860,135.311432 507.348419,135.720825 
	C495.303619,135.720825 483.042877,135.720825 470.342499,135.720825 
	C470.342499,109.810242 470.342499,83.894913 470.342499,57.979584 
	C470.067505,57.922211 469.792511,57.864838 469.517487,57.807468 
	C465.027313,68.285713 460.538910,78.764717 456.046600,89.242043 
	C449.460754,104.602127 442.930786,119.986931 436.175690,135.272247 
	C435.623413,136.521896 433.565582,137.775787 432.143646,137.852921 
	C426.660156,138.150330 421.140167,137.764862 415.655212,138.048431 
	C412.552429,138.208832 411.194702,136.844391 410.138000,134.257706 
	C400.290802,110.151955 390.385864,86.069756 380.474884,61.990105 
	C380.002350,60.841972 379.316467,59.781639 377.975983,58.839020 
	C377.975983,76.059349 377.975983,93.279671 377.976013,111.000000 
M375.000000,122.464363 
	C375.000000,125.902313 375.000000,129.340256 375.000000,132.778198 
	C375.219360,132.763763 375.438721,132.749329 375.658081,132.734879 
	C375.658081,106.245506 375.658081,79.756142 375.658081,53.266766 
	C375.438721,53.267342 375.219360,53.267918 375.000000,53.268490 
	C375.000000,76.004318 375.000000,98.740150 375.000000,122.464363 
z"/>
<path fill="#009999" opacity="1.000000" stroke="none" 
	d="
M669.959229,136.001663 
	C663.503601,136.001663 657.542908,136.001663 651.295410,136.001663 
	C651.295410,92.666695 651.295410,49.760975 651.295410,6.425910 
	C652.462585,6.291203 653.718262,6.023836 654.974731,6.020338 
	C666.634766,5.987875 678.296448,6.104156 689.954041,5.931459 
	C693.050842,5.885583 694.555908,6.985367 696.019531,9.698915 
	C703.717407,23.970482 711.753174,38.059196 719.545410,52.280594 
	C725.188599,62.579845 730.635071,72.986877 736.936646,83.156708 
	C736.936646,57.647438 736.936646,32.138172 736.936646,6.016715 
	C745.597473,6.016715 753.864868,5.910093 762.121765,6.157817 
	C763.103455,6.187269 764.084167,8.108385 764.941101,9.246212 
	C765.181335,9.565191 764.978333,10.218042 764.978333,10.717762 
	C764.977478,51.361652 764.977478,92.005539 764.970398,132.649429 
	C764.970215,133.609222 764.890930,134.569031 764.827942,135.994888 
	C751.094910,135.994888 737.650696,136.038986 724.208313,135.901474 
	C723.252197,135.891708 721.950439,134.749710 721.415283,133.794693 
	C714.358398,121.200333 707.445679,108.525276 700.424988,95.910439 
	C693.523865,83.510582 686.540771,71.156334 679.116943,57.933018 
	C679.116943,84.322784 679.116943,109.824539 679.116943,136.001663 
	C675.979980,136.001663 673.217102,136.001663 669.959229,136.001663 
z"/>
<path fill="#009999" opacity="1.000000" stroke="none" 
	d="
M611.998657,6.000918 
	C616.828552,6.000907 621.172302,6.212729 625.485352,5.938972 
	C629.484497,5.685136 631.317688,6.834968 631.053833,11.196430 
	C630.732727,16.506708 630.786926,21.860273 631.041443,27.177748 
	C631.220398,30.914791 629.852966,32.104019 626.164062,32.067905 
	C610.676147,31.916288 595.185913,32.004131 579.696533,32.004288 
	C578.044006,32.004307 576.391541,32.004292 574.679077,32.004292 
	C574.679077,40.676807 574.679077,49.062721 574.679077,58.000221 
	C580.690979,58.000221 586.949097,58.000122 593.207214,58.000248 
	C601.867920,58.000420 610.532776,58.155979 619.187500,57.929638 
	C622.998108,57.829979 624.203491,59.353031 624.083618,62.907906 
	C623.926575,67.566063 623.862976,72.242973 624.102844,76.894096 
	C624.304138,80.798485 622.889893,82.139481 618.925476,82.078560 
	C605.770935,81.876419 592.611389,82.002426 579.453735,82.002571 
	C577.811218,82.002594 576.168701,82.002571 574.716003,82.002571 
	C574.716003,91.131531 574.716003,99.870430 574.716003,109.005989 
	C590.656128,109.005989 606.788635,108.975258 622.921021,109.017235 
	C632.990295,109.043434 631.959229,107.757706 631.983337,118.066368 
	C631.996887,123.858971 631.985779,129.651627 631.985779,135.718613 
	C599.973999,135.718613 568.393921,135.718613 536.406494,135.718613 
	C536.406494,92.777786 536.406494,49.750969 536.406494,6.000918 
	C561.354126,6.000918 586.426636,6.000918 611.998657,6.000918 
z"/>
<path fill="#009999" opacity="1.000000" stroke="none" 
	d="
M265.000000,6.001392 
	C285.163574,6.001503 304.828705,6.135525 324.489502,5.901472 
	C329.036987,5.847336 330.307953,7.428599 330.069916,11.679596 
	C329.781586,16.829281 329.864929,22.012375 330.049408,27.171646 
	C330.179657,30.814249 328.855103,32.116352 325.115051,32.074726 
	C309.786011,31.904121 294.454010,32.003685 279.123077,32.003811 
	C277.312439,32.003826 275.501801,32.003811 273.348022,32.003811 
	C273.348022,40.691872 273.348022,49.073051 273.348022,57.896355 
	C289.379944,57.896355 305.305939,57.896355 321.611816,57.896355 
	C321.611816,66.029030 321.611816,73.729538 321.611816,81.879700 
	C305.532715,81.879700 289.607208,81.879700 273.339600,81.879700 
	C273.339600,91.033653 273.339600,99.747505 273.339600,109.006462 
	C280.410400,109.006462 287.358917,109.006500 294.307434,109.006462 
	C304.805786,109.006401 315.306396,109.131454 325.801239,108.939720 
	C329.577393,108.870728 331.244629,109.831589 331.072937,113.964920 
	C330.776947,121.091034 330.990967,128.238327 330.990967,135.687378 
	C298.970215,135.687378 267.254944,135.687378 235.268692,135.687378 
	C235.268692,92.606483 235.268692,49.681843 235.268692,6.001392 
	C244.991119,6.001392 254.745560,6.001392 265.000000,6.001392 
z"/>
<path fill="#009999" opacity="1.000000" stroke="none" 
	d="
M885.034424,113.820251 
	C874.262268,130.440964 858.518311,136.630447 839.771423,138.167694 
	C824.153809,139.448380 808.959229,137.354431 793.742920,134.808151 
	C791.960205,134.509827 789.315002,131.923843 789.216003,130.269897 
	C788.740417,122.324768 789.002319,114.335518 789.002319,105.998970 
	C797.314026,107.916489 805.132690,110.489662 813.136902,111.363350 
	C822.225159,112.355339 831.499878,112.245087 840.653442,111.796547 
	C845.826111,111.543083 850.083496,106.775848 849.872803,102.365150 
	C849.641907,97.531929 846.576965,94.787605 842.016602,92.828819 
	C829.714172,87.544571 817.022400,82.759003 805.610107,75.902977 
	C787.292542,64.898537 782.902649,46.687725 790.349915,27.706493 
	C792.984924,20.990559 798.586060,16.423397 804.748901,12.626799 
	C820.734253,2.779167 838.175720,2.852962 855.898315,4.953239 
	C862.556458,5.742280 869.189758,6.837809 875.765320,8.141830 
	C877.007324,8.388133 878.804199,10.247041 878.846741,11.416395 
	C879.124634,19.046921 878.989624,26.692503 878.989624,35.093201 
	C877.043152,34.667805 875.582520,34.313549 874.108032,34.031994 
	C863.533936,32.012863 853.022217,29.392769 842.353088,28.261000 
	C837.072266,27.700806 831.214783,29.023012 827.006958,33.500172 
	C823.858765,36.849911 824.087524,41.538116 828.113220,43.912689 
	C833.148743,46.882904 838.529602,49.261093 843.692871,52.022865 
	C853.065979,57.036396 862.720154,61.624825 871.657471,67.329964 
	C886.585449,76.859245 893.820374,94.706123 885.034424,113.820251 
z"/>
<path fill="#009999" opacity="1.000000" stroke="none" 
	d="
M67.387070,75.738556 
	C62.490288,70.237587 56.442608,65.609352 53.600178,59.491844 
	C45.558033,42.183434 50.195957,22.715755 68.227051,12.274951 
	C78.176857,6.513573 88.760506,4.212265 100.139687,3.911532 
	C113.273560,3.564425 126.107254,5.309447 138.837692,8.133774 
	C140.079468,8.409271 141.819946,10.296724 141.862854,11.488721 
	C142.137863,19.128046 142.003174,26.782122 142.003174,35.135014 
	C139.948547,34.700443 138.306458,34.354328 136.664917,34.005726 
	C127.240883,32.004452 117.891853,29.301908 108.362831,28.283779 
	C103.269180,27.739550 97.808441,29.881529 92.622391,31.230366 
	C89.470055,32.050255 87.375710,34.694496 88.201782,37.932392 
	C88.857437,40.502327 90.356270,43.694633 92.460945,44.902260 
	C99.092262,48.707191 106.341782,51.420643 113.062035,55.087963 
	C122.671265,60.331833 133.033813,64.237923 140.999496,72.377167 
	C157.410812,89.146042 154.378326,113.480049 135.837067,127.129539 
	C125.715195,134.580963 114.326317,136.825653 102.242233,138.121979 
	C86.635818,139.796143 71.472015,137.139374 56.222172,134.867676 
	C54.947086,134.677734 53.738243,134.043137 52.243668,133.527084 
	C52.243668,124.518105 52.243668,115.413071 52.243668,106.161758 
	C60.238117,107.941551 67.946915,110.388046 75.826340,111.221603 
	C85.060860,112.198509 94.459694,112.167542 103.756088,111.795341 
	C108.775848,111.594360 112.633331,107.078323 112.802887,102.220917 
	C112.949448,98.022278 110.111588,95.427849 106.432030,93.794785 
	C95.508377,88.946671 84.567116,84.137863 73.665970,79.239738 
	C71.598953,78.310974 69.684425,77.042877 67.387070,75.738556 
z"/>
<path fill="#009999" opacity="1.000000" stroke="none" 
	d="
M167.001404,14.061746 
	C167.001221,11.265644 167.001221,8.959460 167.001221,6.001419 
	C177.090210,6.001419 186.847305,5.942357 196.603378,6.016506 
	C208.551392,6.107315 206.975464,4.385296 206.993256,16.236343 
	C207.049988,54.029236 207.013306,91.822273 207.012726,129.615250 
	C207.012695,131.563110 207.012711,133.510956 207.012711,135.725708 
	C193.534637,135.725708 180.620972,135.725708 167.001587,135.725708 
	C167.001587,95.314529 167.001587,54.933094 167.001404,14.061746 
z"/>
<path fill="#FFFFFF" opacity="1.000000" stroke="none" 
	d="
M1080.829834,113.525085 
	C1082.034180,115.610970 1083.299316,117.232735 1084.076294,119.061867 
	C1084.647827,120.407806 1085.007935,122.145828 1084.632080,123.474380 
	C1084.419189,124.227097 1082.560791,124.829147 1081.393677,124.932182 
	C1078.914307,125.151047 1076.308105,124.565483 1073.922119,125.084076 
	C1067.792358,126.416367 1064.279907,123.128052 1061.288696,118.635269 
	C1054.522583,108.472572 1047.773560,98.298332 1041.062378,88.099335 
	C1040.744751,87.616600 1040.859497,86.849411 1040.654663,85.348183 
	C1035.499146,93.460533 1030.722046,100.915131 1026.011475,108.411598 
	C1022.838196,113.461647 1019.904114,118.671074 1016.518738,123.571365 
	C1015.817505,124.586319 1013.609131,124.874786 1012.072449,124.937668 
	C1007.748718,125.114563 1003.411987,125.059059 999.082397,124.982399 
	C994.869751,124.907814 994.465393,124.263397 996.735718,120.636162 
	C1000.888916,114.000595 1005.186157,107.454155 1009.483826,100.910248 
	C1015.395020,91.909286 1021.564880,83.066307 1027.086426,73.834175 
	C1027.910278,72.456749 1026.284302,68.995781 1024.966797,67.059959 
	C1018.190613,57.103222 1011.138489,47.334412 1004.198853,37.488560 
	C1002.665894,35.313530 1001.019958,33.187786 999.772034,30.854326 
	C999.087830,29.575050 999.126160,27.909319 998.758423,26.001232 
	C1005.079163,26.001232 1011.003845,25.312834 1016.634888,26.299627 
	C1019.338989,26.773499 1021.998596,30.064995 1023.787048,32.688179 
	C1028.027222,38.907444 1031.724609,45.496082 1035.663574,51.921810 
	C1037.021851,54.137615 1038.445923,56.313023 1040.130249,58.963490 
	C1042.562256,55.658035 1045.357910,52.221203 1047.752808,48.524818 
	C1052.141113,41.751949 1056.251465,34.799545 1060.593384,27.995749 
	C1061.160034,27.107841 1062.395264,26.113354 1063.344482,26.088894 
	C1069.821289,25.922005 1076.304321,26.001474 1083.604980,26.001474 
	C1081.335205,29.655722 1079.471802,32.757816 1077.509277,35.795784 
	C1071.935059,44.424492 1066.395020,53.076996 1060.677368,61.610035 
	C1058.917358,64.236519 1056.660278,66.535942 1054.574097,68.935905 
	C1052.211914,71.653511 1053.187866,73.496635 1055.258667,76.195839 
	C1059.586304,81.836754 1063.025757,88.149048 1067.049438,94.035660 
	C1071.464722,100.495041 1076.126831,106.785713 1080.829834,113.525085 
z"/>
<path fill="#FFFFFF" opacity="1.000000" stroke="none" 
	d="
M1488.760132,85.999725 
	C1491.135498,85.987930 1492.514038,85.694641 1493.401611,88.572670 
	C1495.145508,94.227715 1501.497437,96.670204 1506.340332,94.003090 
	C1507.907715,93.139862 1509.741577,91.058914 1509.756470,89.518539 
	C1509.774170,87.686859 1508.403320,85.150276 1506.844604,84.153107 
	C1504.359985,82.563667 1501.109009,82.234001 1498.387329,80.940056 
	C1493.513550,78.622978 1488.618530,76.261375 1484.061646,73.395027 
	C1480.307007,71.033340 1479.406860,62.560173 1480.718750,56.632713 
	C1482.409302,48.994007 1488.046509,45.901062 1494.425415,44.131248 
	C1504.588867,41.311386 1513.463867,44.078964 1519.947754,52.626797 
	C1521.812744,55.085537 1522.742188,58.281471 1523.910767,61.215031 
	C1524.120850,61.742260 1523.483521,63.218830 1523.098999,63.272896 
	C1520.358765,63.658154 1517.585571,63.893467 1514.817017,63.968853 
	C1512.125732,64.042137 1509.730469,64.580498 1508.502563,60.466805 
	C1507.484985,57.057625 1503.486694,55.124256 1499.529541,56.140812 
	C1497.827637,56.578037 1495.306885,58.436722 1495.268799,59.712570 
	C1495.203979,61.882710 1496.224731,65.305031 1497.819824,66.080009 
	C1502.951904,68.573380 1508.827271,69.553970 1513.920044,72.107277 
	C1525.036499,77.680519 1527.990479,86.856903 1522.684326,97.666428 
	C1520.880615,101.341087 1515.962769,104.492935 1511.809204,105.816315 
	C1500.187012,109.519234 1483.839722,106.794769 1479.540527,92.016586 
	C1479.045532,90.314545 1479.042114,88.469429 1478.720703,85.999718 
	C1482.137207,85.999718 1485.219360,85.999718 1488.760132,85.999725 
z"/>
<path fill="#FFFFFF" opacity="1.000000" stroke="none" 
	d="
M1444.020996,105.999748 
	C1441.890137,105.999748 1440.241089,105.999748 1438.298584,105.999748 
	C1438.298584,85.410431 1438.298584,65.008888 1438.298584,44.303543 
	C1450.585693,44.303543 1462.988770,44.303543 1475.696777,44.303543 
	C1475.696777,48.251816 1475.696777,52.324196 1475.696777,56.800446 
	C1467.748291,56.800446 1459.670166,56.800446 1451.298584,56.800446 
	C1451.298584,60.923737 1451.298584,64.664246 1451.298584,68.808311 
	C1457.590576,68.808311 1464.001831,68.808311 1470.704468,68.808311 
	C1470.704468,73.263535 1470.704468,77.336548 1470.704468,81.814232 
	C1464.396729,81.814232 1457.986450,81.814232 1451.181152,81.814232 
	C1451.181152,89.939316 1451.181152,97.683357 1451.181152,105.999748 
	C1448.696411,105.999748 1446.599609,105.999748 1444.020996,105.999748 
z"/>
<path fill="#FFFFFF" opacity="1.000000" stroke="none" 
	d="
M1603.049072,64.217751 
	C1603.456787,65.598557 1603.798340,66.576614 1604.162598,67.619492 
	C1598.356567,68.695877 1594.450195,68.323257 1591.599365,62.120022 
	C1590.067993,58.787910 1584.741455,55.987579 1580.702271,55.237904 
	C1566.050415,52.518517 1557.409058,59.118618 1554.441284,73.329498 
	C1552.884521,80.784088 1555.120239,88.066795 1560.934937,93.258957 
	C1566.407227,98.145500 1572.824829,100.102974 1580.579346,98.239075 
	C1588.093628,96.432892 1592.280396,91.807198 1595.458008,85.159065 
	C1598.021606,85.159065 1600.805908,85.159065 1604.189331,85.159065 
	C1602.458008,92.678482 1599.449219,99.049309 1592.604248,102.725792 
	C1574.692871,112.346184 1552.791748,106.798058 1545.675903,85.148354 
	C1540.432739,69.195885 1551.133423,50.839886 1567.356445,47.044758 
	C1581.854248,43.653236 1596.308716,48.198517 1603.049072,64.217751 
z"/>
<path fill="#FFFFFF" opacity="1.000000" stroke="none" 
	d="
M1745.348633,98.148094 
	C1739.060059,107.814125 1727.340942,109.710945 1715.123657,102.866714 
	C1715.123657,109.971741 1715.123657,116.808044 1715.123657,123.804855 
	C1711.857910,123.804855 1709.125977,123.804855 1706.197388,123.804855 
	C1706.197388,103.900513 1706.197388,84.190598 1706.197388,64.240341 
	C1709.052734,64.240341 1711.806519,64.240341 1714.819214,64.240341 
	C1714.921875,65.308220 1715.028320,66.413826 1715.163940,67.823730 
	C1717.101562,66.868256 1718.883423,65.800117 1720.796265,65.079567 
	C1728.468750,62.189445 1741.157471,64.222183 1745.872314,73.387367 
	C1750.181274,81.763741 1749.475952,89.760345 1745.348633,98.148094 
M1738.095337,93.411110 
	C1738.682373,89.128098 1740.119873,84.747086 1739.640381,80.586967 
	C1739.045654,75.426369 1731.614990,70.520653 1726.952881,71.026207 
	C1720.599365,71.715187 1715.288818,76.655228 1714.019043,83.057541 
	C1712.888916,88.755524 1716.407959,95.741997 1721.639282,98.185867 
	C1726.921753,100.653656 1733.527710,99.044426 1738.095337,93.411110 
z"/>
<path fill="#FFFFFF" opacity="1.000000" stroke="none" 
	d="
M1686.575684,105.997650 
	C1678.374146,108.612877 1671.560059,106.794212 1665.127441,100.847977 
	C1665.127441,108.786446 1665.127441,116.133392 1665.127441,123.735649 
	C1662.344360,123.735649 1659.942139,123.735649 1657.266357,123.735649 
	C1657.266357,104.064980 1657.266357,84.353287 1657.266357,64.320450 
	C1659.701904,64.320450 1662.242920,64.320450 1665.098511,64.320450 
	C1665.098511,66.117500 1665.098511,67.843422 1665.098511,69.816528 
	C1673.440063,61.977627 1684.849609,61.709038 1692.218872,68.260689 
	C1695.671509,71.330116 1698.283447,76.153748 1699.591187,80.670296 
	C1703.037354,92.573494 1696.157959,100.002678 1686.575684,105.997650 
M1673.135864,72.334190 
	C1665.057129,76.070740 1664.480225,81.541832 1665.030273,88.153099 
	C1665.365234,92.177773 1670.352417,98.071236 1673.885864,98.938889 
	C1679.939575,100.425438 1685.864502,98.357216 1688.842041,93.634895 
	C1692.407227,87.980835 1691.987183,81.920372 1688.712402,76.701469 
	C1685.439331,71.485031 1679.834106,70.413834 1673.135864,72.334190 
z"/>
<path fill="#FFFFFF" opacity="1.000000" stroke="none" 
	d="
M1275.135742,72.854591 
	C1270.870605,75.396400 1266.605347,77.938217 1262.669189,80.752129 
	C1262.998047,81.024216 1263.099731,80.937935 1263.099731,80.937950 
	C1258.327026,83.529976 1253.348999,85.808350 1248.821167,88.774216 
	C1236.408203,96.905319 1224.140747,105.261650 1211.918213,113.677803 
	C1209.021606,115.672295 1205.898804,116.893364 1203.133789,114.801834 
	C1201.429688,113.512939 1200.289185,110.562920 1200.209595,108.312202 
	C1200.136841,106.253998 1201.254150,103.041245 1202.834106,102.207306 
	C1220.877930,92.683884 1239.110596,83.518143 1257.295044,74.261475 
	C1257.717163,74.046654 1258.166138,73.884827 1259.702637,73.228088 
	C1257.455078,72.667923 1256.131958,72.338181 1254.405273,71.670227 
	C1253.008667,70.716812 1251.931763,69.472527 1251.037354,69.592255 
	C1246.487183,70.201408 1241.974487,71.113426 1237.467285,72.013466 
	C1229.484131,73.607643 1221.545898,75.450104 1213.529419,76.847900 
	C1206.768921,78.026711 1199.924072,78.722221 1193.116577,79.631668 
	C1196.689087,78.421906 1200.179688,76.798241 1203.847900,76.071579 
	C1223.332886,72.211617 1242.941772,68.934097 1262.323853,64.627464 
	C1267.558960,63.464268 1266.646118,66.503441 1267.395630,69.191498 
	C1271.254395,67.352661 1274.801392,65.468338 1278.514648,64.006500 
	C1279.688477,63.544407 1281.306885,64.211830 1282.721802,64.362320 
	C1282.135742,65.416603 1281.773804,66.728088 1280.918579,67.473824 
	C1278.869751,69.260437 1276.588867,70.781052 1274.727783,72.675087 
	C1275.053833,72.941154 1275.135742,72.854599 1275.135742,72.854591 
z"/>
<path fill="#FFFFFF" opacity="1.000000" stroke="none" 
	d="
M1851.017700,89.545998 
	C1853.387207,96.669144 1857.783447,100.282547 1865.172974,98.949020 
	C1867.003906,98.618629 1869.385986,98.164879 1870.368286,96.886742 
	C1873.770874,92.459763 1878.094971,92.481560 1882.824951,93.308197 
	C1880.182129,103.461258 1870.649658,108.246780 1858.867432,106.978798 
	C1849.227051,105.941315 1839.588501,93.637459 1841.044434,84.152245 
	C1843.430908,68.604446 1852.960815,62.118454 1868.077026,64.174362 
	C1875.917480,65.240707 1886.056396,74.442039 1883.598633,87.999222 
	C1874.227905,87.999222 1864.774048,87.952187 1855.321655,88.049324 
	C1853.883789,88.064102 1852.452881,88.747437 1851.017700,89.545998 
M1867.149414,72.012856 
	C1859.953247,69.247643 1855.167603,71.827217 1850.677124,80.763321 
	C1858.319702,80.763321 1866.049561,80.763321 1873.779297,80.763321 
	C1874.086426,80.412544 1874.393555,80.061775 1874.700562,79.710999 
	C1872.426758,77.256836 1870.152954,74.802673 1867.149414,72.012856 
z"/>
<path fill="#FFFFFF" opacity="1.000000" stroke="none" 
	d="
M1771.383057,98.999817 
	C1776.754761,99.323051 1780.860474,98.603661 1784.353027,94.077896 
	C1785.726562,92.297928 1790.363770,93.036446 1793.725830,92.600754 
	C1789.214355,108.466377 1770.247559,110.710022 1760.208130,102.680969 
	C1751.267578,95.530640 1750.436890,85.601891 1753.426880,76.146530 
	C1755.681396,69.016602 1764.769409,63.998989 1774.207397,64.000069 
	C1783.537720,64.001137 1791.095093,69.470009 1793.622559,78.142593 
	C1794.208618,80.153557 1794.650635,82.222595 1794.959106,84.294678 
	C1795.457764,87.644554 1793.385254,88.053375 1790.685913,88.030800 
	C1781.024902,87.950027 1771.362915,87.999161 1761.454956,87.999161 
	C1762.549194,93.608528 1764.908447,97.862732 1771.383057,98.999817 
M1762.842529,77.719040 
	C1762.530029,78.689278 1762.217407,79.659508 1761.851929,80.794029 
	C1769.765137,80.794029 1777.145996,80.794029 1784.562134,80.794029 
	C1783.519775,75.296852 1780.433350,71.785110 1775.098511,71.089531 
	C1770.054810,70.431923 1765.829346,72.269676 1762.842529,77.719040 
z"/>
<path fill="#FFFFFF" opacity="1.000000" stroke="none" 
	d="
M1899.515015,105.816895 
	C1890.997070,103.991158 1889.036255,96.923607 1887.474854,90.652100 
	C1885.437378,82.468544 1887.032104,73.839096 1893.627563,68.302849 
	C1899.961548,62.986012 1910.580322,61.354004 1918.917114,67.403008 
	C1919.286377,67.670891 1919.758789,67.796745 1920.678955,68.213051 
	C1920.874512,66.765274 1921.035522,65.573158 1921.223267,64.183052 
	C1923.637695,64.183052 1926.076538,64.183052 1928.758423,64.183052 
	C1928.758423,77.988144 1928.758423,91.713921 1928.758423,105.720444 
	C1926.368896,105.720444 1923.958252,105.720444 1921.201416,105.720444 
	C1921.079834,104.706757 1920.941772,103.555946 1920.773071,102.149071 
	C1914.228760,107.000443 1907.373535,108.301163 1899.515015,105.816895 
M1918.748779,94.026268 
	C1922.940918,89.616920 1922.846069,84.172836 1920.491333,79.485939 
	C1918.926392,76.371231 1915.351318,73.535843 1912.022705,72.184814 
	C1904.288330,69.045502 1897.011230,75.504631 1895.136230,82.699387 
	C1893.700684,88.206963 1898.086670,96.641106 1903.381470,98.846779 
	C1907.881470,100.721390 1915.505493,98.425606 1918.748779,94.026268 
z"/>
<path fill="#FFFFFF" opacity="1.000000" stroke="none" 
	d="
M1289.961670,55.950642 
	C1290.706909,60.337067 1288.270874,61.851212 1284.382080,61.994656 
	C1274.967041,62.341930 1265.547485,62.589752 1256.136353,63.018852 
	C1243.132935,63.611736 1230.135376,64.333260 1217.135376,65.001900 
	C1210.718506,65.331955 1204.304077,65.718224 1197.884644,65.983658 
	C1192.643677,66.200363 1192.318726,61.923672 1192.169800,58.583847 
	C1192.025024,55.337612 1193.271362,51.857765 1197.672241,52.032078 
	C1212.341797,52.613129 1227.006348,53.318119 1241.671875,53.998554 
	C1248.256592,54.304066 1254.836792,54.714130 1261.422729,54.987072 
	C1270.666870,55.370174 1279.914307,55.669678 1289.614990,56.030807 
	C1290.069580,56.056679 1289.996216,55.987381 1289.961670,55.950642 
z"/>
<path fill="#FFFFFF" opacity="1.000000" stroke="none" 
	d="
M1637.476440,65.166908 
	C1652.291748,71.291245 1653.820923,84.795876 1648.765259,95.992699 
	C1645.857056,102.433441 1639.612549,106.348946 1632.249756,106.935295 
	C1619.591553,107.943352 1612.829590,103.829308 1608.034790,92.338577 
	C1605.668823,86.668289 1605.892944,80.427231 1609.953735,74.656288 
	C1616.279663,65.666298 1624.493042,61.938461 1635.397949,64.150681 
	C1635.997803,64.272369 1636.532837,64.713928 1637.476440,65.166908 
M1640.076294,76.616585 
	C1637.001831,75.068283 1634.078003,72.852463 1630.820068,72.116760 
	C1624.849976,70.768654 1620.525024,73.345062 1617.608398,78.877197 
	C1614.795898,84.211983 1615.611450,90.795998 1619.622192,95.136452 
	C1623.369873,99.191933 1629.195312,100.385895 1634.374390,98.159950 
	C1643.122314,94.400070 1645.253174,87.271996 1640.076294,76.616585 
z"/>
<path fill="#FFFFFF" opacity="1.000000" stroke="none" 
	d="
M1425.999878,91.993668 
	C1425.999878,96.802986 1425.999878,101.113892 1425.999878,105.710693 
	C1421.723389,105.710693 1417.650269,105.710693 1413.285400,105.710693 
	C1413.285400,85.382980 1413.285400,64.981071 1413.285400,44.289478 
	C1417.279053,44.289478 1421.351562,44.289478 1425.999878,44.289478 
	C1425.999878,59.973877 1425.999878,75.734566 1425.999878,91.993668 
z"/>
<path fill="#FFFFFF" opacity="1.000000" stroke="none" 
	d="
M1955.114136,43.001816 
	C1957.579956,43.431965 1959.611816,43.863041 1961.817627,44.331036 
	C1961.817627,46.765274 1961.817627,49.207653 1961.817627,51.840298 
	C1960.316040,51.540836 1958.971313,51.113930 1957.605225,51.028667 
	C1952.648315,50.719284 1951.032837,52.239540 1951.002197,57.070145 
	C1950.988647,59.205757 1950.999756,61.341526 1950.999756,63.862576 
	C1954.639648,63.862576 1958.056885,63.862576 1961.730347,63.862576 
	C1961.730347,66.640327 1961.730347,69.044418 1961.730347,71.837677 
	C1958.384277,71.837677 1954.969604,71.837677 1951.182739,71.837677 
	C1951.182739,83.269318 1951.182739,94.331711 1951.182739,105.694862 
	C1948.086914,105.694862 1945.350586,105.694862 1942.231445,105.694862 
	C1942.231445,94.791771 1942.231445,83.726768 1942.231445,72.273048 
	C1939.145508,72.273048 1936.406128,72.273048 1933.333496,72.273048 
	C1933.333496,69.493622 1933.333496,67.085419 1933.333496,64.289658 
	C1935.817749,64.289658 1938.564941,64.289658 1941.858887,64.289658 
	C1942.164062,54.635479 1940.930664,44.029282 1955.114136,43.001816 
z"/>
<path fill="#FFFFFF" opacity="1.000000" stroke="none" 
	d="
M1264.411743,52.748863 
	C1245.660400,49.029106 1227.285278,45.583874 1208.939941,41.986500 
	C1203.551880,40.929966 1201.482300,37.404507 1203.084717,32.792255 
	C1204.265991,29.392254 1210.024048,26.885553 1213.504883,28.122358 
	C1232.229126,34.775391 1251.009888,41.273537 1269.651978,48.148525 
	C1272.029297,49.025272 1276.870850,48.235966 1275.770752,54.062130 
	C1272.149170,53.700073 1268.474243,53.332691 1264.411743,52.748863 
z"/>
<path fill="#FFFFFF" opacity="1.000000" stroke="none" 
	d="
M1272.136475,90.842003 
	C1266.785278,102.339348 1261.458374,113.912987 1255.974976,125.411926 
	C1253.305176,131.010590 1250.540161,136.583832 1247.439331,141.949661 
	C1245.550171,145.219101 1240.731445,145.946686 1238.094727,143.483597 
	C1235.197998,140.777573 1235.339233,137.356155 1237.371216,134.148605 
	C1242.527344,126.010063 1247.913086,118.015282 1252.986328,109.826378 
	C1260.427734,97.815247 1267.677124,85.685104 1275.072021,73.230133 
	C1275.135742,72.854599 1275.053833,72.941154 1275.011963,72.981743 
	C1278.891968,72.698944 1279.531860,74.279762 1277.858643,77.621460 
	C1275.783936,81.765175 1273.944458,86.026627 1272.006348,90.604797 
	C1272.009399,90.972412 1272.096313,90.887550 1272.136475,90.842003 
z"/>
<path fill="#FFFFFF" opacity="1.000000" stroke="none" 
	d="
M1262.955444,81.075546 
	C1264.511719,80.690735 1266.110596,80.254601 1269.118896,79.434052 
	C1267.534668,82.422653 1266.927979,84.297874 1265.744751,85.679291 
	C1258.790283,93.798454 1251.603760,101.719574 1244.687744,109.870651 
	C1238.769043,116.846367 1233.259521,124.173943 1227.221924,131.040680 
	C1225.810913,132.645493 1222.491699,134.276779 1220.946167,133.658081 
	C1218.648193,132.738129 1216.600464,130.060303 1215.568604,127.650108 
	C1215.136963,126.641991 1217.390991,124.223213 1218.758667,122.758347 
	C1221.849365,119.447891 1225.044189,116.217979 1228.385864,113.162262 
	C1234.134888,107.905212 1240.089844,102.873535 1245.843628,97.621635 
	C1251.602417,92.365189 1257.220825,86.954895 1263.000244,81.274994 
	C1263.099731,80.937935 1262.998047,81.024216 1262.955444,81.075546 
z"/>
<path fill="#FFFFFF" opacity="1.000000" stroke="none" 
	d="
M1379.000000,46.000145 
	C1379.000000,72.894730 1379.000000,99.289330 1379.000000,125.840668 
	C1376.949463,125.840668 1375.328491,125.840668 1373.350830,125.840668 
	C1373.350830,92.460304 1373.350830,58.988068 1373.350830,25.257599 
	C1375.005249,25.257599 1376.741455,25.257599 1379.000000,25.257599 
	C1379.000000,31.966084 1379.000000,38.733124 1379.000000,46.000145 
z"/>
<path fill="#FFFFFF" opacity="1.000000" stroke="none" 
	d="
M1259.900513,31.549305 
	C1264.729736,35.554173 1269.383667,39.271763 1274.130737,42.866386 
	C1275.516846,43.916019 1277.168335,44.615452 1278.698120,45.475433 
	C1278.499146,45.927345 1278.300171,46.379257 1278.101074,46.831169 
	C1275.333374,45.628628 1272.601440,44.333092 1269.788696,43.247311 
	C1266.352295,41.920788 1262.848022,40.770264 1259.162476,39.825661 
	C1247.301758,34.242584 1235.560547,28.546507 1224.081299,22.364140 
	C1221.889160,21.183540 1218.494873,18.975397 1220.435547,15.265000 
	C1222.372559,11.561369 1226.464966,10.491288 1230.299316,12.813643 
	C1240.202026,18.811644 1249.950562,25.064240 1259.900513,31.549305 
z"/>
<path fill="#FFFFFF" opacity="1.000000" stroke="none" 
	d="
M1809.002686,66.557976 
	C1811.030029,66.290375 1813.041382,65.612823 1815.061890,64.964493 
	C1823.285034,62.325939 1824.601807,63.514568 1823.600708,73.245018 
	C1818.140137,70.435135 1813.714722,72.214645 1811.011963,77.105087 
	C1809.545654,79.758316 1809.032227,83.165535 1808.881592,86.271111 
	C1808.569702,92.701591 1808.787476,99.157753 1808.787476,105.799789 
	C1805.880981,105.799789 1803.145996,105.799789 1800.205322,105.799789 
	C1800.205322,91.885696 1800.205322,78.144028 1800.205322,62.969540 
	C1803.491943,64.163589 1806.241455,65.162521 1809.002686,66.557976 
z"/>
<path fill="#FFFFFF" opacity="1.000000" stroke="none" 
	d="
M1193.126831,79.642197 
	C1199.924072,78.722221 1206.768921,78.026711 1213.529419,76.847900 
	C1221.545898,75.450104 1229.484131,73.607643 1237.467285,72.013466 
	C1241.974487,71.113426 1246.487183,70.201408 1251.037354,69.592255 
	C1251.931763,69.472527 1253.008667,70.716812 1254.020752,71.724518 
	C1245.675415,75.086319 1237.278931,77.970108 1228.954468,81.048523 
	C1220.262817,84.262794 1211.665894,87.734261 1202.967651,90.929787 
	C1201.047607,91.635094 1198.875244,91.653175 1196.362549,91.552536 
	C1194.978394,87.283501 1194.050781,83.449654 1193.123291,79.615807 
	C1193.123291,79.615807 1193.137085,79.652710 1193.126831,79.642197 
z"/>
<path fill="#FFFFFF" opacity="1.000000" stroke="none" 
	d="
M1835.000366,57.009155 
	C1835.000366,73.483192 1835.000366,89.458359 1835.000366,105.716110 
	C1832.377319,105.716110 1829.972778,105.716110 1827.278320,105.716110 
	C1827.278320,85.391006 1827.278320,64.979416 1827.278320,44.283432 
	C1829.624268,44.283432 1832.031006,44.283432 1835.000366,44.283432 
	C1835.000366,48.291603 1835.000366,52.400940 1835.000366,57.009155 
z"/>
<path fill="#FFFFFF" opacity="1.000000" stroke="none" 
	d="
M1286.999512,135.887756 
	C1286.678589,139.684906 1289.066528,143.915131 1283.857422,145.675323 
	C1280.598877,146.776398 1277.054565,144.950043 1277.041504,141.741516 
	C1276.960693,121.941986 1277.000977,102.141953 1278.175049,81.469688 
	C1279.448120,82.895897 1281.656372,84.209549 1281.843750,85.766434 
	C1283.132324,96.470673 1283.957520,107.229782 1285.016113,117.962921 
	C1285.591797,123.799110 1286.332886,129.618988 1286.999512,135.887756 
z"/>
<path fill="#FFFFFF" opacity="1.000000" stroke="none" 
	d="
M1305.959473,113.116699 
	C1305.119751,112.523804 1304.279907,111.930916 1303.196289,111.660721 
	C1302.952515,111.983421 1303.027344,112.086082 1303.344360,111.740417 
	C1303.050293,110.385162 1302.439209,109.375565 1301.118042,107.192596 
	C1301.118042,109.328629 1301.118042,110.144867 1300.755005,110.940598 
	C1298.557373,111.294937 1296.722900,111.669785 1294.888306,112.044647 
	C1292.805542,108.073051 1290.722900,104.101440 1288.310669,100.020836 
	C1287.981079,99.911842 1288.061646,99.945778 1288.061646,99.945770 
	C1286.519531,96.492233 1284.977417,93.038712 1283.435303,89.585190 
	C1284.051025,89.254173 1284.666748,88.923164 1285.282593,88.592148 
	C1288.013794,92.042305 1290.745117,95.492455 1293.476318,98.942604 
	C1293.741699,98.789635 1294.006958,98.636665 1294.272339,98.483696 
	C1293.537476,96.847618 1292.802490,95.211548 1291.531372,92.381836 
	C1295.727905,93.819504 1299.156006,94.736015 1302.367676,96.145821 
	C1309.979492,99.487350 1317.424438,103.213356 1325.069214,106.473579 
	C1328.367920,107.880310 1328.856689,110.299393 1327.560425,112.733482 
	C1326.174194,115.336220 1323.913574,115.916466 1321.013306,113.689812 
	C1316.841553,110.486809 1312.222168,107.866684 1307.297363,104.638214 
	C1305.659546,103.877205 1304.518188,103.475769 1303.376831,103.074341 
	C1303.286865,103.308258 1303.196777,103.542175 1303.106689,103.776093 
	C1304.148438,104.380501 1305.190186,104.984917 1306.231934,105.589317 
	C1306.789307,106.186356 1307.346680,106.783417 1307.626709,107.746712 
	C1306.886230,109.780869 1306.422852,111.448792 1305.959473,113.116699 
M1300.162598,106.791664 
	C1299.854248,106.715691 1299.546021,106.639717 1299.237671,106.563736 
	C1299.266846,106.953209 1299.296143,107.342674 1299.325317,107.732140 
	C1299.694458,107.678154 1300.063477,107.624176 1300.162598,106.791664 
z"/>
<path fill="#FFFFFF" opacity="1.000000" stroke="none" 
	d="
M1308.791504,50.755043 
	C1308.833374,40.718357 1308.833374,30.646544 1308.833374,20.206482 
	C1314.688232,17.095085 1316.113159,17.909582 1315.974976,25.449608 
	C1315.732178,38.698006 1315.374268,51.944866 1314.947021,65.188576 
	C1314.894287,66.829697 1314.125366,68.447723 1313.688232,70.076447 
	C1313.105957,70.100510 1312.523804,70.124565 1311.941528,70.148628 
	C1311.140015,63.786026 1310.338501,57.423420 1309.107422,50.849030 
	C1308.677734,50.637245 1308.749512,50.719917 1308.791504,50.755043 
z"/>
<path fill="#FFFFFF" opacity="1.000000" stroke="none" 
	d="
M1287.970215,99.869553 
	C1289.576416,104.688126 1291.023682,109.613831 1292.852173,114.393784 
	C1295.246582,120.652809 1298.069580,126.748634 1300.431274,133.018967 
	C1301.154419,134.938690 1300.967041,137.201279 1301.235962,139.666626 
	C1298.543945,139.666626 1296.139648,139.666626 1293.180542,139.666626 
	C1290.279785,127.591774 1287.232666,115.201759 1284.377808,102.767586 
	C1283.828003,100.372925 1285.200684,99.525116 1287.777832,100.285400 
	C1288.061646,99.945778 1287.981079,99.911842 1287.970215,99.869553 
z"/>
<path fill="#FFFFFF" opacity="1.000000" stroke="none" 
	d="
M1315.980225,78.901672 
	C1312.314453,79.615639 1312.452393,77.365036 1313.384888,75.174164 
	C1317.509033,65.484512 1321.670776,55.805103 1326.178833,46.292580 
	C1326.697510,45.198414 1329.725586,44.413818 1331.106567,44.889507 
	C1332.189087,45.262398 1333.525757,48.308823 1333.026855,49.304180 
	C1329.953491,55.436630 1326.390991,61.324116 1322.957275,67.651054 
	C1322.923584,68.009026 1322.956299,67.927673 1322.956299,67.927673 
	C1320.635132,71.378685 1318.313965,74.829689 1315.972046,78.632462 
	C1315.951294,78.984230 1315.980225,78.901672 1315.980225,78.901672 
z"/>
<path fill="#FFFFFF" opacity="1.000000" stroke="none" 
	d="
M1294.942383,112.414413 
	C1296.722900,111.669785 1298.557373,111.294937 1301.029785,111.026535 
	C1302.120850,111.450684 1302.574097,111.768402 1303.027344,112.086098 
	C1303.027344,112.086082 1302.952515,111.983421 1302.907471,111.938507 
	C1305.545654,116.066818 1308.333374,120.178192 1310.860962,124.443634 
	C1311.873535,126.152344 1312.953369,128.262863 1312.776001,130.070053 
	C1312.668823,131.160980 1310.105713,132.914459 1308.822876,132.772614 
	C1306.942749,132.564713 1304.458252,131.363846 1303.568848,129.817078 
	C1300.405273,124.315392 1297.807983,118.488167 1294.942383,112.414413 
z"/>
<path fill="#FFFFFF" opacity="1.000000" stroke="none" 
	d="
M1321.110596,95.999542 
	C1314.645264,93.734207 1307.394653,96.883942 1300.600098,91.585068 
	C1307.525269,90.971573 1313.019409,90.589386 1318.485352,89.961899 
	C1321.826782,89.578293 1325.108521,88.527779 1328.448975,88.338440 
	C1330.368408,88.229652 1332.792847,88.729759 1334.166016,89.912392 
	C1335.261963,90.856377 1335.112183,93.246864 1335.515259,94.995262 
	C1333.335571,95.477463 1331.173462,96.224854 1328.971436,96.370972 
	C1326.526245,96.533234 1324.044678,96.147003 1321.110596,95.999542 
z"/>
<path fill="#FFFFFF" opacity="1.000000" stroke="none" 
	d="
M1315.909424,78.996735 
	C1320.149048,76.911201 1324.469727,74.887939 1328.695679,72.683578 
	C1330.816406,71.577415 1332.765137,70.141586 1334.723877,68.897751 
	C1339.559814,72.702568 1339.325317,75.191154 1334.162476,77.378418 
	C1327.702881,80.115120 1321.298706,82.989197 1314.781494,85.579742 
	C1313.119873,86.240303 1311.121704,86.054314 1308.978638,85.218803 
	C1311.523071,83.306831 1314.067383,81.394852 1316.296021,79.192276 
	C1315.980225,78.901672 1315.951294,78.984230 1315.909424,78.996735 
z"/>
<path fill="#FFFFFF" opacity="1.000000" stroke="none" 
	d="
M1306.086914,113.437508 
	C1306.422852,111.448792 1306.886230,109.780869 1307.731934,108.035110 
	C1312.381348,110.792786 1316.961060,113.281227 1320.727661,116.672729 
	C1321.876343,117.706940 1321.650269,121.900139 1320.470947,123.411621 
	C1319.371948,124.820068 1316.169067,125.995842 1313.993774,123.180077 
	C1311.505371,119.958641 1308.816284,116.892136 1306.086914,113.437508 
z"/>
<path fill="#FFFFFF" opacity="1.000000" stroke="none" 
	d="
M1323.016357,47.139137 
	C1321.206543,50.688530 1322.107788,55.416267 1316.875977,57.715019 
	C1317.307861,53.041862 1317.632080,49.223076 1318.022827,45.411114 
	C1318.302856,42.679855 1318.396484,39.884647 1319.094238,37.256241 
	C1319.588501,35.394489 1320.670044,33.455578 1322.063110,32.175682 
	C1322.652954,31.633846 1325.528076,32.296280 1325.927368,33.113487 
	C1326.630127,34.552200 1326.632690,36.637665 1326.201538,38.258995 
	C1325.430054,41.159306 1324.118774,43.916031 1323.016357,47.139137 
z"/>
<path fill="#FFFFFF" opacity="1.000000" stroke="none" 
	d="
M1322.881226,68.020416 
	C1323.884888,67.415749 1325.201416,67.020203 1325.920898,66.137871 
	C1327.441895,64.272400 1328.450317,61.971050 1330.054810,60.197552 
	C1331.233154,58.895088 1332.940063,57.917072 1334.599731,57.306366 
	C1335.043457,57.143074 1336.773438,58.791084 1336.877808,59.723278 
	C1337.129639,61.976593 1337.664673,64.333351 1334.747314,65.951904 
	C1330.994019,68.034134 1327.619019,70.798386 1322.903076,74.091446 
	C1323.262817,71.428375 1323.457642,69.985886 1323.304443,68.235535 
	C1322.956299,67.927673 1322.923584,68.009026 1322.881226,68.020416 
z"/>
<path fill="#FFFFFF" opacity="1.000000" stroke="none" 
	d="
M1321.352051,97.984985 
	C1324.846802,98.324844 1328.031982,98.234406 1330.866577,99.187233 
	C1331.975464,99.559998 1332.644897,102.245377 1332.788452,103.938957 
	C1332.838623,104.530891 1330.390747,106.150841 1329.627319,105.862427 
	C1324.751709,104.020554 1320.014038,101.806747 1315.283569,99.602577 
	C1314.955200,99.449554 1315.050781,98.386635 1314.791870,96.754883 
	C1317.111206,97.216858 1319.006836,97.594437 1321.352051,97.984985 
z"/>
<path fill="#FFFFFF" opacity="1.000000" stroke="none" 
	d="
M1331.038574,80.975082 
	C1333.272583,80.821808 1335.176880,80.341209 1336.859741,80.756744 
	C1337.431763,80.897987 1338.125366,83.981949 1337.576904,84.526695 
	C1336.346680,85.748688 1334.441895,86.586662 1332.686401,86.919899 
	C1329.524536,87.520073 1326.275146,87.760086 1323.052368,87.876495 
	C1322.091675,87.911201 1321.098022,87.031639 1320.119385,86.570953 
	C1320.767334,85.721756 1321.239990,84.470612 1322.095581,84.097397 
	C1324.862061,82.890800 1327.769043,82.006859 1331.038574,80.975082 
z"/>
<path fill="#FFFFFF" opacity="1.000000" stroke="none" 
	d="
M1192.823608,79.807877 
	C1194.050781,83.449654 1194.978394,87.283501 1195.953125,91.475281 
	C1190.954956,90.016670 1189.432495,84.834000 1192.823608,79.807877 
z"/>
<path fill="#000000" opacity="1.000000" stroke="none" 
	d="
M1298.978760,53.681419 
	C1295.868286,52.709885 1292.647217,51.397987 1288.155762,49.568649 
	C1290.472168,49.134106 1291.559570,48.930126 1293.106812,48.639866 
	C1292.803345,47.417084 1292.506592,46.222111 1292.609131,44.722672 
	C1294.961792,47.392483 1296.915039,50.366768 1298.978760,53.681419 
z"/>
<path fill="#000000" opacity="1.000000" stroke="none" 
	d="
M1283.544434,44.561890 
	C1284.640991,44.918560 1285.518066,45.431767 1286.370361,46.343704 
	C1286.206299,46.855759 1286.066895,46.969078 1285.927490,47.082390 
	C1285.003296,46.619438 1284.079224,46.156487 1283.040771,45.387524 
	C1283.059448,44.960480 1283.192261,44.839455 1283.544434,44.561890 
z"/>
<path fill="#FFFFFF" opacity="1.000000" stroke="none" 
	d="
M1282.391968,48.466221 
	C1281.941650,48.350121 1281.665405,48.066586 1281.410645,47.764992 
	C1281.404053,47.757206 1281.631470,47.551842 1281.749878,47.438644 
	C1282.022949,47.724564 1282.296021,48.010479 1282.391968,48.466221 
z"/>
<path fill="#000000" opacity="1.000000" stroke="none" 
	d="
M1286.570312,46.593796 
	C1287.109985,46.884777 1287.425049,47.324402 1287.740112,47.764030 
	C1287.200317,47.723763 1286.660522,47.683487 1286.024170,47.362804 
	C1286.066895,46.969078 1286.206299,46.855759 1286.570312,46.593796 
z"/>
<path fill="#00A5A5" opacity="1.000000" stroke="none" 
	d="
M375.000000,121.970169 
	C375.000000,98.740150 375.000000,76.004318 375.000000,53.268490 
	C375.219360,53.267918 375.438721,53.267342 375.658081,53.266766 
	C375.658081,79.756142 375.658081,106.245506 375.658081,132.734879 
	C375.438721,132.749329 375.219360,132.763763 375.000000,132.778198 
	C375.000000,129.340256 375.000000,125.902313 375.000000,121.970169 
z"/>
<path fill="#000000" opacity="1.000000" stroke="none" 
	d="
M1738.037842,93.808121 
	C1733.527710,99.044426 1726.921753,100.653656 1721.639282,98.185867 
	C1716.407959,95.741997 1712.888916,88.755524 1714.019043,83.057541 
	C1715.288818,76.655228 1720.599365,71.715187 1726.952881,71.026207 
	C1731.614990,70.520653 1739.045654,75.426369 1739.640381,80.586967 
	C1740.119873,84.747086 1738.682373,89.128098 1738.037842,93.808121 
z"/>
<path fill="#000000" opacity="1.000000" stroke="none" 
	d="
M1673.507324,72.178909 
	C1679.834106,70.413834 1685.439331,71.485031 1688.712402,76.701469 
	C1691.987183,81.920372 1692.407227,87.980835 1688.842041,93.634895 
	C1685.864502,98.357216 1679.939575,100.425438 1673.885864,98.938889 
	C1670.352417,98.071236 1665.365234,92.177773 1665.030273,88.153099 
	C1664.480225,81.541832 1665.057129,76.070740 1673.507324,72.178909 
z"/>
<path fill="#000000" opacity="1.000000" stroke="none" 
	d="
M1867.514282,72.180687 
	C1870.152954,74.802673 1872.426758,77.256836 1874.700562,79.710999 
	C1874.393555,80.061775 1874.086426,80.412544 1873.779297,80.763321 
	C1866.049561,80.763321 1858.319702,80.763321 1850.677124,80.763321 
	C1855.167603,71.827217 1859.953247,69.247643 1867.514282,72.180687 
z"/>
<path fill="#000000" opacity="1.000000" stroke="none" 
	d="
M1763.101807,77.406036 
	C1765.829346,72.269676 1770.054810,70.431923 1775.098511,71.089531 
	C1780.433350,71.785110 1783.519775,75.296852 1784.562134,80.794029 
	C1777.145996,80.794029 1769.765137,80.794029 1761.851929,80.794029 
	C1762.217407,79.659508 1762.530029,78.689278 1763.101807,77.406036 
z"/>
<path fill="#000000" opacity="1.000000" stroke="none" 
	d="
M1918.405029,94.226341 
	C1915.505493,98.425606 1907.881470,100.721390 1903.381470,98.846779 
	C1898.086670,96.641106 1893.700684,88.206963 1895.136230,82.699387 
	C1897.011230,75.504631 1904.288330,69.045502 1912.022705,72.184814 
	C1915.351318,73.535843 1918.926392,76.371231 1920.491333,79.485939 
	C1922.846069,84.172836 1922.940918,89.616920 1918.405029,94.226341 
z"/>
<path fill="#000000" opacity="1.000000" stroke="none" 
	d="
M1640.368408,76.873764 
	C1645.253174,87.271996 1643.122314,94.400070 1634.374390,98.159950 
	C1629.195312,100.385895 1623.369873,99.191933 1619.622192,95.136452 
	C1615.611450,90.795998 1614.795898,84.211983 1617.608398,78.877197 
	C1620.525024,73.345062 1624.849976,70.768654 1630.820068,72.116760 
	C1634.078003,72.852463 1637.001831,75.068283 1640.368408,76.873764 
z"/>
<path fill="#000000" opacity="1.000000" stroke="none" 
	d="
M1306.448975,105.430008 
	C1305.190186,104.984917 1304.148438,104.380501 1303.106689,103.776093 
	C1303.196777,103.542175 1303.286865,103.308258 1303.376831,103.074341 
	C1304.518188,103.475769 1305.659546,103.877205 1306.936768,104.598221 
	C1306.936890,105.035431 1306.801392,105.153061 1306.448975,105.430008 
z"/>
<path fill="#000000" opacity="1.000000" stroke="none" 
	d="
M1303.344360,111.740433 
	C1302.574097,111.768402 1302.120850,111.450684 1301.392822,111.047043 
	C1301.118042,110.144867 1301.118042,109.328629 1301.118042,107.192596 
	C1302.439209,109.375565 1303.050293,110.385162 1303.344360,111.740433 
z"/>
<path fill="#000000" opacity="1.000000" stroke="none" 
	d="
M1300.297607,107.180923 
	C1300.063477,107.624176 1299.694458,107.678154 1299.325317,107.732147 
	C1299.296143,107.342674 1299.266846,106.953209 1299.237671,106.563736 
	C1299.546021,106.639717 1299.854248,106.715691 1300.297607,107.180923 
z"/>
</svg>