<svg version="1.1" id="Layer_1" xmlns="http://www.w3.org/2000/svg" xmlns:xlink="http://www.w3.org/1999/xlink" x="0px" y="0px"
	 width="100%" viewBox="0 0 2037 725" enable-background="new 0 0 2037 725" xml:space="preserve">
<path fill="#000000" opacity="1.000000" stroke="none" 
	d="
M2038.000000,364.000000 
	C2038.000000,484.657745 2038.000000,605.315491 2038.000000,725.979858 
	C1359.059204,725.986572 680.118469,725.986572 1.088869,725.986572 
	C1.088869,484.410522 1.088869,242.820984 1.088869,1.115726 
	C680.000000,1.115726 1359.000000,1.115726 2038.000000,1.116659 
	C2038.000000,112.442642 2038.000000,223.767685 2037.576660,335.546448 
	C2036.052856,335.792725 2034.932495,335.658783 2033.855347,335.365814 
	C2027.140137,333.539642 2019.931030,338.086182 2019.000854,344.771423 
	C2018.489868,348.444183 2017.994507,352.119080 2017.481567,355.869598 
	C2015.030640,355.977386 2012.611450,356.083801 2010.277832,356.186462 
	C2010.277832,358.974060 2010.277832,361.386047 2010.277832,363.851532 
	C2012.963989,363.975647 2015.376709,364.087128 2018.162598,364.215881 
	C2018.162598,375.640259 2018.162598,386.722687 2018.162598,397.714447 
	C2021.307007,397.714447 2024.045776,397.714447 2027.166260,397.714447 
	C2027.166260,386.352722 2027.166260,375.271149 2027.166260,364.000000 
	C2031.041504,364.000000 2034.520752,364.000000 2038.000000,364.000000 
M1268.220825,372.234406 
	C1265.365479,378.043579 1267.522461,383.278076 1273.756104,383.987732 
	C1275.170654,383.602844 1276.585083,383.217987 1278.690186,382.984955 
	C1287.858521,379.645966 1296.968628,376.134186 1306.211670,373.016388 
	C1315.531250,369.872742 1324.570190,365.535217 1334.582397,364.928741 
	C1316.118164,375.120880 1297.434082,384.553070 1278.809937,394.102173 
	C1277.637939,394.703125 1276.083252,396.291626 1276.170654,397.292908 
	C1276.443726,400.422150 1276.469727,404.413086 1278.356689,406.354431 
	C1280.868774,408.939056 1284.624146,407.936890 1287.953003,405.674927 
	C1304.635986,394.338562 1321.466431,383.219086 1339.062256,372.646210 
	C1334.093628,377.759552 1329.319702,383.082214 1324.105347,387.931274 
	C1318.068115,393.545532 1311.559570,398.649689 1305.418335,404.156616 
	C1301.678223,407.510315 1298.161255,411.127563 1294.714722,414.787079 
	C1293.352173,416.233704 1291.161133,418.675629 1291.599976,419.688477 
	C1292.642090,422.093628 1294.693237,424.769989 1296.991089,425.675201 
	C1298.539917,426.285370 1301.842529,424.622925 1303.259521,423.009766 
	C1309.292847,416.141327 1314.800781,408.814789 1320.718384,401.840363 
	C1327.740479,393.564331 1335.029053,385.514832 1342.088501,377.269897 
	C1343.146851,376.033905 1343.585938,374.267914 1344.612427,372.116180 
	C1341.877930,372.116180 1340.006348,372.116180 1338.840820,371.710052 
	C1342.922241,369.441467 1347.003540,367.172882 1351.004150,365.650116 
	C1345.533569,374.738281 1340.171997,383.894287 1334.564941,392.897552 
	C1327.508301,404.228668 1320.213745,415.411438 1313.103882,426.709778 
	C1311.052612,429.969482 1311.885986,434.369965 1314.577026,435.878113 
	C1317.826782,437.699493 1321.989502,436.722473 1323.842285,433.441132 
	C1326.037598,429.553284 1328.114136,425.586151 1330.013672,421.545929 
	C1336.053711,408.698578 1341.987671,395.801331 1348.652466,383.559540 
	C1346.628662,390.660919 1344.522217,397.740021 1342.600952,404.869049 
	C1339.927490,414.789307 1337.193237,424.703888 1335.025146,434.737579 
	C1334.719238,436.153137 1337.118530,439.066895 1338.882202,439.796143 
	C1341.361328,440.821289 1344.413696,440.003601 1344.933838,436.591705 
	C1346.108765,428.886017 1346.990112,421.135742 1348.001465,413.404938 
	C1349.098389,405.018768 1349.791626,396.548645 1351.491455,388.285950 
	C1352.305908,384.327057 1351.585327,383.052979 1347.991577,382.283447 
	C1349.979248,378.008179 1351.897461,373.698822 1353.976196,369.468292 
	C1355.682983,365.994507 1354.651001,364.646515 1350.358887,364.438660 
	C1352.430054,362.944153 1354.612671,361.577240 1356.526367,359.902649 
	C1357.523682,359.029938 1358.046753,357.614990 1358.783936,356.444916 
	C1357.230591,356.292847 1355.463989,355.590271 1354.164551,356.093536 
	C1350.510498,357.508850 1347.048828,359.420624 1343.282471,361.247528 
	C1342.891357,357.682190 1343.043823,354.964661 1338.045166,356.763123 
	C1332.671753,358.696472 1326.683228,358.866302 1321.009155,360.030640 
	C1311.971191,361.885315 1302.971313,363.926331 1293.302856,365.992981 
	C1292.868652,366.050934 1292.434448,366.108887 1291.164307,366.012238 
	C1286.475830,366.997253 1281.752441,367.843872 1277.112061,369.019135 
	C1274.309814,369.728821 1271.636719,370.948822 1268.986694,371.985931 
	C1268.986694,371.985931 1268.939819,371.905182 1268.220825,372.234406 
M1392.609863,371.483307 
	C1391.254395,372.611847 1389.825195,373.665100 1388.568848,374.894897 
	C1387.705688,375.739899 1387.082153,376.829956 1386.351440,377.810455 
	C1387.637939,377.863770 1389.096802,378.341522 1390.182861,377.900879 
	C1396.852051,375.195038 1403.429932,372.265015 1410.052124,369.442444 
	C1415.276245,367.215820 1415.558960,364.796448 1410.794067,360.882111 
	C1408.828735,362.119598 1406.867554,363.545105 1404.741089,364.653107 
	C1400.496582,366.864807 1396.161377,368.902283 1391.992798,370.283661 
	C1394.313721,366.831604 1396.634644,363.379517 1399.651978,360.542816 
	C1399.453857,361.982910 1399.255737,363.423004 1398.873901,366.197723 
	C1403.712769,362.738556 1407.584106,360.432434 1410.822144,357.441040 
	C1412.218506,356.151031 1412.560181,353.476013 1412.833984,351.359497 
	C1412.918457,350.707153 1410.859253,348.992310 1410.359375,349.194244 
	C1408.753784,349.842590 1407.182251,350.953949 1406.036499,352.269073 
	C1404.470825,354.066437 1403.436157,356.320282 1401.917114,358.167145 
	C1401.197998,359.041412 1399.883057,359.425385 1398.991455,359.293121 
	C1402.391357,353.324982 1405.954346,347.438568 1409.026978,341.306427 
	C1409.526855,340.308807 1408.189941,337.258789 1407.104858,336.883392 
	C1405.726929,336.406708 1402.698120,337.198425 1402.178345,338.295074 
	C1397.670532,347.806366 1393.509521,357.484711 1389.385254,367.172943 
	C1388.453003,369.363037 1388.312378,371.612274 1392.609863,371.483307 
M1382.270996,405.786041 
	C1384.758911,408.631226 1387.184326,411.535034 1389.766602,414.291870 
	C1390.758179,415.350464 1392.262939,416.933167 1393.258179,416.753113 
	C1394.834717,416.467926 1396.875610,415.181610 1397.432861,413.799835 
	C1398.027832,412.324097 1397.800415,409.413300 1396.764404,408.579102 
	C1392.802368,405.388824 1388.370605,402.781921 1383.798218,399.253235 
	C1383.497314,398.456848 1383.196533,397.660431 1383.630249,396.993042 
	C1388.084106,399.836853 1392.742920,402.413300 1396.920776,405.617035 
	C1399.779175,407.808990 1402.055542,407.443665 1403.501709,404.821259 
	C1404.807129,402.454132 1404.516479,399.982941 1401.155640,398.526917 
	C1392.784180,394.900208 1384.609131,390.822968 1376.273438,387.109741 
	C1373.778442,385.998291 1371.014038,385.491486 1368.373047,384.707672 
	C1368.084717,385.258514 1367.796265,385.809387 1367.507812,386.360229 
	C1371.725708,389.274658 1375.943604,392.189056 1379.455078,395.712280 
	C1378.438354,395.179840 1377.339600,394.076874 1376.418335,394.209106 
	C1371.090454,394.973846 1369.241699,391.159912 1366.896240,387.650055 
	C1365.211792,385.129669 1363.019409,382.948883 1361.053589,380.616608 
	C1360.533325,380.958099 1360.012939,381.299591 1359.492554,381.641052 
	C1361.015381,385.076080 1362.538208,388.511078 1363.492920,392.624908 
	C1361.199219,391.525238 1359.828369,392.373505 1360.378174,394.768188 
	C1363.233154,407.202209 1366.279907,419.592163 1369.180542,431.667114 
	C1372.139893,431.667114 1374.544312,431.667114 1377.235596,431.667114 
	C1376.967163,429.202179 1377.154785,426.939453 1376.431763,425.019684 
	C1374.070190,418.749390 1371.247192,412.653656 1368.852661,406.394623 
	C1367.023926,401.614502 1365.576050,396.688660 1364.640381,392.129791 
	C1369.541992,402.016693 1374.313110,411.972778 1379.477661,421.720337 
	C1380.307861,423.287079 1382.815552,424.535461 1384.696899,424.779083 
	C1386.002686,424.948181 1388.638306,423.278137 1388.776245,422.188782 
	C1389.024170,420.230316 1388.289795,417.797211 1387.167725,416.085571 
	C1384.509033,412.029633 1381.382812,408.280212 1378.445557,404.406860 
	C1378.821411,404.117554 1379.197388,403.828278 1379.573364,403.539001 
	C1380.368774,404.065033 1381.164307,404.591064 1382.270996,405.786041 
M1319.327148,340.825348 
	C1322.218140,341.161285 1325.109131,341.497223 1328.640991,341.988342 
	C1329.077881,342.028076 1329.514893,342.067780 1330.331787,342.828369 
	C1337.453735,343.994965 1344.575806,345.161530 1351.697754,346.328125 
	C1352.000977,345.761963 1352.304077,345.195770 1352.607178,344.629608 
	C1351.487183,343.648987 1350.473877,342.492737 1349.220825,341.731018 
	C1347.544556,340.711975 1345.682373,339.998718 1343.900024,339.154175 
	C1344.088257,338.737732 1344.276611,338.321259 1344.464966,337.904816 
	C1352.140015,340.184387 1359.290527,343.717957 1365.185547,348.005554 
	C1355.938843,347.670074 1346.690674,347.370239 1337.445923,346.987091 
	C1330.859619,346.714172 1324.279175,346.304810 1317.694092,345.999268 
	C1303.027954,345.318726 1288.362305,344.619965 1273.692505,344.027985 
	C1269.272461,343.849640 1268.030396,347.333130 1268.174805,350.564087 
	C1268.322998,353.883423 1268.601318,358.201477 1273.865356,357.983704 
	C1280.285034,357.718170 1286.699829,357.331970 1293.116943,357.001953 
	C1306.117554,356.333282 1319.115723,355.611725 1332.119751,355.018829 
	C1341.531372,354.589691 1350.951050,354.339447 1360.366699,353.995728 
	C1364.253662,353.853821 1366.697144,352.352356 1366.691284,347.997528 
	C1367.829346,348.526001 1368.924438,349.206451 1370.116699,349.542633 
	C1371.465088,349.922882 1372.900391,349.994049 1374.297974,350.199615 
	C1374.144531,348.762207 1373.990967,347.324768 1374.473999,345.318390 
	C1377.071289,348.589081 1379.668701,351.859772 1382.265991,355.130493 
	C1382.829468,354.905731 1383.392822,354.681000 1383.956299,354.456268 
	C1383.168457,351.687775 1382.380737,348.919281 1381.608276,346.204895 
	C1382.653564,345.997772 1383.846924,345.761322 1384.920166,345.548645 
	C1382.551270,334.467163 1380.311768,323.753510 1377.949097,313.067108 
	C1377.120850,309.320862 1376.311035,305.506805 1374.838013,301.998657 
	C1374.257812,300.616943 1371.495117,298.893433 1370.429443,299.277405 
	C1368.941040,299.813599 1367.672729,302.046265 1367.142334,303.804077 
	C1366.735474,305.152893 1367.416504,306.962341 1367.957397,308.441315 
	C1370.159424,314.463776 1372.600220,320.400238 1374.734009,326.445679 
	C1375.793213,329.446350 1376.377930,332.614502 1377.455322,336.783051 
	C1375.822632,335.811859 1375.270752,335.679962 1375.086182,335.345398 
	C1367.835083,322.207092 1360.609375,309.054718 1353.400269,295.893311 
	C1351.287109,292.035431 1346.392700,291.851868 1344.050049,295.543396 
	C1342.009277,298.759369 1344.376709,301.074707 1345.877075,303.276093 
	C1353.444580,314.379944 1361.204102,325.352936 1368.216919,337.081848 
	C1365.640747,334.388458 1363.022949,331.733521 1360.496460,328.994415 
	C1353.208862,321.093750 1346.012939,313.107758 1338.667969,305.261169 
	C1335.381226,301.750061 1332.051025,298.210510 1328.320190,295.205811 
	C1325.206787,292.698364 1320.897339,293.675507 1319.551270,297.104706 
	C1318.449463,299.911865 1318.009033,303.212585 1322.491821,304.255798 
	C1323.466919,304.482697 1324.179321,305.769531 1325.050049,306.525055 
	C1329.912354,310.743500 1334.755493,314.984802 1339.663452,319.149597 
	C1346.349243,324.822845 1353.087524,330.434296 1360.769287,336.883240 
	C1358.582031,336.883240 1357.811035,336.883240 1356.759277,336.238861 
	C1350.631836,332.450867 1344.487305,328.690216 1338.380737,324.868896 
	C1327.633423,318.143585 1316.887207,311.415955 1306.186279,304.617371 
	C1301.816406,301.841125 1299.273804,303.930389 1296.899414,307.545746 
	C1294.141479,311.745148 1298.384399,313.421906 1300.171143,314.394135 
	C1311.595215,320.610199 1323.323486,326.266998 1335.257690,332.774475 
	C1337.306885,334.135437 1340.835083,333.912140 1341.081665,338.267365 
	C1335.992065,336.785217 1331.496216,335.475983 1326.241943,334.007568 
	C1322.682007,332.672852 1319.114136,331.358917 1315.563721,329.999176 
	C1307.853394,327.046234 1300.110352,324.172028 1292.461914,321.065735 
	C1287.693115,319.128906 1282.959229,319.709869 1280.238037,323.217560 
	C1276.861206,330.353699 1279.747559,334.356903 1289.462769,334.963257 
	C1289.693970,334.898773 1289.928711,334.852081 1290.823486,335.262024 
	C1298.882324,336.785736 1306.941284,338.309479 1315.780762,339.987885 
	C1316.839600,340.029633 1317.898315,340.071411 1319.327148,340.825348 
M283.013489,425.104309 
	C283.024567,410.478943 283.062469,395.853516 283.040863,381.228180 
	C283.001343,354.474091 282.926666,327.720062 282.938782,300.502777 
	C282.938782,300.502777 282.787231,300.059174 282.425690,299.305573 
	C269.365265,299.305573 256.304810,299.305573 243.421631,299.305573 
	C243.421631,342.448486 243.421631,385.135284 243.421631,427.997986 
	C255.994614,427.997986 268.147491,428.018555 280.299866,427.952667 
	C281.130554,427.948181 281.957733,427.295441 282.938660,426.500000 
	C282.938660,426.500000 282.866669,426.036072 283.013489,425.104309 
M496.092346,353.437927 
	C489.317932,336.448456 482.521820,319.467560 475.791382,302.460663 
	C474.722778,299.760468 473.011261,298.889893 470.092926,298.930786 
	C458.101196,299.098755 446.105774,299.000916 434.111694,299.000885 
	C431.514954,299.000885 428.918182,299.000885 426.392456,299.000885 
	C426.392456,342.376190 426.392456,385.075684 426.392456,427.710968 
	C435.381409,427.710968 443.975403,427.710968 452.954712,427.710968 
	C452.954712,400.903687 452.954712,374.380463 452.954712,347.857269 
	C458.457489,359.561005 463.221344,371.406219 468.060364,383.220642 
	C474.107666,397.985046 480.154480,412.750671 486.414581,427.424835 
	C486.930176,428.633423 489.044128,429.797821 490.470276,429.868011 
	C496.120422,430.145935 501.798370,429.826416 507.453583,430.047150 
	C510.095978,430.150299 511.076233,429.036804 512.019165,426.782837 
	C517.579163,413.491638 523.295959,400.265747 528.997009,387.033844 
	C534.514648,374.227661 540.076843,361.440735 546.165039,347.385773 
	C546.165039,374.988861 546.165039,401.246582 546.165039,427.673889 
	C558.884338,427.673889 571.259460,427.673889 583.604858,427.673889 
	C583.604858,384.645935 583.604858,341.944824 583.604858,299.004883 
	C568.752808,299.004883 554.271667,298.915192 539.796265,299.159180 
	C538.507507,299.180908 536.705872,301.132751 536.071411,302.592072 
	C530.085938,316.359711 524.281677,330.206390 518.467468,344.048065 
	C514.092712,354.462830 509.779968,364.903656 505.137634,376.058411 
	C502.111237,368.372253 499.304688,361.244385 496.092346,353.437927 
M813.001038,341.500000 
	C813.001038,353.051483 813.001038,364.602936 813.001038,377.186096 
	C805.643127,363.823364 798.844238,351.447021 792.017517,339.086029 
	C785.158020,326.665710 778.312439,314.237213 771.330933,301.885681 
	C770.640503,300.664215 769.056519,299.147858 767.867554,299.130615 
	C754.418518,298.935822 740.965637,299.007172 727.314392,299.007172 
	C727.314392,342.200867 727.314392,384.908417 727.314392,427.610229 
	C736.348633,427.610229 745.062988,427.610229 754.233337,427.610229 
	C754.233337,401.090607 754.233337,374.957031 754.233337,347.788361 
	C768.480713,373.916412 782.218384,399.024231 795.833740,424.198181 
	C797.355652,427.012085 799.101868,428.179535 802.401306,428.083740 
	C811.058960,427.832275 819.728699,427.998932 828.393616,427.998962 
	C832.160278,427.998962 835.926880,427.998932 839.591553,427.998932 
	C839.591553,384.609009 839.591553,341.900757 839.591553,299.306366 
	C830.583557,299.306366 821.986694,299.306366 813.001038,299.306366 
	C813.001038,313.238831 813.001038,326.869415 813.001038,341.500000 
M309.952972,387.500000 
	C309.952972,400.910767 309.952972,414.321533 309.952972,427.730347 
	C342.751801,427.730347 374.672455,427.730347 406.633942,427.730347 
	C406.633942,419.080780 406.633942,410.705200 406.633942,401.905212 
	C387.322723,401.905212 368.398254,401.905212 349.341003,401.905212 
	C349.341003,392.421936 349.341003,383.376068 349.341003,373.781769 
	C365.731506,373.781769 381.787140,373.781769 397.998047,373.781769 
	C397.998047,366.737946 398.178101,360.236938 397.844269,353.762421 
	C397.778473,352.485809 395.748840,350.266052 394.597015,350.247894 
	C379.510376,350.009888 364.418732,350.089722 349.407471,350.089722 
	C349.407471,341.608582 349.407471,332.883362 349.407471,323.765320 
	C368.075348,323.765320 386.337708,323.765320 404.608765,323.765320 
	C404.608765,315.307220 404.608765,307.263031 404.608765,299.322784 
	C372.966553,299.322784 341.716736,299.322784 309.952972,299.322784 
	C309.952972,328.594727 309.952972,357.547363 309.952972,387.500000 
M698.997131,371.262543 
	C698.997925,365.596741 698.937134,359.929932 699.027649,354.265564 
	C699.067993,351.743256 698.554504,350.066101 695.537476,350.075470 
	C680.458557,350.122253 665.379517,350.096863 650.253418,350.096863 
	C650.253418,341.676178 650.253418,333.076355 650.253418,323.895294 
	C668.881592,323.895294 687.266785,323.895294 705.583862,323.895294 
	C705.583862,315.257812 705.583862,307.211456 705.583862,299.309631 
	C674.240662,299.309631 643.314026,299.309631 612.378540,299.309631 
	C612.378540,342.329651 612.378540,385.039337 612.378540,427.720398 
	C644.349548,427.720398 675.941223,427.720398 707.630981,427.720398 
	C707.630981,419.058380 707.630981,410.679718 707.630981,401.896637 
	C688.346375,401.896637 669.417297,401.896637 650.332886,401.896637 
	C650.332886,392.436066 650.332886,383.389771 650.332886,374.004364 
	C665.135010,374.004364 679.607117,374.061279 694.077454,373.925537 
	C695.714478,373.910156 697.341309,372.809540 698.997131,371.262543 
M205.513031,299.001678 
	C190.922867,295.983490 176.287827,294.516785 161.565079,298.032867 
	C144.368759,302.139709 130.054993,309.630096 126.533585,329.098938 
	C123.348282,346.709534 131.577698,361.660278 147.090698,369.970062 
	C157.814453,375.714417 169.311096,380.031403 180.529495,384.829254 
	C184.916779,386.705536 188.772980,389.516113 188.620148,394.308014 
	C188.479645,398.712891 186.807114,401.883789 179.407654,404.320343 
	C168.659454,407.859619 158.235016,405.181610 147.814407,403.281219 
	C141.322144,402.097290 135.028381,399.824982 128.710953,398.059418 
	C128.412125,398.637604 128.134171,398.926239 128.131287,399.217590 
	C128.068878,405.545471 128.024277,411.873627 128.002670,418.201782 
	C127.976196,425.948914 128.049744,425.630493 135.489227,427.103943 
	C150.070343,429.991852 164.615005,431.579803 179.551529,430.125458 
	C194.345001,428.685059 207.488831,424.758179 218.195877,413.534882 
	C228.151657,403.098969 229.362610,383.504517 222.266861,371.841858 
	C217.368301,363.790497 210.223862,358.148712 201.886108,353.993469 
	C191.226013,348.680939 180.347000,343.779236 169.910736,338.064240 
	C167.005112,336.473083 163.393967,332.532135 163.533600,329.847443 
	C163.758423,325.525177 167.751892,321.437225 172.409622,321.231140 
	C181.287994,320.838257 190.282944,321.074982 199.104706,322.111969 
	C204.992859,322.804108 210.665237,325.331940 216.997284,327.204803 
	C216.997284,319.915253 216.794083,313.109497 217.069809,306.323242 
	C217.249084,301.910706 216.465256,299.197296 211.188843,299.918427 
	C209.661270,300.127197 207.998810,299.348816 205.513031,299.001678 
M952.979309,416.550781 
	C958.017395,410.459564 962.909973,404.227386 963.700928,395.994720 
	C964.490051,387.781525 964.256165,379.760529 959.832764,372.230438 
	C952.975403,360.556885 941.283142,355.156860 930.251953,349.047455 
	C922.594482,344.806549 914.273743,341.777985 906.355652,337.985840 
	C903.063904,336.409302 900.230835,334.043884 900.703918,329.787262 
	C901.093689,326.279846 906.224792,321.652496 909.805298,320.984222 
	C920.672058,318.956146 931.301025,320.622681 941.820618,323.132538 
	C945.730286,324.065338 949.427063,325.890717 953.998718,327.599854 
	C953.998718,320.969604 954.055786,315.191711 953.974243,309.415741 
	C953.934692,306.619781 954.443298,303.342560 953.162537,301.207947 
	C952.340881,299.838623 948.699951,300.198547 946.338135,299.709473 
	C930.637329,296.458252 914.991760,294.589661 898.920776,297.859619 
	C888.477478,299.984528 879.225708,304.180603 872.050110,311.666412 
	C861.129395,323.059357 860.700378,338.296783 866.396484,351.594177 
	C870.468933,361.101135 878.410522,367.470520 887.633545,371.808167 
	C897.639771,376.514191 907.955322,380.558563 918.076782,385.025543 
	C922.220764,386.854462 926.153503,389.507324 925.833923,394.579895 
	C925.486633,400.091003 921.706787,402.793549 916.428711,404.434113 
	C905.650391,407.784210 895.224915,405.144012 884.787842,403.272736 
	C878.463074,402.138794 872.324951,399.963684 866.144409,398.267700 
	C865.696838,398.942261 865.197815,399.344818 865.193054,399.753174 
	C865.101868,407.580109 864.856445,415.417847 865.227966,423.225525 
	C865.291565,424.564056 867.899353,426.028046 869.594727,426.951660 
	C870.640686,427.521454 872.212646,427.026581 873.500244,427.267395 
	C887.262695,429.841309 900.977539,431.374207 915.125549,430.226837 
	C928.944763,429.106110 941.534241,425.821198 952.979309,416.550781 
M1104.022949,332.151215 
	C1101.452271,328.050690 1099.000244,323.867188 1096.228394,319.907501 
	C1095.526978,318.905457 1093.822021,318.127289 1092.550293,318.085205 
	C1086.759155,317.893555 1080.958130,318.001160 1073.533325,318.001160 
	C1076.489136,322.697601 1078.771851,326.367676 1081.098511,330.009674 
	C1083.861084,334.334106 1086.583984,338.687012 1089.464966,342.931854 
	C1093.122070,348.319946 1096.738892,353.752716 1100.722534,358.895477 
	C1103.344604,362.280579 1104.795532,365.109772 1101.583130,369.049561 
	C1097.884399,373.585907 1094.615723,378.483643 1091.307617,383.325195 
	C1085.484863,391.847168 1079.707397,400.402039 1074.062134,409.041992 
	C1072.599854,411.280121 1071.698608,413.884979 1070.297241,416.830994 
	C1078.442383,416.830994 1085.554810,416.830994 1091.291748,416.830994 
	C1099.799316,403.678436 1107.831543,391.260834 1116.085938,378.499695 
	C1117.856689,381.061310 1119.363159,383.156860 1120.783081,385.309387 
	C1126.214844,393.543579 1131.562378,401.834045 1137.067383,410.018768 
	C1138.725830,412.484528 1140.534424,416.331573 1142.722900,416.673431 
	C1148.666748,417.601898 1154.850952,416.992065 1161.980225,416.992065 
	C1158.597900,406.212311 1151.253784,398.951050 1145.956665,390.526520 
	C1140.412964,381.709625 1134.542236,373.098419 1128.674072,364.184265 
	C1138.615356,349.406006 1148.941528,334.055511 1159.741211,318.001129 
	C1152.204468,318.001129 1145.887573,317.968842 1139.572021,318.039825 
	C1138.731567,318.049255 1137.500366,318.326935 1137.122192,318.913544 
	C1133.986938,323.778107 1131.103516,328.805237 1127.960693,333.664612 
	C1124.121704,339.600159 1120.105225,345.420746 1116.365356,350.993042 
	C1112.182739,344.688538 1108.265137,338.783630 1104.022949,332.151215 
M1556.022095,357.010742 
	C1557.143921,359.629700 1557.600098,362.985840 1559.520874,364.719757 
	C1564.017212,368.778473 1569.097900,372.187195 1575.427002,373.179596 
	C1577.744141,373.542969 1579.906006,374.834229 1582.171021,375.607635 
	C1585.619019,376.785004 1587.139160,379.621613 1585.765137,382.498352 
	C1584.801270,384.516174 1581.893677,386.444550 1579.594849,386.818573 
	C1574.076050,387.716431 1571.233521,385.177185 1568.197144,378.203430 
	C1563.851074,378.203430 1559.560425,378.203430 1553.795776,378.203430 
	C1555.616089,382.895172 1556.333984,387.598938 1558.906860,390.821869 
	C1565.645142,399.262726 1575.424805,399.917450 1585.292725,398.938538 
	C1592.907104,398.183136 1600.761963,388.915619 1601.033447,381.274963 
	C1601.371216,371.769135 1595.836182,365.720703 1585.348389,362.021606 
	C1581.589722,360.695923 1577.409302,360.193573 1574.062988,358.224854 
	C1572.323853,357.201660 1571.356689,353.821228 1571.285034,351.467773 
	C1571.251343,350.358612 1573.993652,348.647369 1575.752808,348.112671 
	C1579.069580,347.104462 1582.649902,348.241333 1583.679565,351.421021 
	C1585.567017,357.249237 1589.887573,355.913208 1593.904297,355.992249 
	C1595.873047,356.031006 1597.843018,355.998993 1599.802612,355.998993 
	C1600.003540,343.368744 1589.183472,334.959076 1576.841919,335.204712 
	C1565.218262,335.436096 1554.731445,341.709778 1556.022095,357.010742 
M1526.999878,391.423889 
	C1526.999878,385.664948 1526.999878,379.906036 1526.999878,373.769440 
	C1534.034058,373.769440 1540.447632,373.769440 1546.682373,373.769440 
	C1546.682373,369.295105 1546.682373,365.222870 1546.682373,360.765228 
	C1539.955566,360.765228 1533.541016,360.765228 1527.320312,360.765228 
	C1527.320312,356.622437 1527.320312,352.882355 1527.320312,348.758545 
	C1535.714722,348.758545 1543.793335,348.758545 1551.675781,348.758545 
	C1551.675781,344.283264 1551.675781,340.210938 1551.675781,336.323669 
	C1538.946533,336.323669 1526.543457,336.323669 1514.317627,336.323669 
	C1514.317627,357.049103 1514.317627,377.450684 1514.317627,397.678040 
	C1518.714478,397.678040 1522.785278,397.678040 1526.999878,397.678040 
	C1526.999878,395.704712 1526.999878,394.052368 1526.999878,391.423889 
M1627.953247,388.426849 
	C1636.972046,399.475830 1648.866699,400.716644 1661.679688,397.925079 
	C1671.272583,395.835144 1679.449097,386.005829 1679.548950,375.976776 
	C1676.249268,377.116058 1671.960327,377.257477 1670.628296,379.313995 
	C1666.985352,384.939148 1662.951050,389.192017 1656.118408,390.454163 
	C1639.175537,393.583862 1628.058716,380.170654 1630.374512,365.701294 
	C1632.620728,351.666840 1641.802490,344.136169 1657.320557,347.241028 
	C1661.183350,348.013855 1666.088989,350.940094 1667.653931,354.235443 
	C1670.547119,360.327789 1674.494263,360.726196 1679.882812,359.650635 
	C1679.882812,359.001434 1680.080933,358.267456 1679.854126,357.704834 
	C1672.931030,340.531982 1658.951050,335.173035 1642.080444,339.377625 
	C1630.695312,342.215088 1624.951050,351.131592 1621.396240,360.811432 
	C1617.875122,370.399231 1621.301636,379.786194 1627.953247,388.426849 
M1814.903564,396.617096 
	C1816.600342,395.291351 1818.936279,394.306519 1819.862549,392.569794 
	C1821.860352,388.823822 1823.672607,384.812347 1824.595703,380.693207 
	C1826.750854,371.077301 1820.018433,355.346741 1805.808960,356.100769 
	C1800.925293,356.359924 1796.103516,357.786163 1791.080811,358.710999 
	C1791.051758,358.447449 1790.923706,357.286865 1790.814941,356.301178 
	C1787.667847,356.301178 1784.927246,356.301178 1782.260742,356.301178 
	C1782.260742,376.319336 1782.260742,396.035583 1782.260742,415.742035 
	C1785.261963,415.742035 1787.996460,415.742035 1791.109131,415.742035 
	C1791.109131,408.480957 1791.109131,401.467743 1791.109131,394.114899 
	C1798.550049,399.941040 1806.148071,400.463959 1814.903564,396.617096 
M1733.000610,391.500000 
	C1733.000610,399.606262 1733.000610,407.712524 1733.000610,415.712341 
	C1735.976685,415.712341 1738.383789,415.712341 1741.000000,415.712341 
	C1741.000000,411.781830 1741.000000,408.136566 1741.000000,404.491333 
	C1741.000000,400.790314 1741.000000,397.089264 1741.000000,392.857117 
	C1750.403931,401.297180 1761.507568,401.237183 1769.267822,393.835449 
	C1776.769653,386.680023 1781.384766,374.588226 1770.618530,362.322327 
	C1766.914917,358.102905 1762.073364,355.753967 1755.950928,355.858185 
	C1750.129639,355.957275 1745.283081,357.604248 1740.755859,362.557587 
	C1740.755859,359.684723 1740.755859,357.930908 1740.755859,356.284790 
	C1738.035278,356.284790 1735.625000,356.284790 1733.000610,356.284790 
	C1733.000610,367.878601 1733.000610,379.189301 1733.000610,391.500000 
M1832.025269,364.731903 
	C1831.685913,365.455139 1831.469971,366.275513 1830.988647,366.886993 
	C1823.648193,376.211456 1830.293701,393.298584 1840.880737,397.528992 
	C1851.923950,401.941650 1867.601440,396.853302 1869.768311,384.122986 
	C1866.481323,385.071289 1862.881592,385.088165 1860.901855,386.887421 
	C1856.365723,391.010468 1851.132202,392.021515 1845.869873,390.722595 
	C1840.977051,389.514801 1838.114746,385.397369 1837.502808,379.999329 
	C1847.156250,379.999329 1856.636719,379.992981 1866.117188,380.002808 
	C1869.443726,380.006287 1872.600952,379.964203 1870.079346,375.139862 
	C1869.735596,374.482178 1870.066284,373.495728 1869.990845,372.670105 
	C1869.286011,364.949280 1864.855835,359.461853 1857.964355,357.210938 
	C1848.378784,354.080109 1839.137329,355.146515 1832.025269,364.731903 
M1923.484497,361.018158 
	C1922.309082,363.482574 1921.530640,366.260712 1919.879761,368.349426 
	C1915.796265,373.516357 1916.751831,379.451630 1918.413574,384.499115 
	C1921.890625,395.060547 1931.522339,400.310272 1942.973389,398.946045 
	C1949.747437,398.139038 1959.333618,391.638580 1958.682495,384.409180 
	C1955.696167,385.138702 1951.890625,384.935028 1950.134644,386.732971 
	C1946.460083,390.495300 1942.473145,391.269562 1937.667969,391.046692 
	C1931.632446,390.766754 1927.412109,386.445099 1927.490234,379.999298 
	C1932.799805,379.999298 1938.113159,379.999298 1943.426636,379.999298 
	C1948.868774,379.999298 1954.310913,379.999298 1959.665161,379.999298 
	C1961.704956,367.034729 1952.914429,354.956482 1938.086548,355.787933 
	C1932.674438,356.091370 1928.572876,358.524139 1923.484497,361.018158 
M1967.961060,361.564758 
	C1967.341064,362.847565 1966.829712,364.197784 1966.082764,365.401825 
	C1962.211670,371.641266 1961.999023,378.356323 1964.079224,385.061035 
	C1968.931885,400.702087 1988.441162,402.570679 1995.890137,394.658051 
	C1996.065063,394.472168 1996.482910,394.515045 1996.849609,394.438171 
	C1996.968140,395.558228 1997.084839,396.660156 1997.205566,397.801178 
	C1999.766357,397.801178 2002.201294,397.801178 2004.801514,397.801178 
	C2004.801514,383.856659 2004.801514,370.110901 2004.801514,356.182892 
	C2002.169067,356.182892 1999.731323,356.182892 1997.226929,356.182892 
	C1997.066406,357.379639 1996.917725,358.488312 1996.769165,359.596985 
	C1996.604370,359.572662 1996.439697,359.548340 1995.986206,359.481384 
	C1986.667847,353.529053 1977.467285,355.155029 1967.961060,361.564758 
M1723.577637,389.951202 
	C1727.544678,384.011230 1727.779663,377.536743 1726.324707,370.817108 
	C1723.436523,357.479645 1707.714600,352.974365 1696.116699,357.508911 
	C1693.141113,358.672363 1690.066528,360.685669 1688.122681,363.160889 
	C1683.779297,368.691589 1682.644897,375.476685 1684.159790,382.201355 
	C1685.146240,386.580139 1686.794312,391.417786 1689.737671,394.558014 
	C1692.149902,397.131744 1696.837158,397.788666 1700.648682,398.790619 
	C1708.508911,400.857086 1719.112427,396.785278 1723.577637,389.951202 
M1502.000000,361.500000 
	C1502.000000,353.068909 1502.000000,344.637817 1502.000000,336.290466 
	C1497.350342,336.290466 1493.277954,336.290466 1489.285645,336.290466 
	C1489.285645,356.982422 1489.285645,377.383881 1489.285645,397.710510 
	C1493.649414,397.710510 1497.721924,397.710510 1502.000000,397.710510 
	C1502.000000,385.781738 1502.000000,374.140869 1502.000000,361.500000 
M1449.000244,321.644104 
	C1449.000244,353.689636 1449.000244,385.735168 1449.000244,417.747803 
	C1451.250488,417.747803 1452.986816,417.747803 1454.645996,417.747803 
	C1454.645996,384.018280 1454.645996,350.542084 1454.645996,317.161499 
	C1452.669067,317.161499 1451.047485,317.161499 1449.000244,317.161499 
	C1449.000244,318.425690 1449.000244,319.554291 1449.000244,321.644104 
M1884.999634,394.337524 
	C1884.999756,388.022583 1884.619873,381.674438 1885.166748,375.407257 
	C1885.424194,372.458344 1886.721924,368.698914 1888.880249,367.042938 
	C1891.643921,364.922455 1895.750977,364.552795 1900.222534,363.128113 
	C1899.889893,361.719666 1899.811646,357.058502 1898.481934,356.668823 
	C1895.786377,355.879028 1892.394409,357.320709 1889.331055,358.023315 
	C1888.456665,358.223877 1887.748779,359.088226 1886.917358,359.566010 
	C1886.525757,359.790985 1886.022461,359.821381 1885.412720,359.981079 
	C1885.102905,358.567780 1884.817993,357.267914 1884.588989,356.223206 
	C1881.531006,356.223206 1878.927246,356.223206 1876.362061,356.223206 
	C1876.362061,370.280640 1876.362061,384.111938 1876.362061,397.998047 
	C1878.717285,397.998047 1880.769653,398.277893 1882.678955,397.876495 
	C1883.592407,397.684448 1884.234497,396.201111 1884.999634,394.337524 
M1906.528931,336.000092 
	C1903.764771,335.529266 1902.784424,336.573547 1902.935425,339.457489 
	C1903.178345,344.095703 1903.000366,348.755951 1903.000366,353.406891 
	C1903.000366,368.147614 1903.000488,382.888306 1903.000488,397.812561 
	C1905.801270,397.812561 1908.199707,397.812561 1910.998901,397.812561 
	C1910.998901,377.904205 1910.944092,358.180206 1911.055420,338.457123 
	C1911.072998,335.343353 1909.169922,336.069122 1906.528931,336.000092 
M1359.034180,395.157471 
	C1358.688965,389.417908 1358.590698,383.645935 1357.844116,377.959015 
	C1357.627441,376.308929 1355.554443,374.902527 1354.332520,373.384430 
	C1353.888550,373.651550 1353.444702,373.918671 1353.000732,374.185791 
	C1353.000732,393.958160 1352.885376,413.732513 1353.226685,433.498993 
	C1353.253052,435.026672 1356.400879,437.589905 1358.253418,437.738892 
	C1360.968872,437.957245 1363.741821,436.561859 1363.150757,432.508789 
	C1362.537720,428.304810 1362.417603,424.031311 1361.988892,419.797638 
	C1361.184448,411.853882 1360.312866,403.916962 1359.034180,395.157471 
M1383.999878,317.654846 
	C1385.269043,332.461090 1386.538086,347.267334 1387.807251,362.073578 
	C1388.413696,362.093781 1389.020020,362.113983 1389.626465,362.134186 
	C1390.084106,360.528992 1390.891968,358.935120 1390.944092,357.316895 
	C1391.375122,343.951080 1391.726440,330.581879 1391.975708,317.211334 
	C1392.109009,310.061432 1390.687744,309.231201 1383.999756,312.413208 
	C1383.999756,313.778137 1383.999756,315.256714 1383.999878,317.654846 
M1399.160889,381.999786 
	C1392.150391,382.416351 1385.140015,382.832916 1376.786743,383.329254 
	C1378.359131,384.697327 1379.049316,385.827545 1379.863037,385.924896 
	C1389.185303,387.040344 1398.515015,388.163452 1407.875610,388.806427 
	C1409.158081,388.894531 1411.931152,386.094482 1411.719971,385.138275 
	C1411.300781,383.239258 1409.457520,380.506195 1407.885010,380.274475 
	C1405.416748,379.910828 1402.685303,381.332794 1399.160889,381.999786 
M1393.999878,340.383545 
	C1393.611816,343.192169 1393.223633,346.000793 1392.835571,348.809387 
	C1393.267090,349.015411 1393.698730,349.221436 1394.130249,349.427460 
	C1394.981934,348.526398 1396.216064,347.770142 1396.621216,346.700043 
	C1398.713745,341.171417 1400.574097,335.555359 1402.557373,329.984711 
	C1403.474976,327.407288 1403.561768,325.108490 1400.423462,324.146851 
	C1396.863159,323.055908 1395.567383,325.602722 1395.093628,328.260254 
	C1394.436401,331.947815 1394.337769,335.734894 1393.999878,340.383545 
M1396.273071,394.031952 
	C1398.545776,395.228607 1400.711304,396.959900 1403.126831,397.444702 
	C1404.906860,397.802002 1408.158325,397.083832 1408.742920,395.873505 
	C1410.066040,393.133698 1408.293335,390.624268 1405.275879,390.202484 
	C1400.630371,389.553162 1395.906738,389.462891 1391.216187,389.135437 
	C1390.949097,389.566376 1390.682129,389.997345 1390.415039,390.428314 
	C1392.101562,391.618652 1393.788208,392.808990 1396.273071,394.031952 
M1413.441895,373.956970 
	C1412.848511,373.309540 1412.075928,372.007935 1411.688843,372.113983 
	C1406.793335,373.455353 1401.935669,374.947266 1397.130859,376.584442 
	C1396.717285,376.725372 1396.436401,378.279938 1396.677368,378.975708 
	C1396.853516,379.484253 1398.006714,379.973572 1398.692627,379.933167 
	C1402.411133,379.714233 1406.221191,379.726685 1409.786743,378.821014 
	C1411.427612,378.404205 1412.583008,376.076050 1413.441895,373.956970 
z"/>
<path fill="#FFFFFF" opacity="1.000000" stroke="none" 
	d="
M2038.000000,363.555847 
	C2034.520752,364.000000 2031.041504,364.000000 2027.166260,364.000000 
	C2027.166260,375.271149 2027.166260,386.352722 2027.166260,397.714447 
	C2024.045776,397.714447 2021.307007,397.714447 2018.162598,397.714447 
	C2018.162598,386.722687 2018.162598,375.640259 2018.162598,364.215881 
	C2015.376709,364.087128 2012.963989,363.975647 2010.277832,363.851532 
	C2010.277832,361.386047 2010.277832,358.974060 2010.277832,356.186462 
	C2012.611450,356.083801 2015.030640,355.977386 2017.481567,355.869598 
	C2017.994507,352.119080 2018.489868,348.444183 2019.000854,344.771423 
	C2019.931030,338.086182 2027.140137,333.539642 2033.855347,335.365814 
	C2034.932495,335.658783 2036.052856,335.792725 2037.576660,336.000092 
	C2038.000000,338.370575 2038.000000,340.741119 2037.610718,343.434631 
	C2027.923218,341.292999 2025.327026,344.555359 2027.644287,356.000000 
	C2031.072510,356.000000 2034.536255,356.000000 2038.000000,356.000000 
	C2038.000000,358.370575 2038.000000,360.741119 2038.000000,363.555847 
z"/>
<path fill="#000000" opacity="1.000000" stroke="none" 
	d="
M2038.000000,355.539368 
	C2034.536255,356.000000 2031.072510,356.000000 2027.644287,356.000000 
	C2025.327026,344.555359 2027.923218,341.292999 2037.610718,343.878784 
	C2038.000000,347.692902 2038.000000,351.385834 2038.000000,355.539368 
z"/>
<path fill="#009999" opacity="1.000000" stroke="none" 
	d="
M496.295227,353.777222 
	C499.304688,361.244385 502.111237,368.372253 505.137634,376.058411 
	C509.779968,364.903656 514.092712,354.462830 518.467468,344.048065 
	C524.281677,330.206390 530.085938,316.359711 536.071411,302.592072 
	C536.705872,301.132751 538.507507,299.180908 539.796265,299.159180 
	C554.271667,298.915192 568.752808,299.004883 583.604858,299.004883 
	C583.604858,341.944824 583.604858,384.645935 583.604858,427.673889 
	C571.259460,427.673889 558.884338,427.673889 546.165039,427.673889 
	C546.165039,401.246582 546.165039,374.988861 546.165039,347.385773 
	C540.076843,361.440735 534.514648,374.227661 528.997009,387.033844 
	C523.295959,400.265747 517.579163,413.491638 512.019165,426.782837 
	C511.076233,429.036804 510.095978,430.150299 507.453583,430.047150 
	C501.798370,429.826416 496.120422,430.145935 490.470276,429.868011 
	C489.044128,429.797821 486.930176,428.633423 486.414581,427.424835 
	C480.154480,412.750671 474.107666,397.985046 468.060364,383.220642 
	C463.221344,371.406219 458.457489,359.561005 452.954712,347.857269 
	C452.954712,374.380463 452.954712,400.903687 452.954712,427.710968 
	C443.975403,427.710968 435.381409,427.710968 426.392456,427.710968 
	C426.392456,385.075684 426.392456,342.376190 426.392456,299.000885 
	C428.918182,299.000885 431.514954,299.000885 434.111694,299.000885 
	C446.105774,299.000916 458.101196,299.098755 470.092926,298.930786 
	C473.011261,298.889893 474.722778,299.760468 475.791382,302.460663 
	C482.521820,319.467560 489.317932,336.448456 496.295227,353.777222 
z"/>
<path fill="#009999" opacity="1.000000" stroke="none" 
	d="
M813.001038,341.000000 
	C813.001038,326.869415 813.001038,313.238831 813.001038,299.306366 
	C821.986694,299.306366 830.583557,299.306366 839.591553,299.306366 
	C839.591553,341.900757 839.591553,384.609009 839.591553,427.998932 
	C835.926880,427.998932 832.160278,427.998962 828.393616,427.998962 
	C819.728699,427.998932 811.058960,427.832275 802.401306,428.083740 
	C799.101868,428.179535 797.355652,427.012085 795.833740,424.198181 
	C782.218384,399.024231 768.480713,373.916412 754.233337,347.788361 
	C754.233337,374.957031 754.233337,401.090607 754.233337,427.610229 
	C745.062988,427.610229 736.348633,427.610229 727.314392,427.610229 
	C727.314392,384.908417 727.314392,342.200867 727.314392,299.007172 
	C740.965637,299.007172 754.418518,298.935822 767.867554,299.130615 
	C769.056519,299.147858 770.640503,300.664215 771.330933,301.885681 
	C778.312439,314.237213 785.158020,326.665710 792.017517,339.086029 
	C798.844238,351.447021 805.643127,363.823364 813.001038,377.186096 
	C813.001038,364.602936 813.001038,353.051483 813.001038,341.000000 
z"/>
<path fill="#009999" opacity="1.000000" stroke="none" 
	d="
M309.952972,387.000000 
	C309.952972,357.547363 309.952972,328.594727 309.952972,299.322784 
	C341.716736,299.322784 372.966553,299.322784 404.608765,299.322784 
	C404.608765,307.263031 404.608765,315.307220 404.608765,323.765320 
	C386.337708,323.765320 368.075348,323.765320 349.407471,323.765320 
	C349.407471,332.883362 349.407471,341.608582 349.407471,350.089722 
	C364.418732,350.089722 379.510376,350.009888 394.597015,350.247894 
	C395.748840,350.266052 397.778473,352.485809 397.844269,353.762421 
	C398.178101,360.236938 397.998047,366.737946 397.998047,373.781769 
	C381.787140,373.781769 365.731506,373.781769 349.341003,373.781769 
	C349.341003,383.376068 349.341003,392.421936 349.341003,401.905212 
	C368.398254,401.905212 387.322723,401.905212 406.633942,401.905212 
	C406.633942,410.705200 406.633942,419.080780 406.633942,427.730347 
	C374.672455,427.730347 342.751801,427.730347 309.952972,427.730347 
	C309.952972,414.321533 309.952972,400.910767 309.952972,387.000000 
z"/>
<path fill="#009999" opacity="1.000000" stroke="none" 
	d="
M698.984985,371.737335 
	C697.341309,372.809540 695.714478,373.910156 694.077454,373.925537 
	C679.607117,374.061279 665.135010,374.004364 650.332886,374.004364 
	C650.332886,383.389771 650.332886,392.436066 650.332886,401.896637 
	C669.417297,401.896637 688.346375,401.896637 707.630981,401.896637 
	C707.630981,410.679718 707.630981,419.058380 707.630981,427.720398 
	C675.941223,427.720398 644.349548,427.720398 612.378540,427.720398 
	C612.378540,385.039337 612.378540,342.329651 612.378540,299.309631 
	C643.314026,299.309631 674.240662,299.309631 705.583862,299.309631 
	C705.583862,307.211456 705.583862,315.257812 705.583862,323.895294 
	C687.266785,323.895294 668.881592,323.895294 650.253418,323.895294 
	C650.253418,333.076355 650.253418,341.676178 650.253418,350.096863 
	C665.379517,350.096863 680.458557,350.122253 695.537476,350.075470 
	C698.554504,350.066101 699.067993,351.743256 699.027649,354.265564 
	C698.937134,359.929932 698.997925,365.596741 698.984985,371.737335 
z"/>
<path fill="#009999" opacity="1.000000" stroke="none" 
	d="
M205.955597,299.012329 
	C207.998810,299.348816 209.661270,300.127197 211.188843,299.918427 
	C216.465256,299.197296 217.249084,301.910706 217.069809,306.323242 
	C216.794083,313.109497 216.997284,319.915253 216.997284,327.204803 
	C210.665237,325.331940 204.992859,322.804108 199.104706,322.111969 
	C190.282944,321.074982 181.287994,320.838257 172.409622,321.231140 
	C167.751892,321.437225 163.758423,325.525177 163.533600,329.847443 
	C163.393967,332.532135 167.005112,336.473083 169.910736,338.064240 
	C180.347000,343.779236 191.226013,348.680939 201.886108,353.993469 
	C210.223862,358.148712 217.368301,363.790497 222.266861,371.841858 
	C229.362610,383.504517 228.151657,403.098969 218.195877,413.534882 
	C207.488831,424.758179 194.345001,428.685059 179.551529,430.125458 
	C164.615005,431.579803 150.070343,429.991852 135.489227,427.103943 
	C128.049744,425.630493 127.976196,425.948914 128.002670,418.201782 
	C128.024277,411.873627 128.068878,405.545471 128.131287,399.217590 
	C128.134171,398.926239 128.412125,398.637604 128.710953,398.059418 
	C135.028381,399.824982 141.322144,402.097290 147.814407,403.281219 
	C158.235016,405.181610 168.659454,407.859619 179.407654,404.320343 
	C186.807114,401.883789 188.479645,398.712891 188.620148,394.308014 
	C188.772980,389.516113 184.916779,386.705536 180.529495,384.829254 
	C169.311096,380.031403 157.814453,375.714417 147.090698,369.970062 
	C131.577698,361.660278 123.348282,346.709534 126.533585,329.098938 
	C130.054993,309.630096 144.368759,302.139709 161.565079,298.032867 
	C176.287827,294.516785 190.922867,295.983490 205.955597,299.012329 
z"/>
<path fill="#009999" opacity="1.000000" stroke="none" 
	d="
M952.676514,416.751740 
	C941.534241,425.821198 928.944763,429.106110 915.125549,430.226837 
	C900.977539,431.374207 887.262695,429.841309 873.500244,427.267395 
	C872.212646,427.026581 870.640686,427.521454 869.594727,426.951660 
	C867.899353,426.028046 865.291565,424.564056 865.227966,423.225525 
	C864.856445,415.417847 865.101868,407.580109 865.193054,399.753174 
	C865.197815,399.344818 865.696838,398.942261 866.144409,398.267700 
	C872.324951,399.963684 878.463074,402.138794 884.787842,403.272736 
	C895.224915,405.144012 905.650391,407.784210 916.428711,404.434113 
	C921.706787,402.793549 925.486633,400.091003 925.833923,394.579895 
	C926.153503,389.507324 922.220764,386.854462 918.076782,385.025543 
	C907.955322,380.558563 897.639771,376.514191 887.633545,371.808167 
	C878.410522,367.470520 870.468933,361.101135 866.396484,351.594177 
	C860.700378,338.296783 861.129395,323.059357 872.050110,311.666412 
	C879.225708,304.180603 888.477478,299.984528 898.920776,297.859619 
	C914.991760,294.589661 930.637329,296.458252 946.338135,299.709473 
	C948.699951,300.198547 952.340881,299.838623 953.162537,301.207947 
	C954.443298,303.342560 953.934692,306.619781 953.974243,309.415741 
	C954.055786,315.191711 953.998718,320.969604 953.998718,327.599854 
	C949.427063,325.890717 945.730286,324.065338 941.820618,323.132538 
	C931.301025,320.622681 920.672058,318.956146 909.805298,320.984222 
	C906.224792,321.652496 901.093689,326.279846 900.703918,329.787262 
	C900.230835,334.043884 903.063904,336.409302 906.355652,337.985840 
	C914.273743,341.777985 922.594482,344.806549 930.251953,349.047455 
	C941.283142,355.156860 952.975403,360.556885 959.832764,372.230438 
	C964.256165,379.760529 964.490051,387.781525 963.700928,395.994720 
	C962.909973,404.227386 958.017395,410.459564 952.676514,416.751740 
z"/>
<path fill="#009999" opacity="1.000000" stroke="none" 
	d="
M282.866669,300.966003 
	C282.926666,327.720062 283.001343,354.474091 283.040863,381.228180 
	C283.062469,395.853516 283.024567,410.478943 282.793060,425.644043 
	C282.345245,426.492981 282.416534,426.746429 282.786530,426.944183 
	C281.957733,427.295441 281.130554,427.948181 280.299866,427.952667 
	C268.147491,428.018555 255.994614,427.997986 243.421631,427.997986 
	C243.421631,385.135284 243.421631,342.448486 243.421631,299.305573 
	C256.304810,299.305573 269.365265,299.305573 282.472168,299.776306 
	C282.356537,300.589020 282.472534,300.828674 282.866669,300.966003 
z"/>
<path fill="#FFFFFF" opacity="1.000000" stroke="none" 
	d="
M1104.185303,332.514954 
	C1108.265137,338.783630 1112.182739,344.688538 1116.365356,350.993042 
	C1120.105225,345.420746 1124.121704,339.600159 1127.960693,333.664612 
	C1131.103516,328.805237 1133.986938,323.778107 1137.122192,318.913544 
	C1137.500366,318.326935 1138.731567,318.049255 1139.572021,318.039825 
	C1145.887573,317.968842 1152.204468,318.001129 1159.741211,318.001129 
	C1148.941528,334.055511 1138.615356,349.406006 1128.674072,364.184265 
	C1134.542236,373.098419 1140.412964,381.709625 1145.956665,390.526520 
	C1151.253784,398.951050 1158.597900,406.212311 1161.980225,416.992065 
	C1154.850952,416.992065 1148.666748,417.601898 1142.722900,416.673431 
	C1140.534424,416.331573 1138.725830,412.484528 1137.067383,410.018768 
	C1131.562378,401.834045 1126.214844,393.543579 1120.783081,385.309387 
	C1119.363159,383.156860 1117.856689,381.061310 1116.085938,378.499695 
	C1107.831543,391.260834 1099.799316,403.678436 1091.291748,416.830994 
	C1085.554810,416.830994 1078.442383,416.830994 1070.297241,416.830994 
	C1071.698608,413.884979 1072.599854,411.280121 1074.062134,409.041992 
	C1079.707397,400.402039 1085.484863,391.847168 1091.307617,383.325195 
	C1094.615723,378.483643 1097.884399,373.585907 1101.583130,369.049561 
	C1104.795532,365.109772 1103.344604,362.280579 1100.722534,358.895477 
	C1096.738892,353.752716 1093.122070,348.319946 1089.464966,342.931854 
	C1086.583984,338.687012 1083.861084,334.334106 1081.098511,330.009674 
	C1078.771851,326.367676 1076.489136,322.697601 1073.533325,318.001160 
	C1080.958130,318.001160 1086.759155,317.893555 1092.550293,318.085205 
	C1093.822021,318.127289 1095.526978,318.905457 1096.228394,319.907501 
	C1099.000244,323.867188 1101.452271,328.050690 1104.185303,332.514954 
z"/>
<path fill="#FFFFFF" opacity="1.000000" stroke="none" 
	d="
M1556.012085,356.572357 
	C1554.731445,341.709778 1565.218262,335.436096 1576.841919,335.204712 
	C1589.183472,334.959076 1600.003540,343.368744 1599.802612,355.998993 
	C1597.843018,355.998993 1595.873047,356.031006 1593.904297,355.992249 
	C1589.887573,355.913208 1585.567017,357.249237 1583.679565,351.421021 
	C1582.649902,348.241333 1579.069580,347.104462 1575.752808,348.112671 
	C1573.993652,348.647369 1571.251343,350.358612 1571.285034,351.467773 
	C1571.356689,353.821228 1572.323853,357.201660 1574.062988,358.224854 
	C1577.409302,360.193573 1581.589722,360.695923 1585.348389,362.021606 
	C1595.836182,365.720703 1601.371216,371.769135 1601.033447,381.274963 
	C1600.761963,388.915619 1592.907104,398.183136 1585.292725,398.938538 
	C1575.424805,399.917450 1565.645142,399.262726 1558.906860,390.821869 
	C1556.333984,387.598938 1555.616089,382.895172 1553.795776,378.203430 
	C1559.560425,378.203430 1563.851074,378.203430 1568.197144,378.203430 
	C1571.233521,385.177185 1574.076050,387.716431 1579.594849,386.818573 
	C1581.893677,386.444550 1584.801270,384.516174 1585.765137,382.498352 
	C1587.139160,379.621613 1585.619019,376.785004 1582.171021,375.607635 
	C1579.906006,374.834229 1577.744141,373.542969 1575.427002,373.179596 
	C1569.097900,372.187195 1564.017212,368.778473 1559.520874,364.719757 
	C1557.600098,362.985840 1557.143921,359.629700 1556.012085,356.572357 
z"/>
<path fill="#FFFFFF" opacity="1.000000" stroke="none" 
	d="
M1526.999878,391.911957 
	C1526.999878,394.052368 1526.999878,395.704712 1526.999878,397.678040 
	C1522.785278,397.678040 1518.714478,397.678040 1514.317627,397.678040 
	C1514.317627,377.450684 1514.317627,357.049103 1514.317627,336.323669 
	C1526.543457,336.323669 1538.946533,336.323669 1551.675781,336.323669 
	C1551.675781,340.210938 1551.675781,344.283264 1551.675781,348.758545 
	C1543.793335,348.758545 1535.714722,348.758545 1527.320312,348.758545 
	C1527.320312,352.882355 1527.320312,356.622437 1527.320312,360.765228 
	C1533.541016,360.765228 1539.955566,360.765228 1546.682373,360.765228 
	C1546.682373,365.222870 1546.682373,369.295105 1546.682373,373.769440 
	C1540.447632,373.769440 1534.034058,373.769440 1526.999878,373.769440 
	C1526.999878,379.906036 1526.999878,385.664948 1526.999878,391.911957 
z"/>
<path fill="#FFFFFF" opacity="1.000000" stroke="none" 
	d="
M1627.679443,388.182068 
	C1621.301636,379.786194 1617.875122,370.399231 1621.396240,360.811432 
	C1624.951050,351.131592 1630.695312,342.215088 1642.080444,339.377625 
	C1658.951050,335.173035 1672.931030,340.531982 1679.854126,357.704834 
	C1680.080933,358.267456 1679.882812,359.001434 1679.882812,359.650635 
	C1674.494263,360.726196 1670.547119,360.327789 1667.653931,354.235443 
	C1666.088989,350.940094 1661.183350,348.013855 1657.320557,347.241028 
	C1641.802490,344.136169 1632.620728,351.666840 1630.374512,365.701294 
	C1628.058716,380.170654 1639.175537,393.583862 1656.118408,390.454163 
	C1662.951050,389.192017 1666.985352,384.939148 1670.628296,379.313995 
	C1671.960327,377.257477 1676.249268,377.116058 1679.548950,375.976776 
	C1679.449097,386.005829 1671.272583,395.835144 1661.679688,397.925079 
	C1648.866699,400.716644 1636.972046,399.475830 1627.679443,388.182068 
z"/>
<path fill="#FFFFFF" opacity="1.000000" stroke="none" 
	d="
M1814.546387,396.799500 
	C1806.148071,400.463959 1798.550049,399.941040 1791.109131,394.114899 
	C1791.109131,401.467743 1791.109131,408.480957 1791.109131,415.742035 
	C1787.996460,415.742035 1785.261963,415.742035 1782.260742,415.742035 
	C1782.260742,396.035583 1782.260742,376.319336 1782.260742,356.301178 
	C1784.927246,356.301178 1787.667847,356.301178 1790.814941,356.301178 
	C1790.923706,357.286865 1791.051758,358.447449 1791.080811,358.710999 
	C1796.103516,357.786163 1800.925293,356.359924 1805.808960,356.100769 
	C1820.018433,355.346741 1826.750854,371.077301 1824.595703,380.693207 
	C1823.672607,384.812347 1821.860352,388.823822 1819.862549,392.569794 
	C1818.936279,394.306519 1816.600342,395.291351 1814.546387,396.799500 
M1793.988281,367.518860 
	C1792.703369,369.894104 1790.963501,372.136536 1790.223755,374.670898 
	C1788.406860,380.896088 1793.725342,390.225677 1799.429565,390.948181 
	C1808.965942,392.156006 1816.630005,388.413422 1816.109619,376.754822 
	C1815.863770,371.244202 1813.775879,367.107941 1809.124268,364.754639 
	C1804.004028,362.164215 1798.884399,362.873016 1793.988281,367.518860 
z"/>
<path fill="#FFFFFF" opacity="1.000000" stroke="none" 
	d="
M1338.245117,372.023438 
	C1321.466431,383.219086 1304.635986,394.338562 1287.953003,405.674927 
	C1284.624146,407.936890 1280.868774,408.939056 1278.356689,406.354431 
	C1276.469727,404.413086 1276.443726,400.422150 1276.170654,397.292908 
	C1276.083252,396.291626 1277.637939,394.703125 1278.809937,394.102173 
	C1297.434082,384.553070 1316.118164,375.120880 1334.582397,364.928741 
	C1324.570190,365.535217 1315.531250,369.872742 1306.211670,373.016388 
	C1296.968628,376.134186 1287.858521,379.645966 1278.354370,382.546936 
	C1279.887695,380.728485 1281.565430,378.822723 1283.659546,378.059753 
	C1292.209717,374.944550 1300.881714,372.162201 1309.519531,369.289276 
	C1316.533325,366.956482 1323.562256,364.669403 1330.584351,362.362061 
	C1329.841309,361.359558 1329.215088,361.019287 1328.665283,361.115417 
	C1320.386597,362.562195 1312.138184,364.195190 1303.836914,365.492462 
	C1300.601440,365.998108 1297.252563,365.778046 1293.955322,365.888550 
	C1302.971313,363.926331 1311.971191,361.885315 1321.009155,360.030640 
	C1326.683228,358.866302 1332.671753,358.696472 1338.045166,356.763123 
	C1343.043823,354.964661 1342.891357,357.682190 1343.282471,361.247528 
	C1347.048828,359.420624 1350.510498,357.508850 1354.164551,356.093536 
	C1355.463989,355.590271 1357.230591,356.292847 1358.783936,356.444916 
	C1358.046753,357.614990 1357.523682,359.029938 1356.526367,359.902649 
	C1354.612671,361.577240 1352.430054,362.944153 1350.680420,364.715179 
	C1351.001831,364.991699 1351.084961,364.904327 1351.084961,364.904327 
	C1347.003540,367.172882 1342.922241,369.441467 1338.519287,371.915894 
	C1338.197632,372.121765 1338.245117,372.023438 1338.245117,372.023438 
z"/>
<path fill="#FFFFFF" opacity="1.000000" stroke="none" 
	d="
M1733.000610,391.000000 
	C1733.000610,379.189301 1733.000610,367.878601 1733.000610,356.284790 
	C1735.625000,356.284790 1738.035278,356.284790 1740.755859,356.284790 
	C1740.755859,357.930908 1740.755859,359.684723 1740.755859,362.557587 
	C1745.283081,357.604248 1750.129639,355.957275 1755.950928,355.858185 
	C1762.073364,355.753967 1766.914917,358.102905 1770.618530,362.322327 
	C1781.384766,374.588226 1776.769653,386.680023 1769.267822,393.835449 
	C1761.507568,401.237183 1750.403931,401.297180 1741.000000,392.857117 
	C1741.000000,397.089264 1741.000000,400.790314 1741.000000,404.491333 
	C1741.000000,408.136566 1741.000000,411.781830 1741.000000,415.712341 
	C1738.383789,415.712341 1735.976685,415.712341 1733.000610,415.712341 
	C1733.000610,407.712524 1733.000610,399.606262 1733.000610,391.000000 
M1764.658813,368.129761 
	C1760.104980,362.382996 1751.813110,362.167938 1746.495605,365.981354 
	C1739.786133,370.793121 1739.387329,378.112732 1744.892456,386.748444 
	C1748.487305,392.387421 1760.411499,392.380859 1764.156616,386.720154 
	C1768.160034,380.669067 1767.530518,374.934509 1764.658813,368.129761 
z"/>
<path fill="#FFFFFF" opacity="1.000000" stroke="none" 
	d="
M1832.216553,364.402100 
	C1839.137329,355.146515 1848.378784,354.080109 1857.964355,357.210938 
	C1864.855835,359.461853 1869.286011,364.949280 1869.990845,372.670105 
	C1870.066284,373.495728 1869.735596,374.482178 1870.079346,375.139862 
	C1872.600952,379.964203 1869.443726,380.006287 1866.117188,380.002808 
	C1856.636719,379.992981 1847.156250,379.999329 1837.502808,379.999329 
	C1838.114746,385.397369 1840.977051,389.514801 1845.869873,390.722595 
	C1851.132202,392.021515 1856.365723,391.010468 1860.901855,386.887421 
	C1862.881592,385.088165 1866.481323,385.071289 1869.768311,384.122986 
	C1867.601440,396.853302 1851.923950,401.941650 1840.880737,397.528992 
	C1830.293701,393.298584 1823.648193,376.211456 1830.988647,366.886993 
	C1831.469971,366.275513 1831.685913,365.455139 1832.216553,364.402100 
M1841.557739,365.964691 
	C1840.190552,368.016632 1838.823364,370.068542 1837.047974,372.733276 
	C1845.754761,372.733276 1853.291626,372.733276 1860.990723,372.733276 
	C1860.925903,371.807281 1861.045776,371.089264 1860.809937,370.518372 
	C1857.740234,363.091095 1851.057739,361.272644 1841.557739,365.964691 
z"/>
<path fill="#FFFFFF" opacity="1.000000" stroke="none" 
	d="
M1923.756104,360.744843 
	C1928.572876,358.524139 1932.674438,356.091370 1938.086548,355.787933 
	C1952.914429,354.956482 1961.704956,367.034729 1959.665161,379.999298 
	C1954.310913,379.999298 1948.868774,379.999298 1943.426636,379.999298 
	C1938.113159,379.999298 1932.799805,379.999298 1927.490234,379.999298 
	C1927.412109,386.445099 1931.632446,390.766754 1937.667969,391.046692 
	C1942.473145,391.269562 1946.460083,390.495300 1950.134644,386.732971 
	C1951.890625,384.935028 1955.696167,385.138702 1958.682495,384.409180 
	C1959.333618,391.638580 1949.747437,398.139038 1942.973389,398.946045 
	C1931.522339,400.310272 1921.890625,395.060547 1918.413574,384.499115 
	C1916.751831,379.451630 1915.796265,373.516357 1919.879761,368.349426 
	C1921.530640,366.260712 1922.309082,363.482574 1923.756104,360.744843 
M1946.897461,365.373749 
	C1936.629517,360.947357 1930.389771,363.225342 1927.160400,372.775757 
	C1935.068115,372.775757 1942.901733,372.775757 1951.526489,372.775757 
	C1949.992676,370.222382 1948.711792,368.089966 1946.897461,365.373749 
z"/>
<path fill="#FFFFFF" opacity="1.000000" stroke="none" 
	d="
M1968.226562,361.285400 
	C1977.467285,355.155029 1986.667847,353.529053 1995.986206,359.481384 
	C1996.439697,359.548340 1996.604370,359.572662 1996.769043,359.596985 
	C1996.917725,358.488312 1997.066406,357.379639 1997.226929,356.182892 
	C1999.731323,356.182892 2002.169067,356.182892 2004.801514,356.182892 
	C2004.801514,370.110901 2004.801514,383.856659 2004.801514,397.801178 
	C2002.201294,397.801178 1999.766357,397.801178 1997.205566,397.801178 
	C1997.084839,396.660156 1996.968140,395.558228 1996.849609,394.438171 
	C1996.482910,394.515045 1996.065063,394.472168 1995.890137,394.658051 
	C1988.441162,402.570679 1968.931885,400.702087 1964.079224,385.061035 
	C1961.999023,378.356323 1962.211670,371.641266 1966.082764,365.401825 
	C1966.829712,364.197784 1967.341064,362.847565 1968.226562,361.285400 
M1989.934326,364.414001 
	C1987.166626,364.273315 1984.291748,363.580536 1981.651123,364.093750 
	C1973.173096,365.741272 1969.592041,372.783447 1972.002563,382.294312 
	C1973.690918,388.955994 1981.843872,393.170776 1989.280029,390.819214 
	C1993.894287,389.360107 2000.584473,380.393677 1997.024658,373.606689 
	C1995.373291,370.458191 1992.741821,367.823792 1989.934326,364.414001 
z"/>
<path fill="#FFFFFF" opacity="1.000000" stroke="none" 
	d="
M1365.939453,347.928131 
	C1366.697144,352.352356 1364.253662,353.853821 1360.366699,353.995728 
	C1350.951050,354.339447 1341.531372,354.589691 1332.119751,355.018829 
	C1319.115723,355.611725 1306.117554,356.333282 1293.116943,357.001953 
	C1286.699829,357.331970 1280.285034,357.718170 1273.865356,357.983704 
	C1268.601318,358.201477 1268.322998,353.883423 1268.174805,350.564087 
	C1268.030396,347.333130 1269.272461,343.849640 1273.692505,344.027985 
	C1288.362305,344.619965 1303.027954,345.318726 1317.694092,345.999268 
	C1324.279175,346.304810 1330.859619,346.714172 1337.445923,346.987091 
	C1346.690674,347.370239 1355.938843,347.670074 1365.600342,348.003479 
	C1366.015137,348.001373 1365.939453,347.928131 1365.939453,347.928131 
z"/>
<path fill="#FFFFFF" opacity="1.000000" stroke="none" 
	d="
M1723.311768,390.229614 
	C1719.112427,396.785278 1708.508911,400.857086 1700.648682,398.790619 
	C1696.837158,397.788666 1692.149902,397.131744 1689.737671,394.558014 
	C1686.794312,391.417786 1685.146240,386.580139 1684.159790,382.201355 
	C1682.644897,375.476685 1683.779297,368.691589 1688.122681,363.160889 
	C1690.066528,360.685669 1693.141113,358.672363 1696.116699,357.508911 
	C1707.714600,352.974365 1723.436523,357.479645 1726.324707,370.817108 
	C1727.779663,377.536743 1727.544678,384.011230 1723.311768,390.229614 
M1718.796143,381.725220 
	C1718.864136,380.401245 1718.772217,379.045502 1719.027710,377.758759 
	C1720.126709,372.225647 1714.256836,365.140228 1709.973145,364.042603 
	C1703.328369,362.339996 1696.932739,365.083435 1693.593750,370.879272 
	C1689.830688,377.411560 1692.466675,387.457397 1699.520508,389.964874 
	C1707.173706,392.685547 1714.383545,392.123077 1718.796143,381.725220 
z"/>
<path fill="#FFFFFF" opacity="1.000000" stroke="none" 
	d="
M1368.896118,336.371826 
	C1361.204102,325.352936 1353.444580,314.379944 1345.877075,303.276093 
	C1344.376709,301.074707 1342.009277,298.759369 1344.050049,295.543396 
	C1346.392700,291.851868 1351.287109,292.035431 1353.400269,295.893311 
	C1360.609375,309.054718 1367.835083,322.207092 1375.086182,335.345398 
	C1375.270752,335.679962 1375.822632,335.811859 1377.455322,336.783051 
	C1376.377930,332.614502 1375.793213,329.446350 1374.734009,326.445679 
	C1372.600220,320.400238 1370.159424,314.463776 1367.957397,308.441315 
	C1367.416504,306.962341 1366.735474,305.152893 1367.142334,303.804077 
	C1367.672729,302.046265 1368.941040,299.813599 1370.429443,299.277405 
	C1371.495117,298.893433 1374.257812,300.616943 1374.838013,301.998657 
	C1376.311035,305.506805 1377.120850,309.320862 1377.949097,313.067108 
	C1380.311768,323.753510 1382.551270,334.467163 1384.920166,345.548645 
	C1383.846924,345.761322 1382.653564,345.997772 1381.608276,346.204895 
	C1382.380737,348.919281 1383.168457,351.687775 1383.956299,354.456268 
	C1383.392822,354.681000 1382.829468,354.905731 1382.265991,355.130493 
	C1379.668701,351.859772 1377.071289,348.589081 1374.207397,345.646667 
	C1373.940796,345.974945 1374.028198,346.078094 1374.333374,345.781189 
	C1372.761841,342.462280 1370.885010,339.440247 1368.956299,336.403259 
	C1368.904419,336.388275 1368.896118,336.371857 1368.896118,336.371826 
z"/>
<path fill="#FFFFFF" opacity="1.000000" stroke="none" 
	d="
M1502.000000,362.000000 
	C1502.000000,374.140869 1502.000000,385.781738 1502.000000,397.710510 
	C1497.721924,397.710510 1493.649414,397.710510 1489.285645,397.710510 
	C1489.285645,377.383881 1489.285645,356.982422 1489.285645,336.290466 
	C1493.277954,336.290466 1497.350342,336.290466 1502.000000,336.290466 
	C1502.000000,344.637817 1502.000000,353.068909 1502.000000,362.000000 
z"/>
<path fill="#FFFFFF" opacity="1.000000" stroke="none" 
	d="
M1368.556519,336.726868 
	C1368.896118,336.371857 1368.904419,336.388275 1368.557129,336.708191 
	C1370.240601,340.252472 1368.045898,341.129700 1364.767212,341.410065 
	C1368.378784,343.230499 1371.203491,344.654297 1374.028198,346.078125 
	C1374.028198,346.078094 1373.940796,345.974945 1373.889160,345.931152 
	C1373.990967,347.324768 1374.144531,348.762207 1374.297974,350.199585 
	C1372.900391,349.994049 1371.465088,349.922882 1370.116699,349.542633 
	C1368.924438,349.206451 1367.829346,348.526001 1366.315430,347.962830 
	C1365.939453,347.928131 1366.015137,348.001373 1366.057007,348.035522 
	C1359.290527,343.717957 1352.140015,340.184387 1344.464966,337.904816 
	C1344.276611,338.321259 1344.088257,338.737732 1343.900024,339.154175 
	C1345.682373,339.998718 1347.544556,340.711975 1349.220825,341.731018 
	C1350.473877,342.492737 1351.487183,343.648987 1352.607178,344.629608 
	C1352.304077,345.195770 1352.000977,345.761963 1351.697754,346.328125 
	C1344.575806,345.161530 1337.453735,343.994965 1330.365234,342.181824 
	C1331.611572,341.013031 1332.824219,340.490753 1334.692139,339.686340 
	C1331.681641,337.526001 1329.340942,335.846405 1327.000366,334.166748 
	C1331.496216,335.475983 1335.992065,336.785217 1341.081665,338.267365 
	C1340.835083,333.912140 1337.306885,334.135437 1335.312988,332.160461 
	C1336.741699,331.774658 1338.248657,331.716125 1339.464844,332.282074 
	C1344.024048,334.403503 1348.511108,336.684998 1352.979370,338.995117 
	C1355.451538,340.273254 1357.128296,340.364746 1357.040161,336.883240 
	C1357.811035,336.883240 1358.582031,336.883240 1360.769287,336.883240 
	C1353.087524,330.434296 1346.349243,324.822845 1339.663452,319.149597 
	C1334.755493,314.984802 1329.912354,310.743500 1325.050049,306.525055 
	C1324.179321,305.769531 1323.466919,304.482697 1322.491821,304.255798 
	C1318.009033,303.212585 1318.449463,299.911865 1319.551270,297.104706 
	C1320.897339,293.675507 1325.206787,292.698364 1328.320190,295.205811 
	C1332.051025,298.210510 1335.381226,301.750061 1338.667969,305.261169 
	C1346.012939,313.107758 1353.208862,321.093750 1360.496460,328.994415 
	C1363.022949,331.733521 1365.640747,334.388458 1368.556519,336.726868 
M1362.120728,339.643250 
	C1362.660522,339.683533 1363.200317,339.723785 1363.740112,339.764038 
	C1363.425049,339.324432 1363.109985,338.884796 1362.292847,337.865479 
	C1361.489868,337.589447 1360.686890,337.313416 1359.884033,337.037384 
	C1359.780273,337.384766 1359.676636,337.732178 1359.572876,338.079559 
	C1360.357788,338.413849 1361.142578,338.748138 1362.120728,339.643250 
z"/>
<path fill="#FFFFFF" opacity="1.000000" stroke="none" 
	d="
M1350.958008,365.033081 
	C1354.651001,364.646515 1355.682983,365.994507 1353.976196,369.468292 
	C1351.897461,373.698822 1349.979248,378.008179 1347.960938,382.644470 
	C1347.930298,383.005463 1347.962769,382.923401 1347.962646,382.923401 
	C1341.987671,395.801331 1336.053711,408.698578 1330.013672,421.545929 
	C1328.114136,425.586151 1326.037598,429.553284 1323.842285,433.441132 
	C1321.989502,436.722473 1317.826782,437.699493 1314.577026,435.878113 
	C1311.885986,434.369965 1311.052612,429.969482 1313.103882,426.709778 
	C1320.213745,415.411438 1327.508301,404.228668 1334.564941,392.897552 
	C1340.171997,383.894287 1345.533569,374.738281 1351.044556,365.277222 
	C1351.084961,364.904327 1351.001831,364.991699 1350.958008,365.033081 
z"/>
<path fill="#FFFFFF" opacity="1.000000" stroke="none" 
	d="
M1338.653687,372.334839 
	C1338.245117,372.023438 1338.197632,372.121765 1338.166260,372.118958 
	C1340.006348,372.116180 1341.877930,372.116180 1344.612427,372.116180 
	C1343.585938,374.267914 1343.146851,376.033905 1342.088501,377.269897 
	C1335.029053,385.514832 1327.740479,393.564331 1320.718384,401.840363 
	C1314.800781,408.814789 1309.292847,416.141327 1303.259521,423.009766 
	C1301.842529,424.622925 1298.539917,426.285370 1296.991089,425.675201 
	C1294.693237,424.769989 1292.642090,422.093628 1291.599976,419.688477 
	C1291.161133,418.675629 1293.352173,416.233704 1294.714722,414.787079 
	C1298.161255,411.127563 1301.678223,407.510315 1305.418335,404.156616 
	C1311.559570,398.649689 1318.068115,393.545532 1324.105347,387.931274 
	C1329.319702,383.082214 1334.093628,377.759552 1338.653687,372.334839 
z"/>
<path fill="#FFFFFF" opacity="1.000000" stroke="none" 
	d="
M1449.000244,321.163513 
	C1449.000244,319.554291 1449.000244,318.425690 1449.000244,317.161499 
	C1451.047485,317.161499 1452.669067,317.161499 1454.645996,317.161499 
	C1454.645996,350.542084 1454.645996,384.018280 1454.645996,417.747803 
	C1452.986816,417.747803 1451.250488,417.747803 1449.000244,417.747803 
	C1449.000244,385.735168 1449.000244,353.689636 1449.000244,321.163513 
z"/>
<path fill="#FFFFFF" opacity="1.000000" stroke="none" 
	d="
M1356.899658,336.561035 
	C1357.128296,340.364746 1355.451538,340.273254 1352.979370,338.995117 
	C1348.511108,336.684998 1344.024048,334.403503 1339.464844,332.282074 
	C1338.248657,331.716125 1336.741699,331.774658 1335.160034,331.827118 
	C1323.323486,326.266998 1311.595215,320.610199 1300.171143,314.394135 
	C1298.384399,313.421906 1294.141479,311.745148 1296.899414,307.545746 
	C1299.273804,303.930389 1301.816406,301.841125 1306.186279,304.617371 
	C1316.887207,311.415955 1327.633423,318.143585 1338.380737,324.868896 
	C1344.487305,328.690216 1350.631836,332.450867 1356.899658,336.561035 
z"/>
<path fill="#FFFFFF" opacity="1.000000" stroke="none" 
	d="
M1884.999512,394.820068 
	C1884.234497,396.201111 1883.592407,397.684448 1882.678955,397.876495 
	C1880.769653,398.277893 1878.717285,397.998047 1876.362061,397.998047 
	C1876.362061,384.111938 1876.362061,370.280640 1876.362061,356.223206 
	C1878.927246,356.223206 1881.531006,356.223206 1884.588989,356.223206 
	C1884.817993,357.267914 1885.102905,358.567780 1885.412720,359.981079 
	C1886.022461,359.821381 1886.525757,359.790985 1886.917358,359.566010 
	C1887.748779,359.088226 1888.456665,358.223877 1889.331055,358.023315 
	C1892.394409,357.320709 1895.786377,355.879028 1898.481934,356.668823 
	C1899.811646,357.058502 1899.889893,361.719666 1900.222534,363.128113 
	C1895.750977,364.552795 1891.643921,364.922455 1888.880249,367.042938 
	C1886.721924,368.698914 1885.424194,372.458344 1885.166748,375.407257 
	C1884.619873,381.674438 1884.999756,388.022583 1884.999512,394.820068 
z"/>
<path fill="#FFFFFF" opacity="1.000000" stroke="none" 
	d="
M1907.000488,336.000061 
	C1909.169922,336.069122 1911.072998,335.343353 1911.055420,338.457123 
	C1910.944092,358.180206 1910.998901,377.904205 1910.998901,397.812561 
	C1908.199707,397.812561 1905.801270,397.812561 1903.000488,397.812561 
	C1903.000488,382.888306 1903.000366,368.147614 1903.000366,353.406891 
	C1903.000366,348.755951 1903.178345,344.095703 1902.935425,339.457489 
	C1902.784424,336.573547 1903.764771,335.529266 1907.000488,336.000061 
z"/>
<path fill="#FFFFFF" opacity="1.000000" stroke="none" 
	d="
M1326.621094,334.087158 
	C1329.340942,335.846405 1331.681641,337.526001 1334.692139,339.686340 
	C1332.824219,340.490753 1331.611572,341.013031 1330.175293,341.821411 
	C1329.514893,342.067780 1329.077881,342.028076 1328.233765,341.553589 
	C1324.870117,340.783600 1321.913574,340.448395 1318.957153,340.113190 
	C1317.898315,340.071411 1316.839600,340.029633 1315.314697,339.562317 
	C1307.102783,334.944946 1298.715942,334.420868 1290.167114,334.823181 
	C1289.928711,334.852081 1289.693970,334.898773 1289.175049,334.524536 
	C1284.212402,331.790985 1279.636719,329.425720 1280.957642,322.885651 
	C1282.959229,319.709869 1287.693115,319.128906 1292.461914,321.065735 
	C1300.110352,324.172028 1307.853394,327.046234 1315.563721,329.999176 
	C1319.114136,331.358917 1322.682007,332.672852 1326.621094,334.087158 
z"/>
<path fill="#FFFFFF" opacity="1.000000" stroke="none" 
	d="
M1359.251709,395.567322 
	C1360.312866,403.916962 1361.184448,411.853882 1361.988892,419.797638 
	C1362.417603,424.031311 1362.537720,428.304810 1363.150757,432.508789 
	C1363.741821,436.561859 1360.968872,437.957245 1358.253418,437.738892 
	C1356.400879,437.589905 1353.253052,435.026672 1353.226685,433.498993 
	C1352.885376,413.732513 1353.000732,393.958160 1353.000732,374.185791 
	C1353.444702,373.918671 1353.888550,373.651550 1354.332520,373.384430 
	C1355.554443,374.902527 1357.627441,376.308929 1357.844116,377.959015 
	C1358.590698,383.645935 1358.688965,389.417908 1359.251709,395.567322 
z"/>
<path fill="#FFFFFF" opacity="1.000000" stroke="none" 
	d="
M1347.887817,383.017517 
	C1351.585327,383.052979 1352.305908,384.327057 1351.491455,388.285950 
	C1349.791626,396.548645 1349.098389,405.018768 1348.001465,413.404938 
	C1346.990112,421.135742 1346.108765,428.886017 1344.933838,436.591705 
	C1344.413696,440.003601 1341.361328,440.821289 1338.882202,439.796143 
	C1337.118530,439.066895 1334.719238,436.153137 1335.025146,434.737579 
	C1337.193237,424.703888 1339.927490,414.789307 1342.600952,404.869049 
	C1344.522217,397.740021 1346.628662,390.660919 1348.307617,383.241455 
	C1347.962769,382.923401 1347.930298,383.005463 1347.887817,383.017517 
z"/>
<path fill="#FFFFFF" opacity="1.000000" stroke="none" 
	d="
M1293.629150,365.940765 
	C1297.252563,365.778046 1300.601440,365.998108 1303.836914,365.492462 
	C1312.138184,364.195190 1320.386597,362.562195 1328.665283,361.115417 
	C1329.215088,361.019287 1329.841309,361.359558 1330.584351,362.362061 
	C1323.562256,364.669403 1316.533325,366.956482 1309.519531,369.289276 
	C1300.881714,372.162201 1292.209717,374.944550 1283.659546,378.059753 
	C1281.565430,378.822723 1279.887695,380.728485 1278.009033,382.471008 
	C1276.585083,383.217987 1275.170654,383.602844 1273.332642,383.564575 
	C1270.288696,379.854340 1268.210571,376.375610 1268.939819,371.905182 
	C1268.939819,371.905182 1268.986694,371.985931 1269.383789,371.980316 
	C1275.903320,370.983337 1282.052124,370.123138 1288.128662,368.903137 
	C1289.545166,368.618713 1290.716309,367.111481 1292.000244,366.166870 
	C1292.434448,366.108887 1292.868652,366.050934 1293.629150,365.940765 
z"/>
<path fill="#FFFFFF" opacity="1.000000" stroke="none" 
	d="
M1364.060913,391.946106 
	C1362.538208,388.511078 1361.015381,385.076080 1359.492554,381.641052 
	C1360.012939,381.299591 1360.533325,380.958099 1361.053589,380.616608 
	C1363.019409,382.948883 1365.211792,385.129669 1366.896240,387.650055 
	C1369.241699,391.159912 1371.090454,394.973846 1376.418335,394.209106 
	C1377.339600,394.076874 1378.438354,395.179840 1379.756104,395.364258 
	C1380.057129,395.016205 1379.972168,394.909790 1379.666016,395.273010 
	C1380.603394,396.099274 1381.846802,396.562286 1383.037964,396.989288 
	C1382.985718,396.953278 1382.895752,396.864014 1382.895752,396.864014 
	C1383.196533,397.660431 1383.497314,398.456848 1383.573975,399.683105 
	C1382.886353,401.781006 1382.423096,403.449066 1381.959961,405.117096 
	C1381.164307,404.591064 1380.368774,404.065033 1379.573364,403.539001 
	C1379.197388,403.828278 1378.821411,404.117554 1378.445557,404.406860 
	C1381.382812,408.280212 1384.509033,412.029633 1387.167725,416.085571 
	C1388.289795,417.797211 1389.024170,420.230316 1388.776245,422.188782 
	C1388.638306,423.278137 1386.002686,424.948181 1384.696899,424.779083 
	C1382.815552,424.535461 1380.307861,423.287079 1379.477661,421.720337 
	C1374.313110,411.972778 1369.541992,402.016693 1364.310303,392.020996 
	C1363.980347,391.912201 1364.060913,391.946106 1364.060913,391.946106 
M1377.030884,401.474091 
	C1377.447754,402.056732 1377.864624,402.639404 1378.281372,403.221985 
	C1378.476562,403.039764 1378.864990,402.736267 1378.838135,402.693512 
	C1378.400757,401.997009 1377.910889,401.333466 1377.030884,401.474091 
M1375.054688,398.704254 
	C1375.317993,399.110382 1375.581299,399.516510 1375.844727,399.922607 
	C1375.791504,399.353973 1375.738403,398.785339 1375.054688,398.704254 
z"/>
<path fill="#FFFFFF" opacity="1.000000" stroke="none" 
	d="
M1383.999756,317.195068 
	C1383.999756,315.256714 1383.999756,313.778137 1383.999756,312.413208 
	C1390.687744,309.231201 1392.109009,310.061432 1391.975708,317.211334 
	C1391.726440,330.581879 1391.375122,343.951080 1390.944092,357.316895 
	C1390.891968,358.935120 1390.084106,360.528992 1389.626465,362.134186 
	C1389.020020,362.113983 1388.413696,362.093781 1387.807251,362.073578 
	C1386.538086,347.267334 1385.269043,332.461090 1383.999756,317.195068 
z"/>
<path fill="#FFFFFF" opacity="1.000000" stroke="none" 
	d="
M1363.969482,391.869934 
	C1365.576050,396.688660 1367.023926,401.614502 1368.852661,406.394623 
	C1371.247192,412.653656 1374.070190,418.749390 1376.431763,425.019684 
	C1377.154785,426.939453 1376.967163,429.202179 1377.235596,431.667114 
	C1374.544312,431.667114 1372.139893,431.667114 1369.180542,431.667114 
	C1366.279907,419.592163 1363.233154,407.202209 1360.378174,394.768188 
	C1359.828369,392.373505 1361.199219,391.525238 1363.776855,392.285522 
	C1364.060913,391.946106 1363.980347,391.912201 1363.969482,391.869934 
z"/>
<path fill="#FFFFFF" opacity="1.000000" stroke="none" 
	d="
M1380.109375,395.059845 
	C1375.943604,392.189056 1371.725708,389.274658 1367.507812,386.360229 
	C1367.796265,385.809387 1368.084717,385.258514 1368.373047,384.707672 
	C1371.014038,385.491486 1373.778442,385.998291 1376.273438,387.109741 
	C1384.609131,390.822968 1392.784180,394.900208 1401.155640,398.526917 
	C1404.516479,399.982941 1404.807129,402.454132 1403.501709,404.821259 
	C1402.055542,407.443665 1399.779175,407.808990 1396.920776,405.617035 
	C1392.742920,402.413300 1388.084106,399.836853 1383.262939,396.928528 
	C1382.895752,396.864014 1382.985718,396.953278 1382.936768,396.667358 
	C1381.915894,395.890930 1380.944092,395.400360 1379.972168,394.909790 
	C1379.972168,394.909790 1380.057129,395.016205 1380.109375,395.059845 
z"/>
<path fill="#FFFFFF" opacity="1.000000" stroke="none" 
	d="
M1398.955444,359.927429 
	C1396.634644,363.379517 1394.313721,366.831604 1391.970215,370.635406 
	C1391.947510,370.987152 1391.976929,370.904785 1391.976929,370.904785 
	C1388.312378,371.612274 1388.453003,369.363037 1389.385254,367.172943 
	C1393.509521,357.484711 1397.670532,347.806366 1402.178345,338.295074 
	C1402.698120,337.198425 1405.726929,336.406708 1407.104858,336.883392 
	C1408.189941,337.258789 1409.526855,340.308807 1409.026978,341.306427 
	C1405.954346,347.438568 1402.391357,353.324982 1398.957031,359.650940 
	C1398.922729,360.008759 1398.955444,359.927429 1398.955444,359.927429 
z"/>
<path fill="#FFFFFF" opacity="1.000000" stroke="none" 
	d="
M1399.613037,381.999146 
	C1402.685303,381.332794 1405.416748,379.910828 1407.885010,380.274475 
	C1409.457520,380.506195 1411.300781,383.239258 1411.719971,385.138275 
	C1411.931152,386.094482 1409.158081,388.894531 1407.875610,388.806427 
	C1398.515015,388.163452 1389.185303,387.040344 1379.863037,385.924896 
	C1379.049316,385.827545 1378.359131,384.697327 1376.786743,383.329254 
	C1385.140015,382.832916 1392.150391,382.416351 1399.613037,381.999146 
z"/>
<path fill="#FFFFFF" opacity="1.000000" stroke="none" 
	d="
M1391.905518,370.999451 
	C1396.161377,368.902283 1400.496582,366.864807 1404.741089,364.653107 
	C1406.867554,363.545105 1408.828735,362.119598 1410.794067,360.882111 
	C1415.558960,364.796448 1415.276245,367.215820 1410.052124,369.442444 
	C1403.429932,372.265015 1396.852051,375.195038 1390.182861,377.900879 
	C1389.096802,378.341522 1387.637939,377.863770 1386.351440,377.810486 
	C1387.082153,376.829956 1387.705688,375.739899 1388.568848,374.894897 
	C1389.825195,373.665100 1391.254395,372.611847 1392.293457,371.194031 
	C1391.976929,370.904785 1391.947510,370.987152 1391.905518,370.999451 
z"/>
<path fill="#FFFFFF" opacity="1.000000" stroke="none" 
	d="
M1382.115479,405.451599 
	C1382.423096,403.449066 1382.886353,401.781006 1383.731934,400.035095 
	C1388.370605,402.781921 1392.802368,405.388824 1396.764404,408.579102 
	C1397.800415,409.413300 1398.027832,412.324097 1397.432861,413.799835 
	C1396.875610,415.181610 1394.834717,416.467926 1393.258179,416.753113 
	C1392.262939,416.933167 1390.758179,415.350464 1389.766602,414.291870 
	C1387.184326,411.535034 1384.758911,408.631226 1382.115479,405.451599 
z"/>
<path fill="#FFFFFF" opacity="1.000000" stroke="none" 
	d="
M1393.999878,339.931458 
	C1394.337769,335.734894 1394.436401,331.947815 1395.093628,328.260254 
	C1395.567383,325.602722 1396.863159,323.055908 1400.423462,324.146851 
	C1403.561768,325.108490 1403.474976,327.407288 1402.557373,329.984711 
	C1400.574097,335.555359 1398.713745,341.171417 1396.621216,346.700043 
	C1396.216064,347.770142 1394.981934,348.526398 1394.130249,349.427460 
	C1393.698730,349.221436 1393.267090,349.015411 1392.835571,348.809387 
	C1393.223633,346.000793 1393.611816,343.192169 1393.999878,339.931458 
z"/>
<path fill="#FFFFFF" opacity="1.000000" stroke="none" 
	d="
M1398.880371,360.020111 
	C1399.883057,359.425385 1401.197998,359.041412 1401.917114,358.167145 
	C1403.436157,356.320282 1404.470825,354.066437 1406.036499,352.269073 
	C1407.182251,350.953949 1408.753784,349.842590 1410.359375,349.194244 
	C1410.859253,348.992310 1412.918457,350.707153 1412.833984,351.359497 
	C1412.560181,353.476013 1412.218506,356.151031 1410.822144,357.441040 
	C1407.584106,360.432434 1403.712769,362.738556 1398.873901,366.197723 
	C1399.255737,363.423004 1399.453857,361.982910 1399.303711,360.235107 
	C1398.955444,359.927429 1398.922729,360.008759 1398.880371,360.020111 
z"/>
<path fill="#FFFFFF" opacity="1.000000" stroke="none" 
	d="
M1395.873901,394.015625 
	C1393.788208,392.808990 1392.101562,391.618652 1390.415039,390.428314 
	C1390.682129,389.997345 1390.949097,389.566376 1391.216187,389.135437 
	C1395.906738,389.462891 1400.630371,389.553162 1405.275879,390.202484 
	C1408.293335,390.624268 1410.066040,393.133698 1408.742920,395.873505 
	C1408.158325,397.083832 1404.906860,397.802002 1403.126831,397.444702 
	C1400.711304,396.959900 1398.545776,395.228607 1395.873901,394.015625 
z"/>
<path fill="#FFFFFF" opacity="1.000000" stroke="none" 
	d="
M1413.700195,374.285767 
	C1412.583008,376.076050 1411.427612,378.404205 1409.786743,378.821014 
	C1406.221191,379.726685 1402.411133,379.714233 1398.692627,379.933167 
	C1398.006714,379.973572 1396.853516,379.484253 1396.677368,378.975708 
	C1396.436401,378.279938 1396.717285,376.725372 1397.130859,376.584442 
	C1401.935669,374.947266 1406.793335,373.455353 1411.688843,372.113983 
	C1412.075928,372.007935 1412.848511,373.309540 1413.700195,374.285767 
z"/>
<path fill="#FFFFFF" opacity="1.000000" stroke="none" 
	d="
M1291.582275,366.089569 
	C1290.716309,367.111481 1289.545166,368.618713 1288.128662,368.903137 
	C1282.052124,370.123138 1275.903320,370.983337 1269.343262,371.957092 
	C1271.636719,370.948822 1274.309814,369.728821 1277.112061,369.019135 
	C1281.752441,367.843872 1286.475830,366.997253 1291.582275,366.089569 
z"/>
<path fill="#FFFFFF" opacity="1.000000" stroke="none" 
	d="
M1290.495361,335.042603 
	C1298.715942,334.420868 1307.102783,334.944946 1314.924316,339.484985 
	C1306.941284,338.309479 1298.882324,336.785736 1290.495361,335.042603 
z"/>
<path fill="#FFFFFF" opacity="1.000000" stroke="none" 
	d="
M1280.597900,323.051605 
	C1279.636719,329.425720 1284.212402,331.790985 1289.004639,334.459473 
	C1279.747559,334.356903 1276.861206,330.353699 1280.597900,323.051605 
z"/>
<path fill="#FFFFFF" opacity="1.000000" stroke="none" 
	d="
M1268.580322,372.069794 
	C1268.210571,376.375610 1270.288696,379.854340 1272.954712,383.487335 
	C1267.522461,383.278076 1265.365479,378.043579 1268.580322,372.069794 
z"/>
<path fill="#FFFFFF" opacity="1.000000" stroke="none" 
	d="
M1319.142090,340.469269 
	C1321.913574,340.448395 1324.870117,340.783600 1327.913330,341.476013 
	C1325.109131,341.497223 1322.218140,341.161285 1319.142090,340.469269 
z"/>
<path fill="#00AAAA" opacity="1.000000" stroke="none" 
	d="
M282.902710,300.734375 
	C282.472534,300.828674 282.356537,300.589020 282.652954,300.153076 
	C282.787231,300.059174 282.938782,300.502777 282.902710,300.734375 
z"/>
<path fill="#00AAAA" opacity="1.000000" stroke="none" 
	d="
M282.862610,426.722107 
	C282.416534,426.746429 282.345245,426.492981 282.719666,426.109924 
	C282.866669,426.036072 282.938660,426.500000 282.862610,426.722107 
z"/>
<path fill="#000000" opacity="1.000000" stroke="none" 
	d="
M1794.260498,367.249207 
	C1798.884399,362.873016 1804.004028,362.164215 1809.124268,364.754639 
	C1813.775879,367.107941 1815.863770,371.244202 1816.109619,376.754822 
	C1816.630005,388.413422 1808.965942,392.156006 1799.429565,390.948181 
	C1793.725342,390.225677 1788.406860,380.896088 1790.223755,374.670898 
	C1790.963501,372.136536 1792.703369,369.894104 1794.260498,367.249207 
z"/>
<path fill="#000000" opacity="1.000000" stroke="none" 
	d="
M1764.822754,368.490936 
	C1767.530518,374.934509 1768.160034,380.669067 1764.156616,386.720154 
	C1760.411499,392.380859 1748.487305,392.387421 1744.892456,386.748444 
	C1739.387329,378.112732 1739.786133,370.793121 1746.495605,365.981354 
	C1751.813110,362.167938 1760.104980,362.382996 1764.822754,368.490936 
z"/>
<path fill="#000000" opacity="1.000000" stroke="none" 
	d="
M1841.825439,365.674103 
	C1851.057739,361.272644 1857.740234,363.091095 1860.809937,370.518372 
	C1861.045776,371.089264 1860.925903,371.807281 1860.990723,372.733276 
	C1853.291626,372.733276 1845.754761,372.733276 1837.047974,372.733276 
	C1838.823364,370.068542 1840.190552,368.016632 1841.825439,365.674103 
z"/>
<path fill="#000000" opacity="1.000000" stroke="none" 
	d="
M1947.164185,365.665649 
	C1948.711792,368.089966 1949.992676,370.222382 1951.526489,372.775757 
	C1942.901733,372.775757 1935.068115,372.775757 1927.160400,372.775757 
	C1930.389771,363.225342 1936.629517,360.947357 1947.164185,365.665649 
z"/>
<path fill="#000000" opacity="1.000000" stroke="none" 
	d="
M1990.244385,364.685181 
	C1992.741821,367.823792 1995.373291,370.458191 1997.024658,373.606689 
	C2000.584473,380.393677 1993.894287,389.360107 1989.280029,390.819214 
	C1981.843872,393.170776 1973.690918,388.955994 1972.002563,382.294312 
	C1969.592041,372.783447 1973.173096,365.741272 1981.651123,364.093750 
	C1984.291748,363.580536 1987.166626,364.273315 1990.244385,364.685181 
z"/>
<path fill="#000000" opacity="1.000000" stroke="none" 
	d="
M1718.490479,382.004822 
	C1714.383545,392.123077 1707.173706,392.685547 1699.520508,389.964874 
	C1692.466675,387.457397 1689.830688,377.411560 1693.593750,370.879272 
	C1696.932739,365.083435 1703.328369,362.339996 1709.973145,364.042603 
	C1714.256836,365.140228 1720.126709,372.225647 1719.027710,377.758759 
	C1718.772217,379.045502 1718.864136,380.401245 1718.490479,382.004822 
z"/>
<path fill="#000000" opacity="1.000000" stroke="none" 
	d="
M1374.333374,345.781219 
	C1371.203491,344.654297 1368.378784,343.230499 1364.767212,341.410065 
	C1368.045898,341.129700 1370.240601,340.252472 1368.609131,336.723145 
	C1370.885010,339.440247 1372.761841,342.462280 1374.333374,345.781219 
z"/>
<path fill="#000000" opacity="1.000000" stroke="none" 
	d="
M1361.927368,339.082428 
	C1361.142578,338.748138 1360.357788,338.413849 1359.572876,338.079559 
	C1359.676636,337.732178 1359.780273,337.384766 1359.884033,337.037384 
	C1360.686890,337.313416 1361.489868,337.589447 1362.319092,338.303894 
	C1362.206055,338.855652 1362.066650,338.969025 1361.927368,339.082428 
z"/>
<path fill="#000000" opacity="1.000000" stroke="none" 
	d="
M1362.570068,338.593750 
	C1363.109985,338.884796 1363.425049,339.324432 1363.740112,339.764038 
	C1363.200317,339.723785 1362.660522,339.683533 1362.024048,339.362854 
	C1362.066650,338.969025 1362.206055,338.855652 1362.570068,338.593750 
z"/>
<path fill="#000000" opacity="1.000000" stroke="none" 
	d="
M1379.666016,395.273010 
	C1380.944092,395.400360 1381.915894,395.890930 1382.989014,396.703369 
	C1381.846802,396.562286 1380.603394,396.099274 1379.666016,395.273010 
z"/>
<path fill="#000000" opacity="1.000000" stroke="none" 
	d="
M1377.231934,401.068298 
	C1377.910889,401.333466 1378.400757,401.997009 1378.838135,402.693512 
	C1378.864990,402.736267 1378.476562,403.039764 1378.281494,403.222015 
	C1377.864624,402.639404 1377.447754,402.056732 1377.231934,401.068298 
z"/>
<path fill="#000000" opacity="1.000000" stroke="none" 
	d="
M1375.369995,398.460480 
	C1375.738403,398.785339 1375.791504,399.353973 1375.844727,399.922607 
	C1375.581299,399.516510 1375.317993,399.110382 1375.369995,398.460480 
z"/>
</svg>